<?xml version="1.0" encoding="UTF-8" standalone="no"?>
<!-- Created with Inkscape (http://www.inkscape.org/) -->

<svg
   width="210mm"
   height="297mm"
   viewBox="0 0 210 297"
   version="1.1"
   id="svg1"
   xml:space="preserve"
   inkscape:version="1.4.2 (f4327f4, 2025-05-13)"
   sodipodi:docname="2000.svg"
   xmlns:inkscape="http://www.inkscape.org/namespaces/inkscape"
   xmlns:sodipodi="http://sodipodi.sourceforge.net/DTD/sodipodi-0.dtd"
   xmlns="http://www.w3.org/2000/svg"
   xmlns:svg="http://www.w3.org/2000/svg"><sodipodi:namedview
     id="namedview1"
     pagecolor="#ffffff"
     bordercolor="#000000"
     borderopacity="0.25"
     inkscape:showpageshadow="2"
     inkscape:pageopacity="0.0"
     inkscape:pagecheckerboard="0"
     inkscape:deskcolor="#d1d1d1"
     inkscape:document-units="mm"
     inkscape:zoom="5.8810095"
     inkscape:cx="93.096262"
     inkscape:cy="68.100553"
     inkscape:window-width="2560"
     inkscape:window-height="1369"
     inkscape:window-x="-8"
     inkscape:window-y="482"
     inkscape:window-maximized="1"
     inkscape:current-layer="layer1" /><defs
     id="defs1"><inkscape:path-effect
       effect="mirror_symmetry"
       start_point="-1.2241096e-09,13"
       end_point="53,13"
       center_point="26.5,13"
       id="path-effect1"
       is_visible="true"
       lpeversion="1.2"
       lpesatellites=""
       mode="Y"
       discard_orig_path="false"
       fuse_paths="true"
       oposite_fuse="false"
       split_items="false"
       split_open="false"
       link_styles="false" /></defs><g
     inkscape:label="Layer 1"
     inkscape:groupmode="layer"
     id="layer1"><path
       id="profile_1"
       style="fill:#000000;stroke-width:1;paint-order:fill markers stroke"
       inkscape:label="#profile_1"
       d="M 13.00024,0 C 8.4958984,0 6.1536694,1.463402 3.8085531,3.8085531 1.4634436,6.1536968 6.3754806e-5,9.6837133 0,13.00024 c 6.3754806e-5,3.316527 1.4634436,6.846027 3.8085531,9.19117 2.3451162,2.345151 4.6873453,3.808553 9.1916869,3.808553 4.504342,0 7.49013,-2.143982 9.19076,-3.808963 1.733304,-1.69697 3.222903,-5.191004 4.559022,-5.191004 1.336118,0 2.125495,1.999878 3.000334,1.999878 1.0548,0 0.999939,-0.499711 0.999939,-0.499711 v -2.124935 h 21.749577 c 0,0 2.499917,-0.0033 2.500106,-3.374988 C 54.999789,9.6285349 52.499872,9.6252523 52.499872,9.6252523 H 30.750295 V 7.4998006 c 0,0 0.05486,-0.4997111 -0.999939,-0.4997111 -0.874839,0 -1.664216,1.9998779 -3.000334,1.9998779 C 25.413903,8.9999674 23.969293,5.5509597 22.191,3.809 20.490821,2.1435584 17.504582,0 13.00024,0 Z M 4.4999837,9.9999064 C 6.1568967,10.000008 7.4999849,11.343327 7.4998006,13.00024 7.4996995,14.656951 6.156695,15.999956 4.4999837,16.000057 2.8432724,15.999956 1.5002679,14.656951 1.5001668,13.00024 1.4999825,11.343327 2.8430707,10.000008 4.4999837,9.9999064 Z"
       sodipodi:nodetypes="sscssssscccccccssssccccc" /></g></svg>
