<?xml version="1.0" encoding="UTF-8" standalone="no"?>
<!-- Created with Inkscape (http://www.inkscape.org/) -->

<svg
   width="210mm"
   height="297mm"
   viewBox="0 0 210 297"
   version="1.1"
   id="svg1"
   xml:space="preserve"
   inkscape:version="1.4.2 (f4327f4, 2025-05-13)"
   sodipodi:docname="Paclock.svg"
   xmlns:inkscape="http://www.inkscape.org/namespaces/inkscape"
   xmlns:sodipodi="http://sodipodi.sourceforge.net/DTD/sodipodi-0.dtd"
   xmlns="http://www.w3.org/2000/svg"
   xmlns:svg="http://www.w3.org/2000/svg"><sodipodi:namedview
     id="namedview1"
     pagecolor="#ffffff"
     bordercolor="#000000"
     borderopacity="0.25"
     inkscape:showpageshadow="2"
     inkscape:pageopacity="0.0"
     inkscape:pagecheckerboard="0"
     inkscape:deskcolor="#d1d1d1"
     inkscape:document-units="mm"
     inkscape:zoom="1.4702524"
     inkscape:cx="587.31414"
     inkscape:cy="162.8972"
     inkscape:window-width="2560"
     inkscape:window-height="1369"
     inkscape:window-x="-8"
     inkscape:window-y="482"
     inkscape:window-maximized="1"
     inkscape:current-layer="layer1" /><defs
     id="defs1" /><g
     inkscape:label="Layer 1"
     inkscape:groupmode="layer"
     id="layer1"><path
       id="profile_pr1"
       style="fill:#000000;stroke-width:0.264583"
       d="m 5,23.9 c 0,0 12.51,1.38 13.75,1.5 1.56,0.15 2.2564,-0.544002 2.75,-1.75 0.4936,-1.205998 1.34431,-2.528272 1.98,-4.12 C 24.11432,17.941716 25.95,18 27,18 c 4.73,0 7.52,0.06 8.22,0 0.7,-0.06 0.78,-0.79 0.78,-0.79 v -1.96 c 0,0 -5.6e-4,0.0033 1.25,1.25 7.79204,0.03981 12.40336,0.0057 20.25,0 l 3.750003,-3.77 V 11.28 L 58.75,9 C 58.75,9 28.2138,9.02844 27,9 25.5488,8.966 24.32,8.95 24,8 23.68,7.05 21.95,3.31 21.5,1.75 21.05,0.19 18.75,0 18.75,0 18.75,0 6.81,1.31 5,1.5 0.73,1.95 2.7,6.82 1,7 0.4,7.06 0.06,8 0.06,8 0.06,8 0,17.27 0,17.4 c 0.13,-0.03 -0.1,0.48 1,1 2.09,0.98 -0.59,4.63 4,5.5 M 6.25,8.25 c 0,0 1.35,0.13 1.25,1.75 -0.1,1.62 0,5.25 0,5.25 0,0 0.01,2.08 -1.25,2 C 4.72,17.12 4.74,17.09 3.75,17 2.64,16.68 2.6,16.55 2.6,15.75 v -6 c 0,0 0.13,-1.09 1.15,-1.25 1.02,-0.16 2.5,-0.25 2.5,-0.25 z"
       sodipodi:nodetypes="ccsscsccccccccssccsccscccccccccc"
       inkscape:label="#profile_pr1" /><path
       id="profile_pro"
       style="fill:#000000;stroke-width:0.264583"
       d="m 5,53.9 c 0,0 12.51,1.38 13.75,1.5 1.56,0.15 2.2564,-0.544002 2.75,-1.75 0.4936,-1.205998 1.34431,-2.528272 1.98,-4.12 C 24.11432,47.941716 25.95,48 27,48 c 4.73,0 7.52,0.06 8.22,0 0.7,-0.06 0.78,-0.79 0.78,-0.79 v -1.96 c 0,0 -5.6e-4,0.0033 1.25,1.25 7.79203,0.03981 15.90336,0.0057 23.75,0 l 3.75,-3.77 V 41.28 L 62.23,39 C 62.23,39 28.21379,39.02844 27,39 25.5488,38.966 24.32,38.95 24,38 23.68,37.05 21.95,33.31 21.5,31.75 21.05,30.19 18.75,30 18.75,30 18.75,30 6.81,31.31 5,31.5 0.73,31.95 2.7,36.82 1,37 0.4,37.06 0.06,38 0.06,38 0.06,38 0,47.27 0,47.4 c 0.13,-0.03 -0.1,0.48 1,1 2.09,0.98 -0.59,4.63 4,5.5 M 6.25,38.25 c 0,0 1.35,0.13 1.25,1.75 -0.1,1.62 0,5.25 0,5.25 0,0 0.01,2.08 -1.25,2 C 4.72,47.12 4.74,47.09 3.75,47 2.64,46.68 2.6,46.55 2.6,45.75 v -6 c 0,0 0.13,-1.09 1.15,-1.25 1.02,-0.16 2.5,-0.25 2.5,-0.25 z"
       sodipodi:nodetypes="ccsscsccccccccssccsccscccccccccc"
       inkscape:label="#profile_pro" /><text
       xml:space="preserve"
       style="font-size:8.46667px;text-align:start;writing-mode:lr-tb;direction:ltr;text-anchor:start;fill:#000000;stroke-width:0.264583"
       x="66.933167"
       y="14.506426"
       id="text1"><tspan
         sodipodi:role="line"
         id="tspan1"
         style="stroke-width:0.264583"
         x="66.933167"
         y="14.506426">PR1</tspan></text><text
       xml:space="preserve"
       style="font-size:8.46667px;text-align:start;writing-mode:lr-tb;direction:ltr;text-anchor:start;fill:#000000;stroke-width:0.264583"
       x="69.608086"
       y="45.599285"
       id="text1-1"><tspan
         sodipodi:role="line"
         id="tspan1-5"
         style="stroke-width:0.264583"
         x="69.608086"
         y="45.599285">PRO</tspan><tspan
         sodipodi:role="line"
         style="stroke-width:0.264583"
         x="69.608086"
         y="56.182621"
         id="tspan2" /></text><path
       style="fill:#000000;stroke-width:0.264583"
       d="m 90,14.625 v -1 h 1 l -1,-1.25 1,-1.25 h -1 v -2 l 1,-0.75 -0.25,-0.5 v -0.75 h 0.75 v 0.35 H 92 v 1.4 l -1,0.75 1,0.75 v 2 h -1 l 1,1.25 v 1 z"
       id="keyway_pr1"
       inkscape:label="#keyway_pr1" /></g></svg>
