<?xml version='1.0' encoding='utf-8'?>
<svg width="90.921678mm" height="100.09mm" viewBox="-20.59474 -15.885168 38.480207 42.360458" version="1.1" xmlns="http://www.w3.org/2000/svg">
  <g transform="scale(1,-1)" stroke-linecap="round">
    <g fill="none" stroke="rgb(0,0,0)" stroke-width="0.038090130990263434" id="Visible">
      <line x1="17.659253" y1="6.710462" x2="17.659253" y2="8.182739" />
      <path d="M 17.659253,6.710462 C 17.659253,6.710462 13.480144,-1.324744 13.05078,-2.116274" />
      <path d="M 17.659253,8.182739 C 17.659253,8.182739 13.480144,0.147533 13.05078,-0.643998" />
      <line x1="14.436712" y1="12.212298" x2="14.436712" y2="12.23612" />
      <path d="M 17.866422,7.65915 C 17.866422,7.387931 17.803102,7.074954 17.659253,6.710462" />
      <path d="M 14.436712,12.23612 C 14.436654,12.232126 14.436625,12.228146 14.436625,12.224179" />
      <path d="M 14.436625,12.224179 C 14.436625,10.861801 17.866422,11.127526 17.866422,9.131426" />
      <path d="M 17.866422,9.131426 C 17.866422,8.860207 17.803102,8.547231 17.659253,8.182739" />
      <path d="M 13.05078,-2.116274 C 12.509741,-3.111787 11.582459,-3.332937 10.281691,-3.280179" />
      <path d="M 13.05078,-0.643998 C 12.509741,-1.63951 11.582459,-1.860661 10.281691,-1.807903" />
      <path d="M -9.453892,3.144989 C -9.966049,3.454694 -10.113806,3.894385 -10.113806,4.298676" />
      <path d="M -4.905268,-0.213525 C -5.622667,0.260373 -8.243131,2.412833 -9.453892,3.144989" />
      <path d="M -4.890016,-0.223769 C -4.895037,-0.22034 -4.900121,-0.216925 -4.905268,-0.213525" />
      <line x1="-20.237829" y1="-24.599373" x2="-20.491497" y2="-24.017877" />
      <line x1="-18.306684" y1="-26.456245" x2="-18.334182" y2="-26.447293" />
      <line x1="-16.081012" y1="-25.93285" x2="-18.306684" y2="-26.456245" />
      <line x1="-6.924272" y1="-11.544516" x2="-6.445567" y2="-10.870928" />
      <line x1="-6.445567" y1="-10.870928" x2="-5.160141" y2="-10.566049" />
      <line x1="-2.401932" y1="-10.04123" x2="-3.856913" y2="-9.567543" />
      <line x1="-1.807161" y1="-10.23488" x2="-2.40194" y2="-10.041242" />
      <path d="M -0.757131,-9.990903 C -1.114631,-10.400257 -1.807161,-10.23488 -1.807161,-10.23488" />
      <path d="M 2.806,-4.977207 C 0.755683,-7.862217 -0.399631,-9.581549 -0.757131,-9.990903" />
      <path d="M 5.710605,-3.279105 C 4.004335,-3.20002 3.261145,-4.336772 2.806,-4.977207" />
      <path d="M 10.281691,-3.280179 C 8.980922,-3.227421 7.420573,-3.358364 5.710605,-3.279105" />
      <path d="M 4.323103,11.99104 C 4.01333,11.687148 3.665507,11.299208 3.406307,11.000855" />
      <path d="M 5.948055,12.325736 C 5.948055,12.325736 4.90943,12.566236 4.323103,11.99104" />
      <line x1="11.355063" y1="10.565416" x2="5.948055" y2="12.325736" />
      <path d="M 11.702738,10.443527 C 11.608018,10.481966 11.492892,10.520545 11.355063,10.565416" />
      <path d="M 13.969015,13.139446 C 13.963227,13.134553 13.960536,13.129955 13.960536,13.125359" />
      <path d="M 13.960536,13.125359 C 13.960536,13.064219 14.436802,13.003416 14.436802,12.254002" />
      <path d="M 14.436802,12.254002 C 14.436802,12.248085 14.436772,12.242124 14.436712,12.23612" />
      <path d="M 5.472027,15.860684 C 5.472027,15.860684 13.851863,13.177586 13.969015,13.139446" />
      <path d="M 4.163396,15.580728 C 4.477548,15.929088 5.472027,15.860684 5.472027,15.860684" />
      <path d="M -2.526913,14.7546 C -0.270466,17.227014 3.264285,14.596642 4.163396,15.580728" />
      <path d="M -9.838891,6.808023 C -9.838891,6.808023 -3.482717,13.706354 -2.526913,14.7546" />
      <path d="M -9.453892,4.617265 C -9.966049,4.926971 -10.113806,5.366662 -10.113806,5.770953" />
      <path d="M -10.113806,5.770953 C -10.113806,6.322421 -9.838891,6.808023 -9.838891,6.808023" />
      <path d="M -4.905268,1.258752 C -5.622667,1.73265 -8.243131,3.88511 -9.453892,4.617265" />
      <path d="M -5.304513,-0.864451 C -4.91339,-0.279402 -4.556521,0.245442 -4.556521,0.671171" />
      <path d="M -4.556521,0.671171 C -4.556521,0.896803 -4.656761,1.094594 -4.905268,1.258752" />
      <path d="M -9.194369,-6.35759 C -7.07454,-3.374351 -5.464105,-1.103173 -5.304513,-0.864451" />
      <line x1="-9.025894" y1="-6.412439" x2="-9.194369" y2="-6.35759" />
      <line x1="-20.491461" y1="-22.545684" x2="-9.025894" y2="-6.412439" />
      <line x1="-20.183063" y1="-23.252641" x2="-20.491461" y2="-22.545684" />
      <line x1="-20.183063" y1="-23.252641" x2="-8.367426" y2="-6.626812" />
      <line x1="-6.998266" y1="-7.072559" x2="-8.367426" y2="-6.626812" />
      <line x1="-19.460564" y1="-24.608308" x2="-6.998266" y2="-7.072559" />
      <line x1="-18.306684" y1="-24.983968" x2="-19.460564" y2="-24.608308" />
      <line x1="-17.746552" y1="-24.852246" x2="-18.306684" y2="-24.983968" />
      <line x1="-17.746552" y1="-24.852246" x2="-5.465523" y2="-7.571563" />
      <line x1="-3.934294" y1="-8.070074" x2="-5.465523" y2="-7.571563" />
      <line x1="-4.560788" y1="-8.951617" x2="-3.934294" y2="-8.070074" />
      <line x1="-4.560788" y1="-8.951617" x2="-3.328023" y2="-8.659227" />
      <path d="M -3.573451,-8.187565 C -3.573451,-8.187565 -3.571654,-8.187916 -3.328023,-8.659227" />
      <line x1="-2.942261" y1="-8.393057" x2="-3.573451" y2="-8.187565" />
      <line x1="-2.942261" y1="-8.393057" x2="-2.942253" y2="-8.393045" />
      <line x1="-2.401932" y1="-8.568954" x2="-2.942253" y2="-8.393045" />
      <line x1="-2.401932" y1="-8.568954" x2="-2.40194" y2="-8.568965" />
      <line x1="-1.807161" y1="-8.762603" x2="-2.40194" y2="-8.568965" />
      <path d="M -0.757131,-8.518627 C -1.114631,-8.92798 -1.807161,-8.762603 -1.807161,-8.762603" />
      <path d="M 2.806,-3.504931 C 0.755683,-6.389941 -0.399631,-8.109273 -0.757131,-8.518627" />
      <path d="M 5.710605,-1.806828 C 4.004335,-1.727743 3.261145,-2.864495 2.806,-3.504931" />
      <path d="M 10.281691,-1.807903 C 8.980922,-1.755145 7.420573,-1.886088 5.710605,-1.806828" />
      <path d="M 3.014133,12.011817 C 3.014133,12.011817 2.945211,11.884945 2.945211,11.705162" />
      <path d="M 2.945211,11.705162 C 2.945211,11.416447 3.122958,10.991277 4.049339,10.735967" />
      <path d="M 4.323103,13.463317 C 3.736776,12.888121 3.014133,12.011817 3.014133,12.011817" />
      <path d="M 4.049339,10.735967 C 5.552578,10.321674 8.780472,9.195687 8.780472,9.195687" />
      <path d="M 5.948055,13.798013 C 5.948055,13.798013 4.90943,14.038512 4.323103,13.463317" />
      <path d="M 8.780472,9.195687 C 8.780472,9.195687 10.650567,8.579343 11.124647,9.371337" />
      <line x1="11.355063" y1="12.037693" x2="5.948055" y2="13.798013" />
      <path d="M 11.124647,9.371337 C 11.670705,10.342683 11.635001,10.339286 11.983032,10.96953" />
      <path d="M 11.983032,10.96953 C 12.037803,11.188559 12.068956,11.350407 12.068956,11.475268" />
      <path d="M 12.068956,11.475268 C 12.068956,11.78988 11.87117,11.869668 11.355063,12.037693" />
      <line x1="13.969015" y1="13.110505" x2="13.969015" y2="13.139446" />
      <path d="M -9.194369,-6.35759 L -9.194369,-6.452133" />
      <line x1="-20.575695" y1="-23.67887" x2="-20.575695" y2="-22.498587" />
      <path d="M -20.575695,-23.67887 C -20.576242,-23.755737 -20.536285,-23.916618 -20.491497,-24.017877" />
      <path d="M -19.678776,-25.807342 C -19.660644,-25.874342 -19.636374,-25.94133 -19.613378,-25.987852" />
      <line x1="-19.678776" y1="-25.807342" x2="-20.153629" y2="-24.056251" />
      <line x1="-20.153629" y1="-24.056251" x2="-20.153629" y2="-24.645163" />
      <path d="M -20.237829,-24.599373 C -20.205902,-24.672868 -20.175071,-24.70935 -20.161689,-24.689469" />
      <path d="M -20.161689,-24.689469 Q -20.153698,-24.677943 -20.153629,-24.645163" />
      <path d="M -20.491461,-22.545684 C -20.5234,-22.472136 -20.55425,-22.435615 -20.567638,-22.455504" />
      <path d="M -20.567638,-22.455504 Q -20.575475,-22.466797 -20.575695,-22.498587" />
      <path d="M -20.130507,-23.405379 Q -20.153663,-23.320695 -20.183063,-23.252641" />
      <line x1="-20.130507" y1="-23.405379" x2="-19.626043" y2="-25.265663" />
      <line x1="-19.626043" y1="-25.265663" x2="-19.626043" y2="-24.676752" />
      <path d="M -19.613378,-24.62822 L -19.617983,-24.632445" />
      <path d="M -19.617983,-24.632445 Q -19.625974,-24.643972 -19.626043,-24.676752" />
      <line x1="-19.613378" y1="-25.987852" x2="-19.613378" y2="-24.62822" />
      <path d="M -18.334182,-26.447293 A 0.2,0.13267680169552773 -35.40063029114034 0,0 -18.513959,-26.241537" />
      <line x1="-18.513959" y1="-26.241537" x2="-18.513959" y2="-25.652626" />
      <line x1="-18.513959" y1="-25.652626" x2="-19.527828" y2="-25.985108" />
      <path d="M -19.527828,-25.985108 A 0.2,0.13267680169552773 -35.40063029114034 0,0 -19.613378,-25.987852" />
      <path d="M -19.613378,-24.62822 A 0.2,0.13267680169552773 -35.40063029114034 0,0 -19.460564,-24.608308" />
      <line x1="-18.306684" y1="-26.456245" x2="-18.306684" y2="-24.983968" />
      <path d="M -17.533937,-24.861138 C -17.583121,-24.836161 -17.66413,-24.832774 -17.746552,-24.852246" />
      <line x1="-17.533937" y1="-24.861138" x2="-16.614622" y2="-25.322197" />
      <line x1="-16.614622" y1="-25.322197" x2="-15.695308" y2="-24.428761" />
      <path d="M -15.482693,-24.319871 C -15.565115,-24.339164 -15.646124,-24.380652 -15.695308,-24.428761" />
      <line x1="-14.016001" y1="-23.97496" x2="-15.482693" y2="-24.319871" />
      <path d="M -13.750092,-24.059656 C -13.750323,-24.021128 -13.77878,-23.989806 -13.827942,-23.973967 C -13.87743,-23.958385 -13.946172,-23.958748 -14.016001,-23.97496" />
      <line x1="-13.750092" y1="-24.059656" x2="-13.750092" y2="-24.280498" />
      <line x1="-13.750092" y1="-24.280498" x2="-13.665358" y2="-24.260571" />
      <line x1="-13.665358" y1="-24.260571" x2="-13.665358" y2="-24.812675" />
      <line x1="-13.665358" y1="-24.812675" x2="-14.283028" y2="-24.957928" />
      <line x1="-14.283028" y1="-24.957928" x2="-14.949198" y2="-24.930552" />
      <line x1="-14.949198" y1="-24.930552" x2="-15.868512" y2="-25.823988" />
      <path d="M -16.081012,-25.93285 C -15.998629,-25.913547 -15.917674,-25.872074 -15.868512,-25.823988" />
      <line x1="-6.898091" y1="-11.650028" x2="-7.161227" y2="-10.589576" />
      <line x1="-6.57538" y1="-11.596074" x2="-6.898091" y2="-11.650028" />
      <path d="M -6.500745,-11.681337 Q -6.546813,-11.59433 -6.57538,-11.596074" />
      <line x1="-6.062373" y1="-12.528022" x2="-6.500745" y2="-11.681337" />
      <line x1="-6.445567" y1="-10.870928" x2="-6.445567" y2="-9.582568" />
      <line x1="-7.161227" y1="-10.589576" x2="-6.445567" y2="-9.582568" />
      <path d="M -4.947274,-10.45667 C -4.99652,-10.504876 -5.077615,-10.546545 -5.160141,-10.566049" />
      <line x1="-4.026373" y1="-9.561001" x2="-4.947274" y2="-10.45667" />
      <line x1="-3.359053" y1="-9.58676" x2="-4.026373" y2="-9.561001" />
      <line x1="-3.328023" y1="-9.5794" x2="-3.359053" y2="-9.58676" />
      <path d="M -3.328023,-8.659227 L -3.328023,-9.579401" />
      <path d="M -4.773771,-9.061023 C -4.724501,-9.012795 -4.643353,-8.97111 -4.560788,-8.951617" />
      <line x1="-5.694672" y1="-9.956691" x2="-4.773771" y2="-9.061023" />
      <line x1="-6.445567" y1="-9.582568" x2="-5.694672" y2="-9.956691" />
      <line x1="-2.401932" y1="-8.568954" x2="-2.401932" y2="-10.04123" />
      <line x1="-3.328023" y1="-9.103832" x2="-3.122864" y2="-9.254418" />
      <line x1="-3.122864" y1="-9.254418" x2="-2.446988" y2="-9.474458" />
      <line x1="-2.446988" y1="-9.474458" x2="-2.446988" y2="-8.922354" />
      <line x1="-2.446988" y1="-8.922354" x2="-2.762397" y2="-8.819669" />
      <line x1="-2.762397" y1="-8.819669" x2="-2.762397" y2="-8.598827" />
      <path d="M -2.762397,-8.598827 A 0.2,0.13267680169552773 144.59936970885968 0,1 -2.942253,-8.393045" />
      <line x1="-2.40194" y1="-10.041242" x2="-2.40194" y2="-8.568965" />
      <line x1="-1.807161" y1="-10.23488" x2="-1.807161" y2="-8.762603" />
      <line x1="3.014133" y1="11.405049" x2="3.014133" y2="12.011817" />
      <line x1="5.948055" y1="12.325736" x2="5.948055" y2="13.798013" />
      <path d="M -9.025894,-6.412439 A 0.2,0.13267680169552773 144.59936970885968 0,1 -9.18854,-6.443932" />
      <path d="M -9.18854,-6.443932 A 0.2,0.13267680169552773 144.59936970885968 0,1 -9.194369,-6.45333" />
      <path d="M -8.255213,-6.695606 A 0.2,0.13267680169552773 144.59936970885968 0,1 -8.367426,-6.626812" />
      <path d="M -6.998266,-7.072559 A 0.2,0.13267680169552773 144.59936970885968 0,1 -7.160912,-7.104052" />
      <line x1="-7.438739" y1="-7.494983" x2="-8.255213" y2="-6.695606" />
      <path d="M -5.321715,-7.677272 A 0.2,0.13267680169552773 144.59936970885968 0,1 -5.465523,-7.571563" />
      <path d="M -3.934294,-8.070074 A 0.2,0.13267680169552773 144.59936970885968 0,1 -4.078103,-8.082146" />
      <line x1="-4.078103" y1="-8.082146" x2="-4.699909" y2="-8.556957" />
      <line x1="-4.699909" y1="-8.556957" x2="-5.321715" y2="-7.677272" />
      <path d="M -2.942261,-8.393057 A 0.2,0.13267680169552773 -35.40063029114034 0,0 -2.762406,-8.598839" />
      <line x1="-2.762406" y1="-8.598839" x2="-2.762406" y2="-8.81968" />
      <line x1="-2.762406" y1="-8.81968" x2="-2.446997" y2="-8.922366" />
      <line x1="-2.446997" y1="-8.922366" x2="-2.446997" y2="-9.47447" />
      <line x1="-2.446997" y1="-9.47447" x2="-3.122873" y2="-9.25443" />
      <line x1="-3.122873" y1="-9.25443" x2="-3.328023" y2="-9.10385" />
      <line x1="-6.898091" y1="-11.650028" x2="-16.614622" y2="-25.322197" />
      <line x1="-4.699909" y1="-8.556957" x2="-5.694672" y2="-9.956691" />
      <line x1="-15.482693" y1="-24.319871" x2="-6.500745" y2="-11.681337" />
      <line x1="-6.46813" y1="-13.354321" x2="-6.530362" y2="-13.234124" />
      <line x1="-6.530362" y1="-13.234124" x2="-6.034905" y2="-12.536964" />
      <line x1="-6.034905" y1="-12.536964" x2="-6.062373" y2="-12.528022" />
      <line x1="-14.016001" y1="-23.97496" x2="-12.523716" y2="-21.87516" />
      <line x1="-12.523716" y1="-21.87516" x2="-12.585948" y2="-21.754962" />
      <line x1="-12.585948" y1="-21.754962" x2="-11.870288" y2="-20.747954" />
      <line x1="-11.870288" y1="-20.747954" x2="-11.692699" y2="-20.705833" />
      <line x1="-11.692699" y1="-20.705833" x2="-9.495923" y2="-17.614741" />
      <line x1="-9.495923" y1="-17.614741" x2="-9.558155" y2="-17.494543" />
      <line x1="-9.558155" y1="-17.494543" x2="-8.842495" y2="-16.487535" />
      <line x1="-8.842495" y1="-16.487535" x2="-8.664906" y2="-16.445414" />
      <line x1="-8.664906" y1="-16.445414" x2="-6.46813" y2="-13.354321" />
      <path d="M -12.430373,-22.202673 C -12.42933,-22.126104 -12.473786,-21.970119 -12.523716,-21.87516" />
      <line x1="-12.430373" y1="-22.423515" x2="-13.750092" y2="-24.280498" />
      <line x1="-12.430373" y1="-22.423515" x2="-12.430373" y2="-22.202673" />
      <line x1="-13.665358" y1="-24.260571" x2="-13.027106" y2="-23.362484" />
      <line x1="-13.027106" y1="-23.362484" x2="-12.644863" y2="-23.271823" />
      <line x1="-12.266679" y1="-22.739679" x2="-12.644863" y2="-23.271823" />
      <line x1="-12.266679" y1="-22.739679" x2="-12.430373" y2="-22.423515" />
      <line x1="-13.027106" y1="-23.914588" x2="-13.027106" y2="-23.362484" />
      <line x1="-13.027106" y1="-23.914588" x2="-13.665358" y2="-24.812675" />
      <line x1="-6.211093" y1="-14.770944" x2="-6.589277" y2="-15.303089" />
      <line x1="-6.589277" y1="-15.303089" x2="-6.97152" y2="-15.39375" />
      <line x1="-6.97152" y1="-15.39375" x2="-7.553231" y2="-16.212277" />
      <line x1="-7.553231" y1="-16.659472" x2="-7.931415" y2="-17.191616" />
      <line x1="-7.931415" y1="-17.191616" x2="-8.842495" y2="-17.407708" />
      <line x1="-8.842495" y1="-17.407708" x2="-9.392782" y2="-18.182019" />
      <line x1="-9.238886" y1="-19.031364" x2="-9.61707" y2="-19.563508" />
      <line x1="-9.61707" y1="-19.563508" x2="-9.999313" y2="-19.654169" />
      <line x1="-9.999313" y1="-19.654169" x2="-10.581024" y2="-20.472697" />
      <line x1="-10.581024" y1="-20.919891" x2="-10.959208" y2="-21.452036" />
      <line x1="-10.959208" y1="-21.452036" x2="-11.870288" y2="-21.668127" />
      <line x1="-11.870288" y1="-21.668127" x2="-12.420575" y2="-22.442438" />
      <line x1="-12.266679" y1="-23.291783" x2="-12.644863" y2="-23.823927" />
      <line x1="-12.644863" y1="-23.823927" x2="-13.027106" y2="-23.914588" />
      <line x1="-6.034905" y1="-13.457137" x2="-6.364989" y2="-13.9216" />
      <line x1="-6.034905" y1="-13.457137" x2="-6.034905" y2="-12.536964" />
      <line x1="-2.446988" y1="-9.474458" x2="-2.446997" y2="-9.47447" />
      <line x1="-2.446988" y1="-8.922354" x2="-2.446997" y2="-8.922366" />
      <line x1="-2.762397" y1="-8.819669" x2="-2.762406" y2="-8.81968" />
      <path d="M -6.374787,-13.681835 C -6.373744,-13.605265 -6.4182,-13.44928 -6.46813,-13.354321" />
      <line x1="-6.374787" y1="-13.902676" x2="-6.374787" y2="-13.681835" />
      <line x1="-6.211093" y1="-14.21884" x2="-6.374787" y2="-13.902676" />
      <line x1="-6.211093" y1="-14.770944" x2="-6.211093" y2="-14.21884" />
      <line x1="-12.266679" y1="-23.291783" x2="-12.266679" y2="-22.739679" />
      <line x1="-11.870288" y1="-21.668127" x2="-11.870288" y2="-20.747954" />
      <line x1="-10.959208" y1="-20.899932" x2="-10.959208" y2="-21.452036" />
      <line x1="-11.426332" y1="-21.010725" x2="-10.959208" y2="-20.899932" />
      <line x1="-11.426332" y1="-20.789883" x2="-11.426332" y2="-21.010725" />
      <path d="M -11.692699,-20.705833 C -11.62275,-20.689451 -11.553889,-20.688921 -11.504315,-20.704383 C -11.455069,-20.720103 -11.426563,-20.751356 -11.426332,-20.789883" />
      <path d="M -9.40258,-17.942254 C -9.401537,-17.865684 -9.445993,-17.7097 -9.495923,-17.614741" />
      <line x1="-9.40258" y1="-18.163096" x2="-9.40258" y2="-17.942254" />
      <line x1="-9.238886" y1="-18.47926" x2="-9.40258" y2="-18.163096" />
      <line x1="-9.238886" y1="-19.031364" x2="-9.238886" y2="-18.47926" />
      <line x1="-8.842495" y1="-17.407708" x2="-8.842495" y2="-16.487535" />
      <line x1="-7.931415" y1="-16.639512" x2="-7.931415" y2="-17.191616" />
      <line x1="-8.398539" y1="-16.750305" x2="-7.931415" y2="-16.639512" />
      <line x1="-8.398539" y1="-16.529464" x2="-8.398539" y2="-16.750305" />
      <path d="M -8.664906,-16.445414 C -8.594957,-16.429032 -8.526096,-16.428502 -8.476522,-16.443964 C -8.427276,-16.459684 -8.39877,-16.490937 -8.398539,-16.529464" />
      <line x1="-12.644863" y1="-23.271823" x2="-12.644863" y2="-23.823927" />
      <line x1="-6.211093" y1="-14.21884" x2="-6.589277" y2="-14.750984" />
      <line x1="-6.589277" y1="-14.750984" x2="-6.589277" y2="-15.303089" />
      <line x1="-6.97152" y1="-14.841646" x2="-6.589277" y2="-14.750984" />
      <line x1="-6.97152" y1="-15.39375" x2="-6.97152" y2="-14.841646" />
      <line x1="-7.68718" y1="-15.848654" x2="-6.97152" y2="-14.841646" />
      <line x1="-7.553231" y1="-16.107368" x2="-7.68718" y2="-15.848654" />
      <line x1="-7.553231" y1="-16.659472" x2="-7.553231" y2="-16.107368" />
      <line x1="-7.553231" y1="-16.107368" x2="-7.931415" y2="-16.639512" />
      <line x1="-9.238886" y1="-18.47926" x2="-9.61707" y2="-19.011404" />
      <line x1="-9.61707" y1="-19.011404" x2="-9.61707" y2="-19.563508" />
      <line x1="-9.999313" y1="-19.102065" x2="-9.61707" y2="-19.011404" />
      <line x1="-9.999313" y1="-19.654169" x2="-9.999313" y2="-19.102065" />
      <line x1="-10.714973" y1="-20.109073" x2="-9.999313" y2="-19.102065" />
      <line x1="-10.581024" y1="-20.367787" x2="-10.714973" y2="-20.109073" />
      <line x1="-10.581024" y1="-20.919891" x2="-10.581024" y2="-20.367787" />
      <line x1="-10.581024" y1="-20.367787" x2="-10.959208" y2="-20.899932" />
      <line x1="-6.374787" y1="-13.902676" x2="-8.398539" y2="-16.750305" />
      <line x1="-9.40258" y1="-18.163096" x2="-11.426332" y2="-21.010725" />
      <line x1="13.05078" y1="-2.116274" x2="13.05078" y2="-0.643998" />
      <line x1="10.281691" y1="-3.280179" x2="10.281691" y2="-1.807903" />
      <line x1="5.710605" y1="-3.279105" x2="5.710605" y2="-1.806828" />
      <line x1="-9.453892" y1="3.144989" x2="-9.453892" y2="4.617265" />
      <line x1="-4.905268" y1="-0.213525" x2="-4.905268" y2="1.258752" />
      <line x1="-20.038037" y1="-24.482513" x2="-20.153629" y2="-24.645163" />
      <line x1="-0.757131" y1="-9.990903" x2="-0.757131" y2="-8.518627" />
      <line x1="2.806" y1="-4.977207" x2="2.806" y2="-3.504931" />
      <line x1="4.323103" y1="11.99104" x2="4.323103" y2="13.463317" />
      <line x1="11.355063" y1="10.565416" x2="11.355063" y2="12.037693" />
      <line x1="-8.255213" y1="-6.695606" x2="-20.130507" y2="-23.405379" />
      <line x1="-5.321715" y1="-7.677272" x2="-17.533937" y2="-24.861138" />
      <line x1="-4.078103" y1="-8.082146" x2="-4.773771" y2="-9.061023" />
      <line x1="-2.762397" y1="-8.598827" x2="-2.762406" y2="-8.598839" />
      <line x1="-6.57538" y1="-11.596074" x2="-15.695308" y2="-24.428761" />
      <line x1="-12.430373" y1="-22.202673" x2="-13.750092" y2="-24.059656" />
      <line x1="-9.40258" y1="-17.942254" x2="-11.426332" y2="-20.789883" />
      <line x1="-6.374787" y1="-13.681835" x2="-8.398539" y2="-16.529464" />
      <path d="M 17.866422,7.65915 L 17.866422,9.131426" />
      <path d="M 14.436802,12.207291 L 14.436802,12.254002" />
      <path d="M -10.113806,4.298676 L -10.113806,5.770953" />
      <line x1="-20.161689" y1="-24.689469" x2="-20.031567" y2="-24.506374" />
      <line x1="-20.567638" y1="-22.455504" x2="-9.18854" y2="-6.443932" />
      <line x1="-19.617983" y1="-24.632445" x2="-7.160912" y2="-7.104052" />
    </g>
    <g fill="none" stroke="rgb(99,99,99)" stroke-width="0.038090130990263434" id="Hidden" stroke-dasharray="0.000967 0.114754">
      <line x1="14.436712" y1="10.763844" x2="14.436712" y2="12.212298" />
      <path d="M 14.436712,10.763844 C 14.436654,10.75985 14.436625,10.755869 14.436625,10.751903" />
      <path d="M 14.436625,10.751903 C 14.436625,9.389525 17.866422,9.655249 17.866422,7.65915" />
      <path d="M 13.969015,11.667169 C 13.963227,11.662276 13.960536,11.657678 13.960536,11.653082" />
      <path d="M 13.960536,11.653082 C 13.960536,11.591942 14.436802,11.531139 14.436802,10.781726" />
      <path d="M 14.436802,10.781726 C 14.436802,10.775808 14.436772,10.769848 14.436712,10.763844" />
      <path d="M 5.472027,14.388407 C 5.472027,14.388407 13.851863,11.705309 13.969015,11.667169" />
      <path d="M 4.163396,14.108452 C 4.477548,14.456812 5.472027,14.388407 5.472027,14.388407" />
      <path d="M -2.526913,13.282323 C -0.270466,15.754738 3.264285,13.124365 4.163396,14.108452" />
      <path d="M -9.838891,5.335747 C -9.838891,5.335747 -3.482717,12.234078 -2.526913,13.282323" />
      <path d="M -10.113806,4.298676 C -10.113806,4.850144 -9.838891,5.335747 -9.838891,5.335747" />
      <path d="M -5.304513,-2.336727 C -4.91339,-1.751678 -4.556521,-1.226834 -4.556521,-0.801105" />
      <path d="M -4.556521,-0.801105 C -4.556521,-0.580148 -4.652651,-0.385889 -4.890016,-0.223769" />
      <path d="M -9.194369,-7.829867 C -7.07454,-4.846628 -5.464105,-2.57545 -5.304513,-2.336727" />
      <line x1="-9.025972" y1="-7.88469" x2="-9.194369" y2="-7.829867" />
      <line x1="-20.491497" y1="-24.017877" x2="-9.025972" y2="-7.88469" />
      <line x1="-20.237829" y1="-24.599373" x2="-8.484359" y2="-8.061019" />
      <line x1="-5.871883" y1="-8.911544" x2="-8.484359" y2="-8.061019" />
      <line x1="-18.334182" y1="-26.447293" x2="-5.871883" y2="-8.911544" />
      <line x1="-16.081012" y1="-25.93285" x2="-6.710775" y2="-12.747953" />
      <line x1="-6.710775" y1="-12.747953" x2="-7.161227" y2="-11.877937" />
      <line x1="-7.161227" y1="-11.877937" x2="-6.924272" y2="-11.544516" />
      <line x1="-5.160141" y1="-10.566049" x2="-4.338985" y2="-9.410598" />
      <line x1="-3.856913" y1="-9.567543" x2="-4.338985" y2="-9.410598" />
      <line x1="-2.401932" y1="-10.04123" x2="-2.40194" y2="-10.041242" />
      <path d="M 3.014133,10.53954 C 3.014133,10.53954 2.945211,10.412668 2.945211,10.232885" />
      <path d="M 2.945211,10.232885 C 2.945211,9.94417 3.122958,9.519001 4.049339,9.26369" />
      <path d="M 3.406307,11.000855 C 3.174903,10.734496 3.014133,10.53954 3.014133,10.53954" />
      <path d="M 4.049339,9.26369 C 5.552578,8.849398 8.780472,7.72341 8.780472,7.72341" />
      <path d="M 8.780472,7.72341 C 8.780472,7.72341 10.650567,7.107067 11.124647,7.89906" />
      <path d="M 11.124647,7.89906 C 11.670705,8.870407 11.635001,8.86701 11.983032,9.497254" />
      <path d="M 11.983032,9.497254 C 12.037803,9.716282 12.068956,9.87813 12.068956,10.002991" />
      <path d="M 12.068956,10.002991 C 12.068956,10.233585 11.962703,10.338029 11.702738,10.443527" />
      <line x1="13.969015" y1="11.667169" x2="13.969015" y2="13.110505" />
      <line x1="5.472027" y1="14.388407" x2="5.472027" y2="15.860684" />
      <line x1="4.163396" y1="14.108452" x2="4.163396" y2="15.580728" />
      <line x1="-9.838891" y1="5.335747" x2="-9.838891" y2="6.808023" />
      <path d="M -9.194369,-7.734127 Q -11.145071,-10.479204 -13.09762,-13.21942 Q -15.369567,-16.408568 -17.642501,-19.590706 Q -18.406508,-20.659136 -19.170515,-21.727565 Q -19.538842,-22.241375 -19.907169,-22.755185 Q -20.082076,-22.998348 -20.256983,-23.241512 Q -20.341342,-23.35823 -20.425702,-23.474947 Q -20.465587,-23.529749 -20.505472,-23.58455 Q -20.524367,-23.610383 -20.538269,-23.629209 Q -20.570615,-23.672905 -20.575695,-23.67887" />
      <path d="M -9.194369,-7.734127 L -9.194369,-7.829867" />
      <path d="M -9.194369,-6.452133 L -9.194369,-6.45333" />
      <path d="M -9.194369,-6.45333 Q -11.145071,-9.198081 -13.09762,-11.946574 Q -15.369567,-15.144276 -17.642501,-18.347638 Q -18.406508,-19.42544 -19.170515,-20.503241 Q -19.538842,-21.023985 -19.907169,-21.54473 Q -20.082076,-21.792804 -20.256983,-22.040879 Q -20.341342,-22.161081 -20.425702,-22.281284 Q -20.465587,-22.338493 -20.505472,-22.395702 Q -20.524367,-22.422935 -20.538269,-22.443148 Q -20.570614,-22.490286 -20.575695,-22.498587" />
      <path d="M -9.194369,-7.734127 A 0.2,0.13267680169552773 144.59936970885968 0,1 -9.025972,-7.88469" />
      <path d="M -8.484359,-8.061019 A 0.2,0.13267680169552773 144.59936970885968 0,1 -8.32179,-8.029502" />
      <path d="M -8.32179,-8.029502 A 0.2,0.13267680169552773 144.59936970885968 0,1 -8.304581,-7.972321" />
      <line x1="-8.304581" y1="-7.972321" x2="-8.304581" y2="-7.38341" />
      <line x1="-8.304581" y1="-7.38341" x2="-7.290712" y2="-8.376049" />
      <path d="M -7.290712,-8.376049 A 0.2,0.13267680169552773 144.59936970885968 0,1 -7.06553,-8.449359" />
      <line x1="-7.06553" y1="-8.449359" x2="-6.051661" y2="-8.116877" />
      <line x1="-6.051661" y1="-8.116877" x2="-6.051661" y2="-8.705788" />
      <path d="M -6.051661,-8.705788 A 0.2,0.13267680169552773 144.59936970885968 0,1 -5.871883,-8.911544" />
      <path d="M -6.710775,-12.747953 Q -6.664732,-12.834885 -6.636181,-12.833137" />
      <line x1="-6.079621" y1="-13.414882" x2="-6.062373" y2="-13.448195" />
      <line x1="-6.313469" y1="-12.779184" x2="-6.079621" y2="-13.414882" />
      <line x1="-6.636181" y1="-12.833137" x2="-6.313469" y2="-12.779184" />
      <line x1="-7.161227" y1="-11.877937" x2="-7.161227" y2="-10.589576" />
      <line x1="-6.062373" y1="-13.448195" x2="-6.062373" y2="-12.528022" />
      <path d="M -4.338985,-9.410598 A 0.2,0.13267680169552773 144.59936970885968 0,1 -4.195254,-9.398501" />
      <line x1="-4.195254" y1="-9.398501" x2="-3.573448" y2="-8.92369" />
      <line x1="-3.573448" y1="-8.92369" x2="-3.328023" y2="-9.103832" />
      <line x1="3.014133" y1="10.53954" x2="3.014133" y2="11.405049" />
      <line x1="8.780472" y1="7.72341" x2="8.780472" y2="9.195687" />
      <line x1="11.124647" y1="7.89906" x2="11.124647" y2="9.371337" />
      <line x1="11.983032" y1="9.497254" x2="11.983032" y2="10.96953" />
      <path d="M -7.160912,-7.104052 A 0.2,0.13267680169552773 144.59936970885968 0,1 -7.178121,-7.161232" />
      <line x1="-7.178121" y1="-7.161232" x2="-7.178121" y2="-7.750143" />
      <line x1="-7.178121" y1="-7.750143" x2="-7.438739" y2="-7.494983" />
      <path d="M -3.328023,-9.5794 L -3.338888,-9.558385" />
      <line x1="-3.573451" y1="-8.923706" x2="-3.573451" y2="-8.187565" />
      <path d="M -3.338888,-9.558385 C -3.404974,-9.378531 -3.473537,-9.192147 -3.527039,-9.04771 C -3.54142,-9.008902 -3.552723,-8.97852 -3.560948,-8.956566 C -3.573236,-8.923763 -3.573649,-8.923215 -3.573451,-8.923706" />
      <line x1="-3.328023" y1="-9.10385" x2="-3.573451" y2="-8.923706" />
      <line x1="-8.304581" y1="-7.38341" x2="-20.153629" y2="-24.056251" />
      <line x1="-7.178121" y1="-7.750143" x2="-19.626043" y2="-25.265663" />
      <line x1="-6.051661" y1="-8.116877" x2="-18.513959" y2="-25.652626" />
      <line x1="-7.553231" y1="-16.212277" x2="-7.68718" y2="-16.400758" />
      <line x1="-7.68718" y1="-16.400758" x2="-7.553231" y2="-16.659472" />
      <line x1="-9.392782" y1="-18.182019" x2="-9.558155" y2="-18.414716" />
      <line x1="-9.558155" y1="-18.414716" x2="-9.238886" y2="-19.031364" />
      <line x1="-10.581024" y1="-20.472697" x2="-10.714973" y2="-20.661177" />
      <line x1="-10.714973" y1="-20.661177" x2="-10.581024" y2="-20.919891" />
      <line x1="-12.420575" y1="-22.442438" x2="-12.585948" y2="-22.675135" />
      <line x1="-12.585948" y1="-22.675135" x2="-12.266679" y2="-23.291783" />
      <line x1="-6.079621" y1="-13.414882" x2="-14.283028" y2="-24.957928" />
      <line x1="-6.062373" y1="-13.448195" x2="-6.034905" y2="-13.457137" />
      <line x1="-6.364989" y1="-13.9216" x2="-6.530362" y2="-14.154297" />
      <line x1="-6.530362" y1="-14.154297" x2="-6.211093" y2="-14.770944" />
      <line x1="-6.313469" y1="-12.779184" x2="-14.949198" y2="-24.930552" />
      <line x1="-3.573448" y1="-8.92369" x2="-4.026373" y2="-9.561001" />
      <line x1="-3.122864" y1="-9.254418" x2="-3.122873" y2="-9.25443" />
      <line x1="-3.338888" y1="-9.558385" x2="-3.359053" y2="-9.58676" />
      <line x1="-6.530362" y1="-14.154297" x2="-6.530362" y2="-13.234124" />
      <line x1="-12.585948" y1="-22.675135" x2="-12.585948" y2="-21.754962" />
      <line x1="-9.558155" y1="-18.414716" x2="-9.558155" y2="-17.494543" />
      <line x1="-7.68718" y1="-16.400758" x2="-7.68718" y2="-15.848654" />
      <line x1="-10.714973" y1="-20.661177" x2="-10.714973" y2="-20.109073" />
      <path d="M 14.436625,10.751903 L 14.436625,12.224179" />
      <path d="M 13.960536,11.653082 L 13.960536,13.125359" />
      <path d="M 14.436802,10.781726 L 14.436802,12.207291" />
      <path d="M -4.556521,-0.801105 L -4.556521,0.671171" />
      <line x1="-20.031567" y1="-24.506374" x2="-8.32179" y2="-8.029502" />
      <path d="M 2.945211,10.232885 L 2.945211,11.705162" />
      <path d="M 12.068956,10.002991 L 12.068956,11.475268" />
      <line x1="-2.526913" y1="13.282323" x2="-2.526913" y2="14.7546" />
      <line x1="-5.304513" y1="-2.336727" x2="-5.304513" y2="-0.864451" />
      <line x1="-8.304581" y1="-7.972321" x2="-20.038037" y2="-24.482513" />
      <line x1="-6.051661" y1="-8.705788" x2="-18.513959" y2="-26.241537" />
      <line x1="-6.636181" y1="-12.833137" x2="-15.868512" y2="-25.823988" />
      <line x1="-4.195254" y1="-9.398501" x2="-4.947274" y2="-10.45667" />
      <line x1="4.049339" y1="9.26369" x2="4.049339" y2="10.735967" />
      <line x1="-7.178121" y1="-7.161232" x2="-19.626043" y2="-24.676752" />
      <line x1="-7.06553" y1="-8.449359" x2="-19.527828" y2="-25.985108" />
      <line x1="-7.290712" y1="-8.376049" x2="-19.678776" y2="-25.807342" />
    </g>
  </g>
</svg>