<?xml version='1.0' encoding='utf-8'?>
<svg width="89.067406mm" height="100.090001mm" viewBox="-19.270693 -16.043919 36.976097 41.552098" version="1.1" xmlns="http://www.w3.org/2000/svg">
  <g transform="scale(1,-1)" stroke-linecap="round">
    <g fill="none" stroke="rgb(0,0,0)" stroke-width="0.03736326089080094" id="Visible">
      <line x1="-1.637238" y1="6.246341" x2="-1.637238" y2="4.778256" />
      <path d="M -0.950869,4.990834 A 1.722652427234,1.1698594385233207 0.0 0,1 -0.895626,5.284721" />
      <path d="M -0.895626,5.284721 A 1.722652427234,1.1698594385233207 0.0 0,1 -1.637238,6.246341" />
      <path d="M -1.273915,4.548123 A 1.722652427234,1.1698594385233207 0.0 0,1 -1.637238,4.778256" />
      <path d="M -4.914815,7.436775 A 7.463598951253,5.0685568025441485 0.0 0,1 -1.637238,4.778256" />
      <path d="M -4.914815,8.90486 A 7.463598951253,5.0685568025441485 0.0 0,1 -1.637238,6.246341" />
      <path d="M -0.247857,15.520689 A 7.568179657813,5.139577935259294 0.0 0,1 -5.368359,10.65733" />
      <path d="M -5.368359,10.65733 A 7.568179657813,5.139577935259294 0.0 0,1 -4.914815,8.90486" />
      <path d="M 10.320861,15.062613 A 13.824241287888,9.388091814334842 0.0 0,1 -0.247857,15.520689" />
      <path d="M 10.320861,15.062613 A 13.824241287888,9.388091814334842 180.0 0,0 17.290073,9.647517" />
      <path d="M 17.290073,9.647517 A 7.568179657813,5.139577935259294 180.0 0,0 17.686723,8.005476" />
      <path d="M 17.686723,8.005476 A 7.568179657813,5.139577935259294 180.0 0,0 12.402579,3.105542" />
      <path d="M 12.402579,3.105542 A 7.463598951253,5.0685568025441485 180.0 0,0 7.301533,3.25289" />
      <path d="M 5.416987,2.858341 A 1.722652427234,1.1698594385233207 180.0 0,0 7.301533,3.25289" />
      <line x1="5.416987" y1="2.858341" x2="-13.811396" y2="-23.492811" />
      <path d="M -16.361146,-23.431385 A 1.4,0.9507450185772004 0.0 0,1 -13.811396,-23.492811" />
      <line x1="-16.361146" y1="-23.431385" x2="-15.161967" y2="-21.787994" />
      <line x1="-15.161967" y1="-21.787994" x2="-15.71352" y2="-21.602384" />
      <path d="M -15.71352,-21.602384 A 0.15,0.10186553770470005 0.0 0,1 -15.722031,-21.599284" />
      <line x1="-18.943793" y1="-20.515086" x2="-15.722031" y2="-21.599284" />
      <path d="M -19.194368,-20.010604 A 0.554362528793,0.3764695805255747 0.0 0,1 -19.252011,-20.177762" />
      <path d="M -19.252011,-20.177762 A 0.554362528793,0.3764695805255747 0.0 0,1 -18.943793,-20.515086" />
      <line x1="-17.929405" y1="-18.27706" x2="-19.194368" y2="-20.010604" />
      <line x1="-17.019039" y1="-18.583419" x2="-17.929405" y2="-18.27706" />
      <line x1="-17.019039" y1="-18.583419" x2="-16.319805" y2="-17.625169" />
      <line x1="-15.409449" y1="-17.931525" x2="-16.319805" y2="-17.625169" />
      <line x1="-15.409449" y1="-17.931525" x2="-14.856829" y2="-17.174198" />
      <line x1="-13.946473" y1="-17.480554" x2="-14.856829" y2="-17.174198" />
      <line x1="-13.946473" y1="-17.480554" x2="-13.360019" y2="-16.67686" />
      <line x1="-13.360019" y1="-16.67686" x2="-15.180731" y2="-16.064148" />
      <line x1="-13.895044" y1="-14.302204" x2="-15.180731" y2="-16.064148" />
      <line x1="-13.895044" y1="-14.302204" x2="-14.80541" y2="-13.995844" />
      <line x1="-7.288651" y1="-3.694652" x2="-14.80541" y2="-13.995844" />
      <line x1="-5.581723" y1="-4.269073" x2="-7.288651" y2="-3.694652" />
      <line x1="-5.581723" y1="-4.269073" x2="-4.397538" y2="-2.646229" />
      <line x1="-4.397538" y1="-2.646229" x2="-6.104465" y2="-2.071808" />
      <line x1="-0.950869" y1="4.990834" x2="-6.104465" y2="-2.071808" />
      <path d="M 10.767491,11.77343 A 2.542700813035,1.7267572369465887 0.0 0,1 11.031882,12.540135" />
      <path d="M 11.031882,12.540135 A 2.5427009999999997,1.7267573639151899 0.0 0,1 5.94648,12.540135" />
      <path d="M 5.94648,12.540135 A 2.542700813035,1.7267572369465887 0.0 0,1 10.767491,11.77343" />
      <line x1="-6.104465" y1="-2.071808" x2="-6.104465" y2="-3.539893" />
      <line x1="-6.104465" y1="-3.539893" x2="-5.257599" y2="-3.824884" />
      <line x1="-14.80541" y1="-15.463929" x2="-14.755106" y2="-15.480858" />
      <line x1="-15.180731" y1="-17.532233" x2="-15.130437" y2="-17.549158" />
      <path d="M -19.252011,-21.645847 A 0.554362528793,0.3764695805255747 0.0 0,1 -18.943793,-21.983171" />
      <line x1="-18.943793" y1="-21.983171" x2="-16.021891" y2="-22.966459" />
      <path d="M -16.361146,-24.89947 A 1.4,0.9507450185772004 0.0 0,1 -13.811396,-24.960896" />
      <line x1="5.416987" y1="1.390256" x2="-13.811396" y2="-24.960896" />
      <path d="M 5.416987,1.390256 A 1.722652427234,1.1698594385233207 180.0 0,0 7.301533,1.784805" />
      <path d="M 12.402579,1.637457 A 7.463598951253,5.0685568025441485 180.0 0,0 7.301533,1.784805" />
      <path d="M 17.686723,6.537391 A 7.568179657813,5.139577935259294 180.0 0,0 12.402579,1.637457" />
      <path d="M -5.368359,9.189245 A 7.568179657813,5.139577935259294 0.0 0,1 -4.914815,7.436775" />
      <path d="M 10.790699,11.806092 A 2.542700813035,1.7267572369465887 0.0 0,1 6.187663,11.806092" />
      <line x1="7.301533" y1="3.25289" x2="7.301533" y2="1.784805" />
      <line x1="5.416987" y1="2.858341" x2="5.416987" y2="1.390256" />
      <line x1="-16.361146" y1="-23.431385" x2="-16.361146" y2="-24.89947" />
      <line x1="-15.71352" y1="-21.602384" x2="-15.71352" y2="-22.543859" />
      <line x1="-15.180731" y1="-17.532233" x2="-15.180731" y2="-16.064148" />
      <line x1="-14.80541" y1="-13.995844" x2="-14.80541" y2="-15.463929" />
      <line x1="-4.914815" y1="8.90486" x2="-4.914815" y2="7.436775" />
      <line x1="12.402579" y1="3.105542" x2="12.402579" y2="1.637457" />
      <line x1="-13.811396" y1="-23.492811" x2="-13.811396" y2="-24.960896" />
      <line x1="-15.722031" y1="-21.599284" x2="-15.722031" y2="-22.555522" />
      <line x1="-18.943793" y1="-20.515086" x2="-18.943793" y2="-21.983171" />
      <line x1="-5.368359" y1="10.65733" x2="-5.368359" y2="9.189245" />
      <line x1="17.686723" y1="8.005476" x2="17.686723" y2="6.537391" />
      <line x1="-19.252011" y1="-20.177762" x2="-19.252011" y2="-21.645847" />
    </g>
    <g fill="none" stroke="rgb(99,99,99)" stroke-width="0.03736326089080094" id="Hidden" stroke-dasharray="0.000949 0.112564">
      <line x1="-0.950869" y1="4.990834" x2="-0.950869" y2="3.522749" />
      <path d="M -0.950869,3.522749 A 1.722652427234,1.1698594385233207 0.0 0,1 -0.895626,3.816637" />
      <path d="M -0.895626,3.816637 A 1.722652427234,1.1698594385233207 0.0 0,1 -1.273915,4.548123" />
      <line x1="-0.950869" y1="3.522749" x2="-6.104465" y2="-3.539893" />
      <line x1="-5.257599" y1="-3.824884" x2="-4.397538" y2="-4.114314" />
      <line x1="-4.397538" y1="-4.114314" x2="-5.581723" y2="-5.737158" />
      <line x1="-7.288651" y1="-5.162737" x2="-5.581723" y2="-5.737158" />
      <line x1="-7.288651" y1="-5.162737" x2="-14.80541" y2="-15.463929" />
      <line x1="-14.755106" y1="-15.480858" x2="-13.895044" y2="-15.770289" />
      <line x1="-15.180731" y1="-17.532233" x2="-13.895044" y2="-15.770289" />
      <line x1="-15.130437" y1="-17.549158" x2="-13.360019" y2="-18.144945" />
      <line x1="-13.360019" y1="-18.144945" x2="-13.946473" y2="-18.948639" />
      <line x1="-14.856829" y1="-18.642283" x2="-13.946473" y2="-18.948639" />
      <line x1="-14.856829" y1="-18.642283" x2="-15.409449" y2="-19.39961" />
      <line x1="-16.319805" y1="-19.093254" x2="-15.409449" y2="-19.39961" />
      <line x1="-16.319805" y1="-19.093254" x2="-17.019039" y2="-20.051504" />
      <line x1="-17.929405" y1="-19.745145" x2="-17.019039" y2="-20.051504" />
      <line x1="-17.929405" y1="-19.745145" x2="-19.194368" y2="-21.478689" />
      <path d="M -19.194368,-21.478689 A 0.554362528793,0.3764695805255747 0.0 0,1 -19.252011,-21.645847" />
      <line x1="-16.021891" y1="-22.966459" x2="-15.722031" y2="-23.067369" />
      <path d="M -15.71352,-23.070469 A 0.15,0.10186553770470005 0.0 0,1 -15.722031,-23.067369" />
      <line x1="-15.71352" y1="-23.070469" x2="-15.161967" y2="-23.256079" />
      <line x1="-15.161967" y1="-23.256079" x2="-16.361146" y2="-24.89947" />
      <path d="M 17.290073,8.179432 A 7.568179657813,5.139577935259294 180.0 0,0 17.686723,6.537391" />
      <path d="M 10.320861,13.594528 A 13.824241287888,9.388091814334842 180.0 0,0 17.290073,8.179432" />
      <path d="M 10.320861,13.594528 A 13.824241287888,9.388091814334842 0.0 0,1 -0.247857,14.052604" />
      <path d="M -0.247857,14.052604 A 7.568179657813,5.139577935259294 0.0 0,1 -5.368359,9.189245" />
      <path d="M 10.767491,10.305345 A 2.542700813035,1.7267572369465887 0.0 0,1 11.031882,11.07205" />
      <path d="M 11.031882,11.07205 A 2.542700813035,1.7267572369465887 0.0 0,1 10.790699,11.806092" />
      <path d="M 6.187663,11.806092 A 2.542700813035,1.7267572369465887 0.0 0,1 5.94648,11.07205" />
      <path d="M 5.94648,11.07205 A 2.542700813035,1.7267572369465887 0.0 0,1 10.767491,10.305345" />
      <line x1="-15.161967" y1="-23.256079" x2="-15.161967" y2="-21.787994" />
      <line x1="-15.71352" y1="-22.543859" x2="-15.71352" y2="-23.070469" />
      <line x1="-17.929405" y1="-18.27706" x2="-17.929405" y2="-19.745145" />
      <line x1="-17.019039" y1="-20.051504" x2="-17.019039" y2="-18.583419" />
      <line x1="-16.319805" y1="-19.093254" x2="-16.319805" y2="-17.625169" />
      <line x1="-15.409449" y1="-19.39961" x2="-15.409449" y2="-17.931525" />
      <line x1="-14.856829" y1="-18.642283" x2="-14.856829" y2="-17.174198" />
      <line x1="-13.946473" y1="-18.948639" x2="-13.946473" y2="-17.480554" />
      <line x1="-13.360019" y1="-18.144945" x2="-13.360019" y2="-16.67686" />
      <line x1="-13.895044" y1="-15.770289" x2="-13.895044" y2="-14.302204" />
      <line x1="-7.288651" y1="-3.694652" x2="-7.288651" y2="-5.162737" />
      <line x1="-5.581723" y1="-5.737158" x2="-5.581723" y2="-4.269073" />
      <line x1="-4.397538" y1="-4.114314" x2="-4.397538" y2="-2.646229" />
      <line x1="-0.895626" y1="5.284721" x2="-0.895626" y2="3.816637" />
      <line x1="5.94648" y1="12.540135" x2="5.94648" y2="11.07205" />
      <line x1="11.031882" y1="12.540135" x2="11.031882" y2="11.07205" />
      <line x1="-0.247857" y1="15.520689" x2="-0.247857" y2="14.052604" />
      <line x1="10.320861" y1="15.062613" x2="10.320861" y2="13.594528" />
      <line x1="17.290073" y1="9.647517" x2="17.290073" y2="8.179432" />
      <line x1="-15.722031" y1="-22.555522" x2="-15.722031" y2="-23.067369" />
      <line x1="-19.194368" y1="-20.010604" x2="-19.194368" y2="-21.478689" />
    </g>
  </g>
</svg>