<?xml version="1.0" encoding="UTF-8" standalone="no"?>
<!-- Created with Inkscape (http://www.inkscape.org/) -->

<svg
   width="210mm"
   height="297mm"
   viewBox="0 0 210 297"
   version="1.1"
   id="svg1"
   xml:space="preserve"
   inkscape:version="1.4.2 (f4327f4, 2025-05-13)"
   sodipodi:docname="ASSA.svg"
   xmlns:inkscape="http://www.inkscape.org/namespaces/inkscape"
   xmlns:sodipodi="http://sodipodi.sourceforge.net/DTD/sodipodi-0.dtd"
   xmlns="http://www.w3.org/2000/svg"
   xmlns:svg="http://www.w3.org/2000/svg"><sodipodi:namedview
     id="namedview1"
     pagecolor="#ffffff"
     bordercolor="#000000"
     borderopacity="0.25"
     inkscape:showpageshadow="2"
     inkscape:pageopacity="0.0"
     inkscape:pagecheckerboard="0"
     inkscape:deskcolor="#d1d1d1"
     inkscape:document-units="mm"
     showgrid="true"
     inkscape:zoom="1.4142136"
     inkscape:cx="89.802559"
     inkscape:cy="158.74547"
     inkscape:window-width="2560"
     inkscape:window-height="1369"
     inkscape:window-x="-8"
     inkscape:window-y="482"
     inkscape:window-maximized="1"
     inkscape:current-layer="layer1"><inkscape:grid
       id="grid2"
       units="mm"
       originx="0"
       originy="0"
       spacingx="0.99999998"
       spacingy="1"
       empcolor="#0099e5"
       empopacity="0.30196078"
       color="#0099e5"
       opacity="0.14901961"
       empspacing="5"
       enabled="true"
       visible="true" /></sodipodi:namedview><defs
     id="defs1"><rect
       x="323.85491"
       y="165.46299"
       width="203.64675"
       height="54.447223"
       id="rect3" /></defs><g
     inkscape:label="ASSA"
     inkscape:groupmode="layer"
     id="layer1"
     style="display:inline"><path
       id="profile_desmo_10pin"
       style="display:inline;fill:#000000;stroke-width:0.264583"
       inkscape:label="#profile_desmo_10pin"
       d="M 3.6581746,0 C 1.9084959,0.01590617 1.2500529,1.9998779 1.2500529,1.9998779 c 0,0 -1.17847714,18.6469781 -1.2500529,20.5000411 -0.03023661,1.47273 1.2142218,1.989549 1.9998779,1.999878 5.4614768,0.0718 16.6103491,0.234203 17.7317341,0.250113 1.121385,0.01591 1.853117,-2.306319 1.853117,-2.306319 l 3.915523,0.05633 c 0.28149,0.0041 0.249597,-0.499711 0.249597,-0.499711 L 55.75,22 54.774951,19.750218 57.119511,16.749884 53.225175,12.5 H 42.250134 c -0.151753,0 -2.249992,2.999829 -2.249992,2.999829 H 38.5 c 0,0 -1.806402,-2.999829 -2.025224,-2.999829 h -8.448063 c -0.174969,0 -0.30179,-0.25 -0.30179,-0.25 0,0 -0.0079,-0.347888 7.7e-5,-1.000041 0.008,-0.65215 -0.779875,-0.749825 -0.779875,-0.749825 0,0 -4.70813,0.03181 -5.344376,0 -0.636247,-0.03181 -0.509013,-0.415478 -0.509013,-0.415478 0,0 -0.2226,-6.3625506 -0.34985,-8.0486046 C 20.614637,0.34999747 18.960083,0.19068604 18.960083,0.19068604 Z m 4.0240438,12.73359 c 0,0 0.5498373,0.08205 0.5498373,0.514697 0,0.432643 0.2222086,8.372099 0.2222086,8.372099 0,0 0.093502,0.713135 -0.8185547,0.713135 -0.9120571,0 -4.0457478,-0.175184 -4.0457478,-0.175184 0,0 -0.4911187,-0.01151 -0.5028117,-0.490926 -0.011692,-0.479415 -0.2108399,-8.39587 -0.2108399,-8.39587 0,0 -0.058261,-0.514373 0.5146973,-0.526066 z"
       sodipodi:nodetypes="cccsscccccccsccsscccscscccscscsccc" /><path
       id="profile_desmo_8pin"
       style="display:inline;fill:#000000;stroke-width:0.264583"
       inkscape:label="#profile_desmo_8pin"
       d="m 3.6587155,25 c -1.7496787,0.01591 -2.4081217,1.999878 -2.4081217,1.999878 0,0 -1.17847713,18.646978 -1.25005293437,20.500041 C -0.02969613,48.972649 1.2147627,49.489468 2.0004188,49.499797 7.4618957,49.571597 18.610767,49.734 19.732152,49.74991 c 1.121385,0.01591 1.853117,-2.306319 1.853117,-2.306319 l 3.915523,0.05633 c 0.28149,0.0041 0.249597,-0.499711 0.249597,-0.499711 L 52.250514,47 51.275465,44.750218 53.620025,41.749884 49.725974,37.5 h -7.4753 c -0.151753,0 -2.249992,2.999829 -2.249992,2.999829 H 38.50054 c 0,0 -1.806402,-2.999829 -2.025224,-2.999829 h -8.448063 c -0.174969,0 -0.30179,-0.25 -0.30179,-0.25 0,0 -0.0079,-0.347888 7.7e-5,-1.000041 0.008,-0.65215 -0.779875,-0.749825 -0.779875,-0.749825 0,0 -4.70813,0.03181 -5.344376,0 -0.636247,-0.03181 -0.509013,-0.415478 -0.509013,-0.415478 0,0 -0.2226,-6.362551 -0.34985,-8.048605 -0.127249,-1.686054 -1.781803,-1.845365 -1.781803,-1.845365 z m 4.0240442,12.73359 c 0,0 0.549837,0.08205 0.549837,0.514697 0,0.432643 0.222209,8.372099 0.222209,8.372099 0,0 0.0935,0.713135 -0.818555,0.713135 -0.912057,0 -4.045748,-0.175184 -4.045748,-0.175184 0,0 -0.4911187,-0.01151 -0.5028117,-0.490926 -0.011692,-0.479415 -0.2108399,-8.39587 -0.2108399,-8.39587 0,0 -0.058261,-0.514373 0.5146973,-0.526066 z"
       sodipodi:nodetypes="cccsscccccccsccsscccscscccscscsccc" /><path
       style="fill:#000000;stroke-width:0.264583"
       d="m 94.012055,21.660764 h 3 v -5.25 h -1.125 v -4.25 h -0.75 v 4.25 h -1.125 z"
       id="keyway_desmo"
       inkscape:label="#keyway_desmo" /><path
       id="profile_desmo_6pin"
       style="display:inline;fill:#000000;stroke-width:0.264583"
       inkscape:label="#profile_desmo_6pin"
       d="m 3.6587155,50 c -1.7496787,0.01591 -2.4081217,1.999878 -2.4081217,1.999878 0,0 -1.17847713,18.646978 -1.25005293437,20.500041 C -0.02969613,73.972649 1.2147627,74.489468 2.0004188,74.499797 7.4618957,74.571597 18.610767,74.734 19.732152,74.74991 c 1.121385,0.01591 1.853117,-2.306319 1.853117,-2.306319 l 3.915523,0.05633 c 0.28149,0.0041 0.249597,-0.499711 0.249597,-0.499711 L 48.750514,72 47.775465,69.750218 50.120025,66.749884 46.225974,62.5 h -3.9753 c -0.151753,0 -2.249992,2.999829 -2.249992,2.999829 H 38.50054 c 0,0 -1.806402,-2.999829 -2.025224,-2.999829 h -8.448063 c -0.174969,0 -0.30179,-0.25 -0.30179,-0.25 0,0 -0.0079,-0.347888 7.7e-5,-1.000041 0.008,-0.65215 -0.779875,-0.749825 -0.779875,-0.749825 0,0 -4.70813,0.03181 -5.344376,0 -0.636247,-0.03181 -0.509013,-0.415478 -0.509013,-0.415478 0,0 -0.2226,-6.362551 -0.34985,-8.048605 -0.127249,-1.686054 -1.781803,-1.845365 -1.781803,-1.845365 z m 4.0240442,12.73359 c 0,0 0.549837,0.08205 0.549837,0.514697 0,0.432643 0.222209,8.372099 0.222209,8.372099 0,0 0.0935,0.713135 -0.818555,0.713135 -0.912057,0 -4.045748,-0.175184 -4.045748,-0.175184 0,0 -0.4911187,-0.01151 -0.5028117,-0.490926 -0.011692,-0.479415 -0.2108399,-8.39587 -0.2108399,-8.39587 0,0 -0.058261,-0.514373 0.5146973,-0.526066 z"
       sodipodi:nodetypes="cccsscccccccsccsscccscscccscscsccc" /><text
       xml:space="preserve"
       style="font-size:8.46667px;text-align:start;writing-mode:lr-tb;direction:ltr;text-anchor:start;fill:#000000;stroke-width:0.264583"
       x="52.713055"
       y="70.045425"
       id="text1"
       inkscape:label="6-pin"><tspan
         sodipodi:role="line"
         id="tspan1"
         style="stroke-width:0.264583"
         x="52.713055"
         y="70.045425">6-pin</tspan></text><text
       xml:space="preserve"
       style="font-size:8.46667px;text-align:start;writing-mode:lr-tb;direction:ltr;text-anchor:start;display:inline;fill:#000000;stroke-width:0.264583"
       x="55.853127"
       y="45.403198"
       id="text1-8"
       inkscape:label="8-pin"><tspan
         sodipodi:role="line"
         id="tspan1-2"
         style="stroke-width:0.264583"
         x="55.853127"
         y="45.403198">8-pin</tspan></text><text
       xml:space="preserve"
       style="font-size:8.46667px;text-align:start;writing-mode:lr-tb;direction:ltr;text-anchor:start;fill:#000000;stroke-width:0.264583"
       x="102.3375"
       y="19.457222"
       id="text2"
       inkscape:label="Keyway"><tspan
         sodipodi:role="line"
         id="tspan2"
         style="stroke-width:0.264583"
         x="102.3375"
         y="19.457222">Keyway</tspan></text><text
       xml:space="preserve"
       transform="scale(0.26458333)"
       id="text3"
       style="font-size:32px;text-align:start;writing-mode:lr-tb;direction:ltr;white-space:pre;shape-inside:url(#rect3);fill:#000000"
       inkscape:label="Desmo"><tspan
         x="323.85547"
         y="194.65746"
         id="tspan3">Desmo</tspan></text><text
       xml:space="preserve"
       style="display:inline;font-size:8.46667px;text-align:start;writing-mode:lr-tb;direction:ltr;text-anchor:start;fill:#000000;stroke-width:0.264583"
       x="57.951538"
       y="70.045425"
       id="text1-7"
       transform="translate(2.9484238,-49.873948)"
       inkscape:label="10-pin"><tspan
         sodipodi:role="line"
         id="tspan1-1"
         style="stroke-width:0.264583"
         x="57.951538"
         y="70.045425">10-pin</tspan></text></g></svg>
