<?xml version='1.0' encoding='utf-8'?>
<svg width="82.681354mm" height="100.090001mm" viewBox="-13.005422 -13.945557 29.377896 35.563443" version="1.1" xmlns="http://www.w3.org/2000/svg">
  <g transform="scale(1,-1)" stroke-linecap="round">
    <g fill="none" stroke="rgb(0,0,0)" stroke-width="0.031978317977252174" id="Visible">
      <path d="M 15.15944,9.24939 C 13.434855,9.696862 -4.104055,13.924459 -4.104055,13.924459 C -4.104055,13.924459 -6.185082,14.054087 -6.905195,13.007383" />
      <path d="M 16.356485,5.830083 C 16.356485,5.615914 16.285128,5.413144 16.183066,5.255542" />
      <path d="M 15.15944,9.24939 C 16.067759,9.001158 16.356485,8.524223 16.356485,8.093416" />
      <path d="M 16.356485,8.093416 C 16.356485,7.879247 16.285128,7.676477 16.183066,7.518874" />
      <line x1="-12.901155" y1="3.766079" x2="-6.905195" y2="13.007383" />
      <path d="M -11.930985,-0.05589 C -12.808831,0.25173 -12.989433,0.737128 -12.989433,1.084497" />
      <path d="M -11.930985,-0.05589 C -10.80054,-0.452029 -7.234127,-1.59202 -5.573425,-2.120818" />
      <path d="M -6.729659,-6.234626 C -6.729659,-6.385631 -6.661453,-6.578524 -6.352524,-6.677738" />
      <line x1="-6.352524" y1="-6.677738" x2="-6.271996" y2="-6.70103" />
      <path d="M -6.271996,-6.70103 Q -6.10267,-6.74854 -5.965428,-6.787808" />
      <line x1="3.522148" y1="-9.533846" x2="-4.409092" y2="-21.347352" />
      <line x1="3.522148" y1="-9.533846" x2="3.522332" y2="-9.533899" />
      <line x1="4.3186" y1="-8.347896" x2="3.522332" y2="-9.533899" />
      <path d="M 4.87653,-8.330242 C 4.766772,-8.500399 4.3186,-8.347896 4.3186,-8.347896" />
      <line x1="6.403908" y1="-5.963539" x2="4.87653" y2="-8.330242" />
      <path d="M 6.403908,-5.963539 C 6.403908,-5.963539 8.824029,-6.138678 9.261666,-5.460926 C 9.699302,-4.783174 14.046443,1.956193 16.183066,5.255542" />
      <path d="M 4.865816,7.531083 C 5.10756,7.872126 5.554765,7.70099 5.554765,7.70099 C 5.554765,7.70099 10.56199,6.152883 12.457666,5.566944" />
      <line x1="4.865816" y1="7.531083" x2="4.174038" y2="6.508372" />
      <path d="M -11.930985,2.207443 C -12.808831,2.515063 -12.989433,3.000461 -12.989433,3.34783" />
      <path d="M -12.989433,3.34783 C -12.989433,3.590688 -12.901155,3.766079 -12.901155,3.766079" />
      <path d="M -11.930985,2.207443 C -10.439405,1.684752 -4.706851,-0.132971 -4.706851,-0.132971 C -4.706851,-0.132971 -4.462251,-0.148244 -4.462251,-0.340073" />
      <path d="M -4.462251,-0.340073 Q -4.45949,-0.420486 -4.531909,-0.548668" />
      <path d="M -4.531909,-0.548668 C -4.759364,-0.939238 -6.687015,-3.758678 -6.687015,-3.758678 C -6.687015,-3.758678 -6.729659,-3.851891 -6.729659,-3.971293" />
      <path d="M -6.729659,-3.971293 C -6.729659,-4.122298 -6.661453,-4.315191 -6.352524,-4.414405" />
      <line x1="-6.352524" y1="-4.414405" x2="-6.271996" y2="-4.437697" />
      <path d="M -6.271996,-4.437697 C -5.79073,-4.572645 -5.502013,-4.6593 -5.422638,-4.683361" />
      <line x1="-5.422638" y1="-4.683362" x2="-1.282083" y2="-5.880958" />
      <line x1="-1.282083" y1="-5.880958" x2="-9.765543" y2="-18.51699" />
      <path d="M -7.082289,-16.55493 L -9.765543,-18.51699" />
      <line x1="-7.082289" y1="-16.55493" x2="-4.082595" y2="-12.086915" />
      <path d="M -3.423425,-11.918937 L -4.082595,-12.086915" />
      <line x1="-3.423426" y1="-11.918937" x2="-3.221802" y2="-11.618621" />
      <path d="M -1.86783,-11.273584 L -3.221802,-11.618621" />
      <path d="M -2.066746,-10.712024 L -1.86783,-11.273584" />
      <line x1="-2.066746" y1="-10.712024" x2="-1.999538" y2="-10.611918" />
      <path d="M -2.188252,-10.079158 L -1.999538,-10.611918" />
      <line x1="-2.188252" y1="-10.079158" x2="-0.197448" y2="-7.113874" />
      <line x1="0.717643" y1="-7.378551" x2="-0.197448" y2="-7.113874" />
      <line x1="-0.424891" y1="-9.080344" x2="0.717643" y2="-7.378551" />
      <path d="M -0.424891,-9.080344 L -0.047463,-10.145865" />
      <line x1="-0.114671" y1="-10.245971" x2="-0.047463" y2="-10.145865" />
      <path d="M -0.114671,-10.24597 L 0.074043,-10.778731" />
      <line x1="-1.31189" y1="-12.843066" x2="0.074043" y2="-10.778731" />
      <path d="M -1.31189,-12.843066 L -1.971059,-13.011044" />
      <line x1="-2.172683" y1="-13.31136" x2="-1.971059" y2="-13.011044" />
      <path d="M -2.172683,-13.31136 L -4.15019,-13.815294" />
      <line x1="-4.15019" y1="-13.815294" x2="-5.780431" y2="-16.243522" />
      <path d="M -4.409092,-19.084019 L -5.780431,-16.243522" />
      <line x1="3.522148" y1="-7.270513" x2="-4.409092" y2="-19.084019" />
      <line x1="3.522148" y1="-7.270513" x2="3.522332" y2="-7.270566" />
      <line x1="4.3186" y1="-6.084563" x2="3.522332" y2="-7.270566" />
      <path d="M 4.87653,-6.066909 C 4.766772,-6.237066 4.3186,-6.084563 4.3186,-6.084563" />
      <line x1="6.403908" y1="-3.700206" x2="4.87653" y2="-6.066909" />
      <path d="M 6.403908,-3.700206 C 6.403908,-3.700206 8.824029,-3.875345 9.261666,-3.197593 C 9.699302,-2.519841 14.046443,4.219526 16.183066,7.518874" />
      <path d="M 13.152734,7.61549 C 13.38555,7.543653 13.439511,7.424586 13.439511,7.329636" />
      <path d="M 13.439511,7.329636 C 13.439511,7.247589 13.399219,7.183548 13.399219,7.183548 C 13.399219,7.183548 12.295875,5.254982 11.92809,4.70717 C 11.560306,4.15936 10.945426,4.40427 10.945426,4.40427 C 10.945426,4.40427 3.769702,6.639128 3.373794,6.753639 C 3.146358,6.819422 3.097967,6.963567 3.097967,7.074332" />
      <path d="M 3.097967,7.074332 C 3.097967,7.156383 3.12452,7.220118 3.12452,7.220118" />
      <path d="M 4.865816,9.794416 C 5.10756,10.135459 5.554765,9.964323 5.554765,9.964323 C 5.554765,9.964323 12.71874,7.749403 13.152734,7.61549" />
      <line x1="4.865816" y1="9.794416" x2="3.12452" y2="7.220118" />
      <line x1="6.403908" y1="-5.963539" x2="6.403908" y2="-3.700206" />
      <path d="M -6.352524,-4.414405 L -6.352524,-6.677738" />
      <path d="M -6.271996,-4.437697 L -6.271996,-6.70103" />
      <path d="M -5.422638,-4.683362 L -5.422638,-5.979327" />
      <line x1="-5.171222" y1="-5.60483" x2="-1.75925" y2="-6.591694" />
      <line x1="-10.312792" y1="-20.746696" x2="-10.312792" y2="-21.034868" />
      <path d="M -6.920799,-20.182346 L -6.929737,-20.194861" />
      <path d="M -6.929737,-20.194861 C -8.060093,-20.413142 -9.191186,-20.674781 -10.312792,-21.034868" />
      <line x1="-6.929737" y1="-20.183833" x2="-6.929737" y2="-20.194861" />
      <line x1="-6.066831" y1="-20.538808" x2="-6.066831" y2="-20.526239" />
      <path d="M -4.956342,-21.601897 C -5.321096,-21.174045 -5.694198,-20.83449 -6.066831,-20.538808" />
      <path d="M -4.956342,-21.601897 C -4.690826,-21.354408 -4.497992,-21.264715 -4.409092,-21.347352" />
      <line x1="3.522148" y1="-7.270513" x2="3.522148" y2="-9.533846" />
      <line x1="-4.956342" y1="-21.601897" x2="-4.956342" y2="-20.45972" />
      <path d="M -4.409092,-19.084019 C -4.497992,-19.431488 -4.690826,-19.916241 -4.956342,-20.45972" />
      <line x1="3.522332" y1="-7.270566" x2="3.522332" y2="-9.533899" />
      <line x1="4.3186" y1="-8.347896" x2="4.3186" y2="-6.084563" />
      <line x1="3.12452" y1="6.943197" x2="3.12452" y2="7.220118" />
      <line x1="4.865816" y1="7.531083" x2="4.865816" y2="9.794416" />
      <path d="M -9.765543,-18.51699 C -9.854443,-18.864459 -10.047276,-19.349212 -10.312792,-19.892691" />
      <line x1="-10.312792" y1="-19.892691" x2="-10.312792" y2="-20.180863" />
      <path d="M -8.77504,-19.924307 C -9.290876,-19.998475 -9.808894,-20.012842 -10.312792,-19.892691" />
      <path d="M -8.77504,-19.924307 C -8.533502,-19.560233 -8.29394,-19.166727 -8.056354,-18.743789 C -7.848734,-18.37679 -7.64853,-17.982367 -7.455742,-17.56052 C -7.314381,-17.243718 -7.172429,-16.898982 -7.082289,-16.55493" />
      <line x1="-4.170691" y1="-12.50105" x2="-4.170691" y2="-13.066883" />
      <path d="M -4.082595,-12.086915 A 1.875,0.5704267407917004 73.86824277765757 0,0 -4.170691,-12.50105" />
      <line x1="-8.77504" y1="-19.924307" x2="-8.77504" y2="-19.925016" />
      <line x1="-4.170691" y1="-13.066883" x2="-8.77504" y2="-19.925016" />
      <path d="M -3.713145,-12.981242 Q -3.963063,-12.782758 -4.170691,-12.50105" />
      <path d="M -3.713145,-12.981242 C -3.585653,-12.641536 -3.483364,-12.266406 -3.423426,-11.918937" />
      <path d="M -3.221802,-11.618621 A 1.875,0.5704267407917004 73.86824277765757 0,0 -3.713145,-13.147998" />
      <line x1="-3.713145" y1="-13.147998" x2="-3.713145" y2="-12.981242" />
      <path d="M -3.2556,-13.33156 Q -3.48604,-13.265083 -3.713145,-13.147998" />
      <path d="M -3.356412,-13.469088 Q -3.306232,-13.406968 -3.2556,-13.33156" />
      <path d="M -2.056112,-13.137729 L -3.356412,-13.469088" />
      <path d="M -1.942822,-13.003848 L -1.937262,-12.995604" />
      <path d="M -1.937262,-12.995604 C -1.767868,-12.744104 -1.59914,-12.382617 -1.466807,-11.987676" />
      <path d="M -1.86783,-11.273584 C -1.764441,-11.561379 -1.618945,-11.795824 -1.466806,-11.987676" />
      <path d="M -1.185065,-11.061367 L -1.151461,-11.009916" />
      <path d="M -1.151461,-11.009916 Q -1.056498,-11.278008 -0.962747,-11.542677" />
      <path d="M -0.996351,-11.594127 L -0.962747,-11.542677" />
      <path d="M -1.466807,-11.987676 C -1.334479,-11.988401 -1.165729,-11.847233 -0.996351,-11.594127" />
      <path d="M -2.066746,-10.712024 A 1.875,0.5704267407917003 -106.13175722234243 0,1 -1.642611,-10.836593" />
      <path d="M -1.185065,-11.061367 Q -1.418011,-10.994326 -1.642611,-10.836593" />
      <path d="M -1.642611,-10.781638 C -1.800713,-10.87145 -1.929542,-10.810186 -1.999538,-10.611918" />
      <line x1="-1.642611" y1="-10.781638" x2="-1.642611" y2="-10.836593" />
      <path d="M -2.188252,-10.079158 A 1.875,0.5704267407917003 -106.13175722234243 0,1 -2.100156,-10.230857" />
      <path d="M -2.100156,-10.230857 C -1.970931,-10.457227 -1.811263,-10.640758 -1.642611,-10.781638" />
      <line x1="-0.890415" y1="-8.994791" x2="-1.908508" y2="-10.511231" />
      <path d="M -0.197448,-7.113874 A 1.875,0.5704267407917004 73.86824277765757 0,0 -0.890415,-8.994791" />
      <line x1="-0.890415" y1="-8.994791" x2="-0.433191" y2="-9.127037" />
      <path d="M -1.117858,-10.961262 C -0.823812,-10.529865 -0.539285,-9.757574 -0.424891,-9.080344" />
      <path d="M -0.929143,-11.494022 Q -0.696198,-11.561733 -0.471598,-11.533925" />
      <path d="M -0.962747,-11.542677 L -0.929143,-11.494022" />
      <path d="M -1.151461,-11.009916 L -1.117858,-10.961262" />
      <path d="M -0.471598,-11.47897 C -0.313518,-11.09788 -0.184682,-10.6528 -0.114671,-10.245971" />
      <line x1="-0.471598" y1="-11.533925" x2="-0.471598" y2="-11.47897" />
      <path d="M -0.471598,-11.47897 Q -0.423009,-11.466549 -0.375766,-11.448718" />
      <path d="M -3.457224,-13.631877 Q -3.406594,-13.556457 -3.356412,-13.469088" />
      <path d="M -3.462784,-13.64012 L -3.457224,-13.631877" />
      <path d="M -7.537422,-19.709293 C -7.270774,-19.313344 -7.006375,-18.881579 -6.744226,-18.413996 C -6.54294,-18.057011 -6.348628,-17.674195 -6.161289,-17.265548 C -6.017229,-16.943972 -5.872231,-16.593604 -5.780431,-16.243522" />
      <path d="M -7.544838,-19.720329 L -7.537422,-19.709293" />
      <path d="M -7.544838,-19.720329 Q -7.081581,-19.644478 -6.621905,-19.508971" />
      <path d="M -4.956342,-20.45972 C -5.508965,-20.184746 -6.065245,-19.858862 -6.621905,-19.508971" />
      <line x1="-10.312792" y1="-20.180863" x2="-10.312923" y2="-20.180884" />
      <line x1="-10.312923" y1="-20.180884" x2="-12.63169" y2="-16.717141" />
      <line x1="-12.63169" y1="-16.717141" x2="-11.02866" y2="-14.329444" />
      <path d="M -11.02866,-14.329444 C -11.01969,-14.319176 -10.984373,-14.309831 -10.95329,-14.301667 C -10.916792,-14.29261 -10.878657,-14.284121 -10.838884,-14.276201 C -10.763206,-14.26111 -10.686021,-14.246824 -10.607328,-14.233341 C -10.466294,-14.209139 -10.323933,-14.185949 -10.180244,-14.163773 C -9.842819,-14.111833 -9.503806,-14.06199 -9.163205,-14.014244 C -8.787167,-13.961286 -8.412296,-13.909779 -8.038594,-13.859722 C -7.922454,-13.844239 -7.806315,-13.828756 -7.690175,-13.813273 C -7.632385,-13.805649 -7.574595,-13.798025 -7.516804,-13.790401 C -7.486825,-13.786462 -7.458184,-13.782707 -7.430881,-13.779137 C -7.403954,-13.775614 -7.373099,-13.7716 -7.376239,-13.77201" />
      <line x1="-7.376239" y1="-13.77201" x2="-6.77131" y2="-12.870975" />
      <path d="M -8.699762,-10.860572 L -8.702575,-10.87138" />
      <path d="M -8.702575,-10.87138 C -8.69687,-10.915758 -8.652664,-10.970222 -8.615312,-11.020301 C -8.570713,-11.076708 -8.523195,-11.132922 -8.472757,-11.188942 C -8.385947,-11.285518 -8.296185,-11.38158 -8.203471,-11.477128 C -8.052569,-11.632782 -7.898742,-11.787505 -7.741988,-11.941295 C -7.604758,-12.074583 -7.467527,-12.20787 -7.330296,-12.341158 C -7.241136,-12.426246 -7.151977,-12.511334 -7.062817,-12.596421 C -7.011648,-12.644789 -6.960479,-12.693156 -6.90931,-12.741524 C -6.883204,-12.766061 -6.857098,-12.790598 -6.830992,-12.815136 C -6.81829,-12.827031 -6.805589,-12.838927 -6.792887,-12.850823 C -6.78159,-12.86139 -6.770269,-12.871948 -6.77131,-12.870975" />
      <line x1="-8.699762" y1="-10.860572" x2="-5.293102" y2="-5.786384" />
      <path d="M -5.293102,-5.786384 L -5.29236,-5.785265" />
      <line x1="-5.171222" y1="-5.60483" x2="-5.29236" y2="-5.785265" />
      <path d="M -8.699762,-11.426405 L -8.702575,-11.437214" />
      <path d="M -8.702575,-11.437214 C -8.69687,-11.481591 -8.652664,-11.536056 -8.615312,-11.586135 C -8.570713,-11.642542 -8.523195,-11.698755 -8.472757,-11.754776 C -8.385947,-11.851352 -8.296185,-11.947414 -8.203471,-12.042962 C -8.081292,-12.169128 -7.957024,-12.294669 -7.830665,-12.419583 C -7.557103,-12.689746 -7.281603,-12.955823 -7.004168,-13.217814" />
      <line x1="-12.63169" y1="-17.282974" x2="-10.312923" y2="-20.746718" />
      <line x1="-10.312923" y1="-20.746718" x2="-10.312792" y2="-20.746696" />
      <line x1="-6.621905" y1="-20.132617" x2="-6.929737" y2="-20.183833" />
      <line x1="-6.621905" y1="-20.132617" x2="-6.621905" y2="-19.508971" />
      <line x1="-7.544838" y1="-19.720339" x2="-7.544838" y2="-19.720329" />
      <line x1="-7.544838" y1="-19.720339" x2="-8.77504" y2="-19.925016" />
      <line x1="-10.312923" y1="-20.746718" x2="-10.312923" y2="-20.180884" />
      <line x1="-6.066831" y1="-20.526239" x2="-6.621905" y2="-20.132617" />
      <line x1="-4.170691" y1="-13.066883" x2="-3.2556" y2="-13.33156" />
      <line x1="-7.537422" y1="-19.709293" x2="-7.544838" y2="-19.720339" />
      <path d="M -8.46658,-19.748174 L -8.474093,-19.753667" />
      <line x1="-1.937262" y1="-12.995604" x2="-1.942791" y2="-13.00384" />
      <line x1="-0.996351" y1="-11.594127" x2="-1.937262" y2="-12.995604" />
      <line x1="-0.929143" y1="-11.494022" x2="-0.996351" y2="-11.594127" />
      <line x1="-0.929143" y1="-11.494022" x2="-0.49122" y2="-11.620685" />
      <line x1="-12.63169" y1="-17.282974" x2="-12.63169" y2="-16.717141" />
      <line x1="16.183066" y1="5.255542" x2="16.183066" y2="7.518874" />
      <line x1="-11.930985" y1="-0.05589" x2="-11.930985" y2="2.207443" />
      <line x1="4.87653" y1="-8.330242" x2="4.87653" y2="-6.066909" />
      <line x1="13.152734" y1="6.755246" x2="13.152734" y2="7.61549" />
      <path d="M 16.356485,5.830083 L 16.356485,8.093416" />
      <path d="M -12.989433,1.084497 L -12.989433,3.34783" />
      <path d="M -4.706851,-0.132971 L -4.706851,-0.824881" />
      <path d="M -6.729659,-6.234626 L -6.729659,-3.971293" />
      <path d="M 5.554765,9.964323 L 5.554765,7.70099" />
      <path d="M -8.702575,-11.437214 L -8.702575,-10.87138" />
    </g>
    <g fill="none" stroke="rgb(99,99,99)" stroke-width="0.031978317977252174" id="Hidden" stroke-dasharray="0.000812 0.096341">
      <line x1="15.15944" y1="6.986057" x2="15.15944" y2="9.24939" />
      <line x1="-6.905195" y1="10.74405" x2="-6.905195" y2="13.007383" />
      <path d="M 15.15944,6.986057 C 13.434855,7.433529 -4.104055,11.661126 -4.104055,11.661126 C -4.104055,11.661126 -6.185082,11.790754 -6.905195,10.74405" />
      <path d="M 15.15944,6.986057 C 16.067759,6.737825 16.356485,6.260891 16.356485,5.830083" />
      <line x1="-12.901155" y1="1.502746" x2="-12.901155" y2="3.766079" />
      <line x1="-12.901155" y1="1.502746" x2="-6.905195" y2="10.74405" />
      <path d="M -12.989433,1.084497 C -12.989433,1.327355 -12.901155,1.502746 -12.901155,1.502746" />
      <path d="M -5.573425,-2.120818 C -5.042893,-2.289749 -4.706851,-2.396304 -4.706851,-2.396304 C -4.706851,-2.396304 -4.462251,-2.411577 -4.462251,-2.603406" />
      <path d="M -4.462251,-2.603406 Q -4.45949,-2.683819 -4.531909,-2.812001" />
      <path d="M -4.531909,-2.812001 C -4.759364,-3.202571 -6.687015,-6.022011 -6.687015,-6.022011 C -6.687015,-6.022011 -6.729659,-6.115223 -6.729659,-6.234626" />
      <path d="M -5.965428,-6.787808 Q -5.515666,-6.917461 -5.422638,-6.946694" />
      <line x1="-5.422638" y1="-6.946694" x2="-1.282083" y2="-8.144291" />
      <line x1="-1.282083" y1="-8.144291" x2="-9.765543" y2="-20.780323" />
      <path d="M -5.425457,-18.791972 L -9.765543,-20.780323" />
      <line x1="-5.425457" y1="-18.791972" x2="-3.491021" y2="-15.910649" />
      <path d="M -3.142072,-14.577044 L -3.491021,-15.910649" />
      <line x1="-3.142072" y1="-14.577044" x2="-2.604409" y2="-13.776201" />
      <path d="M -2.981837,-12.71068 L -2.604409,-13.776201" />
      <line x1="-2.981837" y1="-12.71068" x2="-2.914629" y2="-12.610574" />
      <path d="M -3.103343,-12.077814 L -2.914629,-12.610574" />
      <line x1="-3.103343" y1="-12.077814" x2="-1.112539" y2="-9.11253" />
      <line x1="-0.197448" y1="-9.377207" x2="-1.112539" y2="-9.11253" />
      <line x1="-1.339982" y1="-11.079" x2="-0.197448" y2="-9.377207" />
      <path d="M -1.339982,-11.079 L -0.962554,-12.144521" />
      <line x1="-1.029762" y1="-12.244627" x2="-0.962554" y2="-12.144521" />
      <path d="M -1.029762,-12.244626 L -0.841048,-12.777387" />
      <line x1="-1.445919" y1="-13.678337" x2="-0.841048" y2="-12.777387" />
      <path d="M -1.445919,-13.678337 L -1.794868,-15.011941" />
      <line x1="-1.794868" y1="-15.011941" x2="-4.579536" y2="-19.159678" />
      <path d="M -4.409092,-21.347352 L -4.579536,-19.159678" />
      <path d="M 13.152734,5.352158 C 13.38555,5.28032 13.439511,5.161253 13.439511,5.066303" />
      <path d="M 13.439511,5.066303 C 13.439511,4.984256 13.399219,4.920215 13.399219,4.920215 C 13.399219,4.920215 12.295875,2.991649 11.92809,2.443837 C 11.560306,1.896027 10.945426,2.140937 10.945426,2.140937 C 10.945426,2.140937 3.769702,4.375795 3.373794,4.490306 C 3.146358,4.556089 3.097967,4.700234 3.097967,4.811" />
      <path d="M 3.097967,4.811 C 3.097967,4.89305 3.12452,4.956785 3.12452,4.956785" />
      <path d="M 12.457666,5.566944 C 12.829465,5.452024 13.081572,5.374115 13.152734,5.352158" />
      <line x1="4.174038" y1="6.508372" x2="3.12452" y2="4.956785" />
      <path d="M -5.422638,-5.979327 L -5.422638,-6.946694" />
      <line x1="-1.282083" y1="-6.729708" x2="-1.282083" y2="-5.880958" />
      <line x1="-1.75925" y1="-6.591694" x2="-1.282083" y2="-6.729708" />
      <line x1="-5.171222" y1="-6.170663" x2="-5.171222" y2="-5.60483" />
      <line x1="-1.282083" y1="-7.295541" x2="-5.171222" y2="-6.170663" />
      <line x1="-1.282083" y1="-8.144291" x2="-1.282083" y2="-7.295541" />
      <line x1="-1.282083" y1="-7.295541" x2="-10.312792" y2="-20.746696" />
      <path d="M -10.312792,-21.034868 Q -10.110619,-20.846844 -9.969733,-20.781811" />
      <path d="M -9.969733,-20.781811 Q -9.832413,-20.719358 -9.765543,-20.780323" />
      <path d="M -5.425457,-18.791972 C -5.477589,-18.744991 -5.551521,-18.758173 -5.629647,-18.79346" />
      <path d="M -5.629647,-18.79346 C -5.7574,-18.853048 -5.899224,-18.972721 -6.043432,-19.114396 C -6.327596,-19.396329 -6.624173,-19.768478 -6.920799,-20.182346" />
      <path d="M -2.798054,-14.029732 C -3.024081,-14.363911 -3.247449,-14.897149 -3.387831,-15.43763" />
      <path d="M -3.387831,-15.43763 Q -3.450727,-15.678183 -3.491021,-15.910649" />
      <line x1="-6.929737" y1="-20.183833" x2="-2.798054" y2="-14.029732" />
      <path d="M -3.053976,-14.16291 A 1.875,0.5704267407917003 -106.13175722234243 0,1 -3.142072,-14.577044" />
      <path d="M -2.512088,-14.472658 C -2.59086,-14.216523 -2.694458,-14.058819 -2.798054,-14.029732" />
      <path d="M -2.424851,-14.139257 L -2.512088,-14.472658" />
      <path d="M -2.710817,-13.696331 C -2.60722,-13.725419 -2.503624,-13.883119 -2.424851,-14.139257" />
      <path d="M -3.053976,-14.16291 L -3.045413,-14.128985" />
      <path d="M -3.045413,-14.128985 C -2.964027,-13.815268 -2.837471,-13.657621 -2.710817,-13.696331" />
      <path d="M -1.911442,-11.895284 C -2.205477,-12.326681 -2.489975,-13.098821 -2.604409,-13.776201" />
      <line x1="-3.053976" y1="-13.597077" x2="-1.911442" y2="-11.895284" />
      <line x1="-3.053976" y1="-13.597077" x2="-3.053976" y2="-14.16291" />
      <path d="M -1.877838,-11.846629 L -1.911442,-11.895284" />
      <path d="M -1.877838,-11.846629 L -2.066552,-11.313868" />
      <path d="M -2.066553,-11.313868 L -2.100156,-11.362523" />
      <path d="M -2.557702,-11.32262 Q -2.333102,-11.294812 -2.100156,-11.362523" />
      <path d="M -2.557702,-11.32262 A 1.875,0.5704267407917004 -106.13175722234243 0,1 -2.981837,-12.71068" />
      <path d="M -2.914629,-12.610574 C -2.844582,-12.203587 -2.715799,-11.758745 -2.557702,-11.377575" />
      <line x1="-2.557702" y1="-11.32262" x2="-2.557702" y2="-11.377575" />
      <path d="M -3.015248,-11.663679 A 1.875,0.5704267407917003 -106.13175722234243 0,1 -3.103343,-12.077814" />
      <path d="M -3.015248,-11.663679 C -2.886022,-11.512062 -2.726354,-11.420895 -2.557702,-11.377575" />
      <path d="M -1.805506,-9.295948 A 1.875,0.5704267407917004 73.86824277765757 0,0 -1.284542,-8.909358" />
      <path d="M -1.284542,-8.909358 A 1.875,0.5704267407917004 73.86824277765757 0,0 -1.112539,-9.11253" />
      <line x1="-3.015248" y1="-11.097846" x2="-1.805506" y2="-9.295948" />
      <line x1="-3.015248" y1="-11.097846" x2="-3.015248" y2="-11.663679" />
      <path d="M -0.890415,-9.560625 A 1.875,0.5704267407917004 73.86824277765757 0,0 -0.369451,-9.174035" />
      <path d="M -0.369451,-9.174035 A 1.875,0.5704267407917004 73.86824277765757 0,0 -0.197448,-9.377207" />
      <line x1="-0.890415" y1="-9.560625" x2="-1.805506" y2="-9.295948" />
      <line x1="-0.890415" y1="-9.560625" x2="-2.032949" y2="-11.262418" />
      <path d="M -1.339982,-11.079 C -1.387693,-10.947276 -1.456815,-10.877421 -1.547349,-10.869436 C -1.681869,-10.857681 -1.85703,-10.999441 -2.032949,-11.262418" />
      <path d="M -1.386689,-12.019952 Q -1.611289,-11.862219 -1.844235,-11.795178" />
      <path d="M -1.386689,-12.019952 A 1.875,0.5704267407917004 73.86824277765758 0,0 -0.962554,-12.144521" />
      <path d="M -2.032949,-11.262418 L -2.066553,-11.313868" />
      <path d="M -1.844235,-11.795178 L -1.877839,-11.846629" />
      <line x1="-1.386689" y1="-12.074907" x2="-1.386689" y2="-12.019952" />
      <path d="M -1.029762,-12.244627 C -1.099742,-12.046402 -1.228575,-11.985071 -1.386689,-12.074907" />
      <path d="M -1.386689,-12.074907 C -1.218037,-12.215787 -1.058369,-12.399318 -0.929143,-12.625688" />
      <path d="M -0.929143,-12.625688 A 1.875,0.5704267407917004 73.86824277765758 0,0 -0.841048,-12.777387" />
      <line x1="-0.929143" y1="-12.625688" x2="-0.929143" y2="-12.059855" />
      <line x1="-0.929143" y1="-12.059855" x2="-2.138885" y2="-13.861754" />
      <path d="M -1.445919,-13.678337 C -1.501263,-13.526549 -1.584112,-13.45709 -1.694468,-13.469959 C -1.82245,-13.485841 -1.980438,-13.625117 -2.138885,-13.861754" />
      <path d="M -2.138885,-13.861754 C -2.242482,-13.830914 -2.346079,-13.928687 -2.424851,-14.139257" />
      <path d="M -2.512088,-14.472658 C -2.433318,-14.262092 -2.329719,-14.164314 -2.226123,-14.195155" />
      <path d="M -2.226123,-14.195155 C -2.094931,-14.230678 -1.963879,-14.477827 -1.882963,-14.860242" />
      <path d="M -1.882963,-14.860242 A 1.875,0.5704267407917004 73.86824277765757 0,0 -1.794868,-15.011941" />
      <path d="M -4.579536,-19.159678 C -4.649222,-19.098651 -4.754116,-19.138071 -4.861802,-19.203616 C -4.969235,-19.272732 -5.081137,-19.365561 -5.197511,-19.482102 C -5.479099,-19.761447 -5.77291,-20.129536 -6.066831,-20.538808" />
      <line x1="-6.066831" y1="-20.526239" x2="-1.882963" y2="-14.294409" />
      <line x1="-1.882963" y1="-14.860242" x2="-1.882963" y2="-14.294409" />
      <line x1="3.12452" y1="4.956785" x2="3.12452" y2="6.943197" />
      <line x1="-1.282083" y1="-6.729708" x2="-10.312792" y2="-20.180863" />
      <path d="M -2.038073,-13.133132 L -2.056112,-13.137729" />
      <path d="M -2.038073,-13.133132 Q -1.99066,-13.074439 -1.942822,-13.003848" />
      <line x1="-2.100156" y1="-10.230857" x2="-2.100156" y2="-10.79669" />
      <line x1="-1.908508" y1="-10.511231" x2="-2.100156" y2="-10.79669" />
      <line x1="-0.433191" y1="-9.127037" x2="0.024676" y2="-9.259468" />
      <path d="M 0.717643,-7.378551 A 1.875,0.5704267407917004 73.86824277765757 0,0 0.024676,-9.259468" />
      <line x1="0.024676" y1="-9.259468" x2="-1.117858" y2="-10.961262" />
      <path d="M -0.047463,-10.145865 A 1.875,0.5704267407917004 73.86824277765758 0,0 -0.471598,-11.533925" />
      <path d="M 0.074043,-10.778731 A 1.875,0.5704267407917004 73.86824277765758 0,0 -0.014052,-11.192866" />
      <path d="M -0.375766,-11.448718 Q -0.173647,-11.375062 -0.014052,-11.192866" />
      <path d="M -1.223794,-12.994764 A 1.875,0.5704267407916965 73.86824277765744 0,0 -1.31189,-12.843066" />
      <line x1="-1.223794" y1="-13.560598" x2="-1.223794" y2="-12.994764" />
      <line x1="-1.223794" y1="-13.560598" x2="-0.014052" y2="-11.758699" />
      <line x1="-0.014052" y1="-11.758699" x2="-0.014052" y2="-11.192866" />
      <path d="M -1.223794,-12.994764 Q -1.418417,-13.146863 -1.651379,-13.20301" />
      <path d="M -1.651379,-13.20301 L -1.68134,-13.210279" />
      <path d="M -1.68134,-13.210279 L -1.694542,-13.21401" />
      <path d="M -1.694542,-13.21401 Q -1.880444,-13.258342 -1.971059,-13.011044" />
      <line x1="-1.68134" y1="-13.210279" x2="-1.68134" y2="-13.377035" />
      <path d="M -1.68134,-13.377035 A 1.875,0.5704267407917002 73.86824277765757 0,0 -1.896166,-13.514326" />
      <path d="M -1.896166,-13.514326 A 1.875,0.5704267407917002 73.86824277765757 0,0 -2.172683,-13.31136" />
      <path d="M -2.138885,-13.295921 Q -1.908445,-13.362746 -1.68134,-13.377035" />
      <path d="M -2.138885,-13.295921 Q -2.088254,-13.220498 -2.038073,-13.133132" />
      <path d="M -4.15019,-13.815294 C -4.092339,-13.978278 -3.994989,-14.049726 -3.873673,-14.01826" />
      <path d="M -3.873673,-14.01826 C -3.752577,-13.987929 -3.607995,-13.854859 -3.462784,-13.64012" />
      <line x1="-3.457224" y1="-13.631877" x2="-7.537422" y2="-19.709293" />
      <path d="M -5.29236,-5.785265 C -5.29236,-6.004818 -5.29236,-6.134041 -5.29236,-6.351098" />
      <line x1="-5.171222" y1="-6.170663" x2="-5.29236" y2="-6.351098" />
      <path d="M -5.293102,-6.352218 L -5.29236,-6.351098" />
      <line x1="-5.293102" y1="-6.352218" x2="-8.699762" y2="-11.426405" />
      <path d="M -7.004168,-13.217814 C -6.972548,-13.247662 -6.940929,-13.27751 -6.90931,-13.307357 C -6.883204,-13.331895 -6.857098,-13.356432 -6.830992,-13.380969 C -6.81829,-13.392865 -6.805589,-13.404761 -6.792887,-13.416656 C -6.78159,-13.427223 -6.770269,-13.437782 -6.77131,-13.436808" />
      <line x1="-6.77131" y1="-13.436808" x2="-7.376239" y2="-14.337843" />
      <path d="M -11.02866,-14.895277 C -11.01969,-14.88501 -10.984373,-14.875664 -10.95329,-14.867501 C -10.916792,-14.858444 -10.878657,-14.849955 -10.838884,-14.842034 C -10.763206,-14.826944 -10.686021,-14.812657 -10.607328,-14.799175 C -10.466294,-14.774972 -10.323933,-14.751783 -10.180244,-14.729607 C -9.842819,-14.677667 -9.503806,-14.627824 -9.163205,-14.580078 C -8.787167,-14.52712 -8.412296,-14.475613 -8.038594,-14.425555 C -7.922454,-14.410072 -7.806315,-14.394589 -7.690175,-14.379107 C -7.632385,-14.371483 -7.574595,-14.363859 -7.516804,-14.356235 C -7.486825,-14.352295 -7.458184,-14.348541 -7.430881,-14.344971 C -7.403954,-14.341448 -7.373099,-14.337434 -7.376239,-14.337843" />
      <line x1="-11.02866" y1="-14.895277" x2="-12.63169" y2="-17.282974" />
      <line x1="-1.882963" y1="-14.294409" x2="-2.226123" y2="-14.195155" />
      <line x1="-2.226123" y1="-14.195155" x2="-2.798054" y2="-14.029732" />
      <line x1="-2.138885" y1="-13.861754" x2="-2.710817" y2="-13.696331" />
      <line x1="-2.710817" y1="-13.696331" x2="-3.053976" y2="-13.597077" />
      <line x1="-0.929143" y1="-12.059855" x2="-1.844235" y2="-11.795178" />
      <line x1="-1.844235" y1="-11.795178" x2="-1.911442" y2="-11.895284" />
      <line x1="-2.032949" y1="-11.262418" x2="-2.100156" y2="-11.362523" />
      <line x1="-2.100156" y1="-11.362523" x2="-3.015248" y2="-11.097846" />
      <line x1="-3.2556" y1="-13.33156" x2="-3.457224" y2="-13.631877" />
      <line x1="-1.942791" y1="-13.00384" x2="-2.138885" y2="-13.295921" />
      <line x1="-1.117858" y1="-10.961262" x2="-1.185065" y2="-11.061367" />
      <line x1="-2.100156" y1="-10.79669" x2="-1.185065" y2="-11.061367" />
      <line x1="-0.49122" y1="-11.620685" x2="-0.014052" y2="-11.758699" />
      <line x1="-2.138885" y1="-13.295921" x2="-1.223794" y2="-13.560598" />
      <line x1="-7.376239" y1="-14.337843" x2="-7.376239" y2="-13.77201" />
      <line x1="-6.77131" y1="-13.436808" x2="-6.77131" y2="-12.870975" />
      <path d="M -4.104055,11.661126 L -4.104055,13.924459" />
      <path d="M -4.462251,-2.603406 L -4.462251,-0.340073" />
      <path d="M -4.706851,-0.824881 L -4.706851,-2.396304" />
      <path d="M -6.687015,-6.022011 L -6.687015,-3.758678" />
      <path d="M -9.969733,-20.781811 L -5.629647,-18.79346" />
      <path d="M -3.387831,-15.43763 L -3.045413,-14.128985" />
      <line x1="-0.369451" y1="-9.174035" x2="-1.284542" y2="-8.909358" />
      <path d="M 13.439511,5.066303 L 13.439511,7.329636" />
      <path d="M 3.097967,4.811 L 3.097967,7.074332" />
      <path d="M 13.399219,4.920215 L 13.399219,7.183548" />
      <path d="M 10.945426,2.140937 L 10.945426,4.40427" />
      <path d="M -1.651379,-13.20301 L -1.694542,-13.21401" />
      <path d="M -1.896166,-13.514326 L -3.873674,-14.01826" />
      <line x1="-4.531909" y1="-2.812001" x2="-4.531909" y2="-0.548668" />
      <line x1="13.152734" y1="5.352158" x2="13.152734" y2="6.755246" />
      <line x1="-11.02866" y1="-14.895277" x2="-11.02866" y2="-14.329444" />
      <line x1="-8.699762" y1="-11.426405" x2="-8.699762" y2="-10.860572" />
      <line x1="-5.293102" y1="-6.352218" x2="-5.293102" y2="-5.786384" />
    </g>
  </g>
</svg>