<?xml version='1.0' encoding='utf-8'?>
<svg width="100.09mm" height="72.655614mm" viewBox="-28.24301 -12.755889 45.776152 33.229038" version="1.1" xmlns="http://www.w3.org/2000/svg">
  <g transform="scale(1,-1)" stroke-linecap="round">
    <g fill="none" stroke="rgb(0,0,0)" stroke-width="0.041161491479560115" id="Visible">
      <path d="M 13.882444,11.30919 C 13.882444,11.30919 16.505574,10.126286 16.873915,9.169415" />
      <path d="M 9.239088,12.712432 C 10.652245,12.946351 13.882444,11.30919 13.882444,11.30919" />
      <path d="M 16.873915,9.169415 C 16.950674,8.970013 16.98353,8.742982 16.98353,8.496207" />
      <path d="M 16.98353,8.496207 C 16.98353,7.028405 15.821161,4.862065 15.821161,3.655939" />
      <path d="M 15.821161,3.655939 C 15.821161,3.413572 15.868097,3.209977 15.980833,3.058616" />
      <path d="M 16.98353,6.34598 C 16.98353,5.347934 16.446115,4.026923 16.102126,2.904418" />
      <path d="M 0.487013,11.089742 C 1.983163,10.869321 7.482204,12.421618 9.239088,12.712432" />
      <path d="M -1.668228,11.66775 C -1.356851,11.735611 -0.002208,11.161816 0.487013,11.089742" />
      <path d="M -3.056627,11.211834 C -2.823651,11.406595 -2.290983,11.53203 -1.668228,11.66775" />
      <path d="M -4.132692,11.526381 C -3.681063,11.592323 -3.056627,11.211834 -3.056627,11.211834" />
      <path d="M -7.459037,10.007507 C -5.803958,11.248412 -4.785085,11.431126 -4.132692,11.526381" />
      <path d="M -9.279387,7.667617 C -9.24973,8.06976 -9.114117,8.766601 -7.459037,10.007507" />
      <path d="M -8.548772,6.945729 C -8.548772,6.945729 -9.280232,7.253357 -9.280232,7.644629" />
      <path d="M -9.280232,7.644629 C -9.280232,7.65226 -9.279954,7.659924 -9.279387,7.667617" />
      <path d="M -9.084155,5.863849 C -9.14598,5.904347 -9.171674,5.962003 -9.171674,6.029871" />
      <path d="M -9.171674,6.029871 C -9.171674,6.364029 -8.548772,6.945729 -8.548772,6.945729" />
      <path d="M -7.351132,3.262903 C -7.617498,4.959397 -8.697669,5.610679 -9.084155,5.863849" />
      <path d="M -8.213983,1.007107 C -8.213983,1.007107 -7.31046,1.454616 -7.31046,2.763246" />
      <path d="M -7.31046,2.763246 C -7.31046,2.917593 -7.323029,3.083919 -7.351132,3.262903" />
      <line x1="-10.557794" y1="-0.750179" x2="-8.213983" y2="1.007107" />
      <path d="M -10.364277,-1.580161 C -10.626414,-1.444284 -10.7024,-1.276026 -10.7024,-1.126603" />
      <path d="M -10.7024,-1.126603 C -10.7024,-0.92047 -10.557794,-0.750179 -10.557794,-0.750179" />
      <line x1="-9.556668" y1="-1.99878" x2="-10.364277" y2="-1.580161" />
      <line x1="-9.542751" y1="-1.988346" x2="-9.556668" y2="-1.99878" />
      <line x1="-2.824511" y1="-5.470704" x2="-9.542751" y2="-1.988346" />
      <line x1="-2.824511" y1="-5.470704" x2="-2.838428" y2="-5.481138" />
      <line x1="-2.098343" y1="-5.864757" x2="-2.838428" y2="-5.481138" />
      <path d="M -0.715566,-5.851838 C -1.315564,-6.30169 -2.098343,-5.864757 -2.098343,-5.864757" />
      <path d="M 1.202457,-4.413789 C 0.658213,-4.747441 -0.715566,-5.851838 -0.715566,-5.851838" />
      <path d="M 5.066992,-3.173955 C 2.443601,-3.416149 1.746678,-4.080125 1.202457,-4.413789" />
      <path d="M 9.485362,-3.761546 C 8.828451,-3.601296 7.690383,-2.93176 5.066992,-3.173955" />
      <path d="M 11.204141,-3.307952 C 11.204141,-3.307952 10.142272,-3.921795 9.485362,-3.761546" />
      <path d="M 12.365826,-3.552046 C 11.911919,-3.540881 11.204141,-3.307952 11.204141,-3.307952" />
      <path d="M 15.724023,-2.00929 C 14.229112,-3.130108 12.819733,-3.563211 12.365826,-3.552046" />
      <path d="M 17.512521,0.306718 C 17.506381,0.037763 17.218934,-0.888472 15.724023,-2.00929" />
      <path d="M 16.82006,0.908875 C 16.82006,0.908875 17.512561,0.578581 17.512561,0.310251" />
      <path d="M 17.512561,0.310251 C 17.512561,0.309072 17.512547,0.307895 17.512521,0.306718" />
      <path d="M 17.28575,1.843072 C 17.301392,1.788664 17.308378,1.735218 17.308378,1.683152" />
      <path d="M 17.308378,1.683152 C 17.308378,1.247831 16.82006,0.908875 16.82006,0.908875" />
      <path d="M 15.980833,3.058616 C 16.577328,2.257749 17.225147,2.053874 17.28575,1.843072" />
      <path d="M 12.227184,9.927661 C 11.595898,10.254885 10.015125,11.028933 9.449607,10.859115" />
      <path d="M 14.113825,8.400729 C 14.113841,8.401796 14.113849,8.402865 14.113849,8.403937" />
      <path d="M 14.113849,8.403937 C 14.113849,8.830683 12.856898,9.601253 12.227184,9.927661" />
      <path d="M 9.449607,10.859115 C 7.899145,10.393522 5.16494,9.526552 5.10663,9.137083" />
      <path d="M 12.223229,5.493665 C 12.785226,5.747654 13.609546,7.304727 14.113825,8.400729" />
      <path d="M 5.10663,9.137083 C 5.105828,9.131727 5.105431,9.126272 5.105431,9.12072" />
      <path d="M 5.105431,9.12072 C 5.105431,8.722578 7.146986,7.827007 8.249674,7.257699" />
      <path d="M 8.249674,7.257699 C 9.502002,6.611132 11.661241,5.239672 12.223229,5.493665" />
      <path d="M -9.171674,5.227229 C -9.237052,5.309207 -9.280232,5.399336 -9.280232,5.494402" />
      <path d="M -9.084155,3.713622 C -9.14598,3.75412 -9.171674,3.811776 -9.171674,3.879644" />
      <path d="M -7.514247,1.788223 C -7.916871,2.990101 -8.753849,3.497253 -9.084155,3.713622" />
      <line x1="-2.838428" y1="-7.613718" x2="-3.774491" y2="-7.128515" />
      <line x1="-2.098343" y1="-8.014984" x2="-2.838428" y2="-7.631365" />
      <path d="M -0.715566,-8.002065 C -1.315564,-8.451917 -2.098343,-8.014984 -2.098343,-8.014984" />
      <path d="M 1.202457,-6.564016 C 0.658213,-6.897668 -0.715566,-8.002065 -0.715566,-8.002065" />
      <path d="M 5.066992,-5.324182 C 2.443601,-5.566376 1.746678,-6.230352 1.202457,-6.564016" />
      <path d="M 9.485362,-5.911773 C 8.828451,-5.751523 7.690383,-5.081987 5.066992,-5.324182" />
      <path d="M 11.204141,-5.458179 C 11.204141,-5.458179 10.142272,-6.072022 9.485362,-5.911773" />
      <path d="M 12.365826,-5.702273 C 11.911919,-5.691108 11.204141,-5.458179 11.204141,-5.458179" />
      <path d="M 15.724023,-4.159517 C 14.229112,-5.280335 12.819733,-5.713438 12.365826,-5.702273" />
      <path d="M 17.512521,-1.843509 C 17.506381,-2.112464 17.218934,-3.038699 15.724023,-4.159517" />
      <path d="M 17.512521,-1.836426 C 17.512547,-1.83761 17.512561,-1.838794 17.512561,-1.839976" />
      <path d="M 17.512561,-1.839976 C 17.512561,-1.841155 17.512547,-1.842332 17.512521,-1.843509" />
      <path d="M 12.227184,7.777434 C 11.595898,8.104658 10.015125,8.878706 9.449607,8.708888" />
      <path d="M 13.426754,7.038471 C 13.02989,7.330571 12.547427,7.611439 12.227184,7.777434" />
      <path d="M 9.449607,8.708888 C 8.74078,8.496032 7.784545,8.199286 6.949694,7.902629" />
      <line x1="-9.556668" y1="-2.437292" x2="-9.556668" y2="-1.99878" />
      <line x1="-9.542751" y1="-2.00066" x2="-9.542751" y2="-1.988346" />
      <line x1="-2.834196" y1="-5.477966" x2="-2.834196" y2="-5.465717" />
      <line x1="-7.98057" y1="-2.798125" x2="-9.533066" y2="-1.993399" />
      <path d="M -7.827103,-2.935457 C -7.895976,-2.840411 -7.98057,-2.798125 -7.98057,-2.798125" />
      <path d="M -7.77377,-3.056437 C -7.77377,-3.056437 -7.781721,-2.998052 -7.827103,-2.935457" />
      <line x1="-7.773873" y1="-3.170854" x2="-7.77377" y2="-3.056437" />
      <path d="M -8.586632,-3.504918 Q -8.563958,-3.524567 -8.562682,-3.524591 Q -8.560073,-3.525943 -8.465405,-3.574994" />
      <path d="M -8.375225,-3.62172 C -8.076909,-3.77629 -7.492332,-4.079183 -7.143776,-4.259793" />
      <line x1="-5.914331" y1="-3.869187" x2="-6.664491" y2="-3.900446" />
      <line x1="-2.834196" y1="-5.465717" x2="-5.914331" y2="-3.869187" />
      <line x1="-2.838428" y1="-7.631365" x2="-2.838428" y2="-5.481138" />
      <line x1="-2.098343" y1="-5.864757" x2="-2.098343" y2="-8.014984" />
      <line x1="-0.715566" y1="-5.851838" x2="-0.715566" y2="-8.002065" />
      <line x1="11.204141" y1="-3.307952" x2="11.204141" y2="-5.458179" />
      <line x1="-2.834196" y1="-5.465717" x2="-3.585699" y2="-6.029161" />
      <line x1="-3.585699" y1="-6.98699" x2="-3.585699" y2="-6.029161" />
      <line x1="-2.838428" y1="-6.426719" x2="-3.585699" y2="-6.98699" />
      <line x1="-5.61193" y1="-8.505928" x2="-3.585699" y2="-6.98699" />
      <line x1="-5.61193" y1="-8.505928" x2="-7.368806" y2="-8.510838" />
      <line x1="-7.368806" y1="-8.510838" x2="-8.698038" y2="-9.507437" />
      <line x1="-8.698038" y1="-9.878942" x2="-10.723621" y2="-11.397635" />
      <line x1="-10.723621" y1="-11.397635" x2="-12.713042" y2="-11.403195" />
      <line x1="-12.713042" y1="-11.403195" x2="-14.101499" y2="-12.444199" />
      <line x1="-13.887011" y1="-14.140909" x2="-15.401606" y2="-15.276486" />
      <line x1="-15.401606" y1="-15.276486" x2="-17.888382" y2="-15.283436" />
      <line x1="-17.888382" y1="-15.283436" x2="-19.379037" y2="-16.401063" />
      <line x1="-19.341678" y1="-17.487567" x2="-20.421053" y2="-18.296836" />
      <line x1="-22.730575" y1="-18.991508" x2="-20.421053" y2="-18.859036" />
      <line x1="-24.313788" y1="-19.115339" x2="-22.730575" y2="-18.991508" />
      <path d="M -24.50903,-19.15657 C -24.425163,-19.117866 -24.310382,-19.115106 -24.313788,-19.115339" />
      <path d="M -24.50903,-19.15657 Q -24.546338,-19.173896 -24.566062,-19.189161" />
      <path d="M -24.566062,-19.189161 C -24.597869,-19.212998 -24.599474,-19.229728 -24.599229,-19.228366" />
      <line x1="-24.496061" y1="-19.151016" x2="-24.599229" y2="-19.228366" />
      <line x1="-24.669535" y1="-19.729552" x2="-24.599229" y2="-19.228366" />
      <line x1="-23.796336" y1="-19.074866" x2="-24.669535" y2="-19.729552" />
      <line x1="-25.330372" y1="-19.781242" x2="-24.669535" y2="-19.729552" />
      <line x1="-25.475572" y1="-20.398573" x2="-25.330372" y2="-19.781242" />
      <line x1="-23.700005" y1="-19.067332" x2="-25.475572" y2="-20.398573" />
      <line x1="-26.16587" y1="-20.452568" x2="-25.475572" y2="-20.398573" />
      <line x1="-26.204" y1="-20.432804" x2="-26.16587" y2="-20.452568" />
      <line x1="-26.261669" y1="-19.996322" x2="-26.204" y2="-20.432804" />
      <line x1="-26.545226" y1="-19.849343" x2="-26.261669" y2="-19.996322" />
      <line x1="-26.790868" y1="-18.345441" x2="-26.545226" y2="-19.849343" />
      <line x1="-26.80151" y1="-18.686878" x2="-26.790868" y2="-18.345441" />
      <line x1="-26.742344" y1="-18.642519" x2="-26.80151" y2="-18.686878" />
      <line x1="-26.876352" y1="-18.228669" x2="-26.80151" y2="-18.686878" />
      <path d="M -26.883279,-17.952299 C -26.873348,-18.102526 -26.876352,-18.234891 -26.876352,-18.228669" />
      <path d="M -26.883279,-17.952299 C -26.892982,-17.799521 -26.899866,-17.773 -26.899298,-17.777049" />
      <line x1="-27.033783" y1="-16.952129" x2="-26.899298" y2="-17.777049" />
      <line x1="-9.546983" y1="-2.003833" x2="-9.546983" y2="-2.430031" />
      <line x1="-9.533066" y1="-1.993399" x2="-9.546983" y2="-2.003833" />
      <line x1="-9.210891" y1="-2.178044" x2="-9.546983" y2="-2.003833" />
      <line x1="-10.233836" y1="-2.945003" x2="-9.210891" y2="-2.178044" />
      <line x1="-10.569928" y1="-2.770792" x2="-10.233836" y2="-2.945003" />
      <line x1="-10.569928" y1="-2.770792" x2="-27.033783" y2="-15.114662" />
      <line x1="-26.936894" y1="-15.707843" x2="-27.033783" y2="-15.114662" />
      <line x1="-26.936894" y1="-15.707843" x2="-25.077337" y2="-15.616525" />
      <line x1="-21.7205" y1="-13.099717" x2="-25.077337" y2="-15.616525" />
      <line x1="-21.7205" y1="-13.099717" x2="-21.459148" y2="-11.826755" />
      <line x1="-21.459148" y1="-11.826755" x2="-17.654291" y2="-8.974042" />
      <line x1="-17.654291" y1="-8.974042" x2="-15.694316" y2="-8.581551" />
      <line x1="-7.98057" y1="-2.798125" x2="-15.694316" y2="-8.581551" />
      <path d="M -15.340156,-8.568412 C -15.441238,-8.550888 -15.558148,-8.560766 -15.635401,-8.571684 C -15.67139,-8.57676 -15.696392,-8.581956 -15.694316,-8.581551" />
      <path d="M -15.340156,-8.568412 C -15.237875,-8.584915 -15.214943,-8.639073 -15.21708,-8.637101" />
      <line x1="-7.77377" y1="-3.056437" x2="-15.21708" y2="-8.637101" />
      <line x1="-15.21708" y1="-8.637101" x2="-15.217317" y2="-8.751619" />
      <line x1="-7.773873" y1="-3.170854" x2="-15.217317" y2="-8.751619" />
      <line x1="-15.217317" y1="-8.751619" x2="-17.21879" y2="-9.64501" />
      <path d="M -17.32996,-9.817639 C -17.373944,-9.770139 -17.335186,-9.71956 -17.29119,-9.687634" />
      <path d="M -17.29119,-9.687634 C -17.256496,-9.661465 -17.216474,-9.643926 -17.21879,-9.64501" />
      <path d="M -26.545226,-19.133646 C -26.477115,-19.17223 -26.432989,-19.167357 -26.406214,-19.146944" />
      <path d="M -26.406214,-19.146944 C -26.376053,-19.124751 -26.368507,-19.083545 -26.369011,-19.085439" />
      <path d="M -26.875877,-17.018876 C -26.872832,-17.067391 -26.86939,-17.110037 -26.865552,-17.146816 C -26.85994,-17.198849 -26.856369,-17.229346 -26.854838,-17.238305 C -26.854911,-17.237958 -26.85473,-17.239106 -26.854294,-17.241751 C -26.85287,-17.250467 -26.850923,-17.262385 -26.848453,-17.277505 C -26.845325,-17.29665 -26.842197,-17.315795 -26.83907,-17.33494 C -26.807119,-17.530515 -26.774556,-17.729841 -26.741381,-17.932917 C -26.71079,-18.120173 -26.680198,-18.30743 -26.649607,-18.494687 C -26.635036,-18.583883 -26.620464,-18.67308 -26.605893,-18.762277 C -26.585357,-18.887981 -26.563685,-19.020641 -26.545226,-19.133646" />
      <path d="M -26.875877,-17.018876 L -26.338428,-16.61592" />
      <path d="M -26.360136,-16.588065 L -26.338428,-16.61592" />
      <path d="M -21.502396,-12.945947 L -21.506086,-12.992844" />
      <path d="M -21.506086,-12.992844 L -17.302281,-9.841017" />
      <path d="M -17.32996,-9.817639 Q -17.317808,-9.831035 -17.302281,-9.841017" />
      <line x1="-26.324237" y1="-18.640453" x2="-26.369011" y2="-19.085439" />
      <line x1="-6.664491" y1="-3.900446" x2="-26.324237" y2="-18.640453" />
      <line x1="-26.16587" y1="-18.633854" x2="-26.324237" y2="-18.640453" />
      <line x1="-25.048352" y1="-18.21503" x2="-26.16587" y2="-18.633854" />
      <line x1="-5.914331" y1="-3.869187" x2="-25.048352" y2="-18.21503" />
      <line x1="-22.730575" y1="-18.033718" x2="-25.048352" y2="-18.21503" />
      <line x1="-20.421053" y1="-17.901219" x2="-22.730575" y2="-18.033718" />
      <line x1="-20.421053" y1="-17.901219" x2="-20.555079" y2="-17.439515" />
      <line x1="-20.555079" y1="-17.439515" x2="-19.341678" y2="-16.529761" />
      <line x1="-19.341678" y1="-16.529761" x2="-19.607372" y2="-15.61447" />
      <line x1="-19.607372" y1="-15.61447" x2="-17.888382" y2="-14.325648" />
      <line x1="-17.888382" y1="-14.325648" x2="-15.401606" y2="-14.318666" />
      <line x1="-15.401606" y1="-14.318666" x2="-13.887011" y2="-13.18309" />
      <line x1="-13.887011" y1="-13.18309" x2="-14.329834" y2="-11.657606" />
      <line x1="-14.329834" y1="-11.657606" x2="-12.713042" y2="-10.445407" />
      <line x1="-12.713042" y1="-10.445407" x2="-10.723621" y2="-10.439822" />
      <line x1="-10.723621" y1="-10.439822" x2="-8.698038" y2="-8.921129" />
      <line x1="-8.698038" y1="-8.921129" x2="-8.786603" y2="-8.616033" />
      <line x1="-8.786603" y1="-8.616033" x2="-7.368806" y2="-7.553032" />
      <line x1="-7.368806" y1="-7.553032" x2="-5.61193" y2="-7.548099" />
      <line x1="-3.585699" y1="-6.029161" x2="-5.61193" y2="-7.548099" />
      <line x1="-5.61193" y1="-7.548099" x2="-5.61193" y2="-8.505928" />
      <line x1="-7.368806" y1="-7.553032" x2="-7.368806" y2="-8.510838" />
      <line x1="-8.698038" y1="-8.921129" x2="-8.698038" y2="-9.878942" />
      <line x1="-10.723621" y1="-10.439822" x2="-10.723621" y2="-11.397635" />
      <line x1="-12.713042" y1="-10.445407" x2="-12.713042" y2="-11.403195" />
      <line x1="-13.887011" y1="-13.18309" x2="-13.887011" y2="-14.140909" />
      <line x1="-15.401606" y1="-14.318666" x2="-15.401606" y2="-15.276486" />
      <line x1="-17.888382" y1="-14.325648" x2="-17.888382" y2="-15.283436" />
      <line x1="-19.341678" y1="-16.529761" x2="-19.341678" y2="-17.487567" />
      <line x1="-20.421053" y1="-18.859036" x2="-20.421053" y2="-17.901219" />
      <line x1="-22.730575" y1="-18.033718" x2="-22.730575" y2="-18.991508" />
      <line x1="-26.16587" y1="-18.633854" x2="-26.16587" y2="-20.452568" />
      <line x1="-26.545226" y1="-19.133646" x2="-26.545226" y2="-19.849343" />
      <line x1="-26.936894" y1="-16.645309" x2="-26.875877" y2="-17.018876" />
      <line x1="-26.936894" y1="-16.645309" x2="-26.936894" y2="-15.707843" />
      <line x1="-27.033783" y1="-15.114662" x2="-27.033783" y2="-16.952129" />
      <path d="M -26.360136,-16.588065 C -26.394447,-16.533442 -26.364797,-16.489896 -26.329729,-16.464331" />
      <path d="M -26.329729,-16.464331 C -26.302118,-16.443541 -26.27112,-16.43273 -26.272948,-16.433416" />
      <line x1="-24.703238" y1="-15.863742" x2="-26.272948" y2="-16.433416" />
      <line x1="-24.703051" y1="-15.749263" x2="-24.703238" y2="-15.863742" />
      <path d="M -24.799578,-15.660667 C -24.717178,-15.695213 -24.701758,-15.752099 -24.703051,-15.749263" />
      <path d="M -24.799578,-15.660667 C -24.916861,-15.608753 -25.078938,-15.616016 -25.077337,-15.616525" />
      <line x1="-26.338428" y1="-16.61592" x2="-26.936894" y2="-16.645309" />
      <path d="M -21.767725,-13.387518 C -21.754246,-13.284102 -21.738657,-13.194638 -21.728356,-13.139912 C -21.723199,-13.113082 -21.72058,-13.099683 -21.7205,-13.099717" />
      <path d="M -21.767725,-13.387518 C -21.781686,-13.493524 -21.784511,-13.567226 -21.784136,-13.560789" />
      <line x1="-21.784105" y1="-13.675105" x2="-21.784136" y2="-13.560789" />
      <line x1="-21.517219" y1="-12.867782" x2="-21.784105" y2="-13.675105" />
      <path d="M -21.502396,-12.945947 C -21.49653,-12.861072 -21.501699,-12.843427 -21.507565,-12.848886" />
      <path d="M -21.507565,-12.848886 C -21.512192,-12.852198 -21.517528,-12.868667 -21.517219,-12.867782" />
      <line x1="-21.459148" y1="-12.764221" x2="-21.506086" y2="-12.992844" />
      <line x1="-21.459148" y1="-11.826755" x2="-21.459148" y2="-12.764221" />
      <line x1="-17.654291" y1="-9.911508" x2="-21.459148" y2="-12.764221" />
      <line x1="-17.654291" y1="-8.974042" x2="-17.654291" y2="-9.911508" />
      <line x1="-17.302281" y1="-9.841017" x2="-17.654291" y2="-9.911508" />
      <line x1="-21.784105" y1="-13.675105" x2="-24.703238" y2="-15.863742" />
      <line x1="-21.784136" y1="-13.560789" x2="-24.703051" y2="-15.749263" />
      <line x1="-9.084155" y1="5.863849" x2="-9.084155" y2="3.713622" />
      <line x1="-7.351132" y1="3.262903" x2="-7.351132" y2="2.30191" />
      <line x1="-10.364277" y1="-1.580161" x2="-10.364277" y2="-2.87739" />
      <line x1="1.202457" y1="-4.413789" x2="1.202457" y2="-6.564016" />
      <line x1="5.066992" y1="-3.173955" x2="5.066992" y2="-5.324182" />
      <line x1="9.485362" y1="-3.761546" x2="9.485362" y2="-5.911773" />
      <line x1="12.365826" y1="-3.552046" x2="12.365826" y2="-5.702273" />
      <line x1="15.724023" y1="-2.00929" x2="15.724023" y2="-4.159517" />
      <line x1="17.512521" y1="0.306718" x2="17.512521" y2="-1.843509" />
      <line x1="12.227184" y1="9.927661" x2="12.227184" y2="7.777434" />
      <line x1="9.449607" y1="10.859115" x2="9.449607" y2="8.708888" />
      <line x1="5.10663" y1="9.137083" x2="5.10663" y2="9.103659" />
      <line x1="-7.827103" y1="-2.935457" x2="-15.340156" y2="-8.568412" />
      <line x1="-16.924517" y1="-9.513656" x2="-17.32996" y2="-9.817639" />
      <line x1="-21.502396" y1="-12.945947" x2="-21.556459" y2="-12.986481" />
      <line x1="-26.042156" y1="-16.349658" x2="-26.360136" y2="-16.588065" />
      <line x1="-21.767725" y1="-13.387518" x2="-24.799578" y2="-15.660667" />
      <path d="M 16.98353,8.496207 L 16.98353,6.34598" />
      <path d="M -9.280232,7.644629 L -9.280232,5.494402" />
      <path d="M -9.171674,6.029871 L -9.171674,3.879644" />
      <path d="M -10.7024,-1.126603 L -10.7024,-2.870114" />
      <path d="M 17.512561,0.310251 L 17.512561,-1.839976" />
      <path d="M 17.308378,1.683152 L 17.308378,0.605474" />
      <path d="M -16.000722,-9.101305 L -21.679642,-13.359107" />
      <path d="M -25.317645,-16.086721 L -28.22243,-18.2646" />
    </g>
    <g fill="none" stroke="rgb(99,99,99)" stroke-width="0.041161491479560115" id="Hidden" stroke-dasharray="0.001046 0.124007">
      <line x1="13.882444" y1="11.30919" x2="13.882444" y2="9.158963" />
      <path d="M 13.882444,9.158963 C 13.882444,9.158963 16.505574,7.976059 16.873915,7.019188" />
      <path d="M 9.239088,10.562205 C 10.652245,10.796124 13.882444,9.158963 13.882444,9.158963" />
      <path d="M 16.873915,7.019188 C 16.950674,6.819786 16.98353,6.592755 16.98353,6.34598" />
      <path d="M 16.102126,2.904418 C 15.940218,2.376081 15.821161,1.891721 15.821161,1.505712" />
      <path d="M 15.821161,1.505712 C 15.821161,1.263345 15.868097,1.05975 15.980833,0.908389" />
      <path d="M 0.487013,8.939515 C 1.983163,8.719094 7.482204,10.271391 9.239088,10.562205" />
      <path d="M -1.668228,9.517524 C -1.356851,9.585384 -0.002208,9.011589 0.487013,8.939515" />
      <path d="M -3.056627,9.061607 C -2.823651,9.256368 -2.290983,9.381803 -1.668228,9.517524" />
      <path d="M -4.132692,9.376154 C -3.681063,9.442096 -3.056627,9.061607 -3.056627,9.061607" />
      <path d="M -7.459037,7.85728 C -5.803958,9.098185 -4.785085,9.280899 -4.132692,9.376154" />
      <path d="M -9.279387,5.51739 C -9.24973,5.919533 -9.114117,6.616374 -7.459037,7.85728" />
      <path d="M -8.548772,4.795502 C -8.548772,4.795502 -8.967971,4.971803 -9.171674,5.227229" />
      <path d="M -9.280232,5.494402 C -9.280232,5.502033 -9.279954,5.509697 -9.279387,5.51739" />
      <path d="M -9.171674,3.879644 C -9.171674,4.213802 -8.548772,4.795502 -8.548772,4.795502" />
      <path d="M -7.351132,1.112676 C -7.389851,1.359281 -7.445766,1.583801 -7.514247,1.788223" />
      <path d="M -8.213983,-1.14312 C -8.213983,-1.14312 -7.31046,-0.695611 -7.31046,0.613019" />
      <path d="M -7.31046,0.613019 C -7.31046,0.767366 -7.323029,0.933692 -7.351132,1.112676" />
      <line x1="-10.557794" y1="-2.900406" x2="-8.213983" y2="-1.14312" />
      <path d="M -10.364277,-3.730388 C -10.626414,-3.594511 -10.7024,-3.426253 -10.7024,-3.27683" />
      <path d="M -10.7024,-3.27683 C -10.7024,-3.070697 -10.557794,-2.900406 -10.557794,-2.900406" />
      <line x1="-9.556668" y1="-4.149007" x2="-10.364277" y2="-3.730388" />
      <line x1="-9.542751" y1="-4.138573" x2="-9.556668" y2="-4.149007" />
      <line x1="-2.824511" y1="-7.620931" x2="-2.838428" y2="-7.613718" />
      <line x1="-3.774491" y1="-7.128515" x2="-9.542751" y2="-4.138573" />
      <line x1="-2.824511" y1="-7.620931" x2="-2.838428" y2="-7.631365" />
      <path d="M 16.82006,-1.241352 C 16.82006,-1.241352 17.506472,-1.568742 17.512521,-1.836426" />
      <path d="M 17.28575,-0.307155 C 17.301392,-0.361563 17.308378,-0.415008 17.308378,-0.467075" />
      <path d="M 17.308378,-0.467075 C 17.308378,-0.902396 16.82006,-1.241352 16.82006,-1.241352" />
      <path d="M 15.980833,0.908389 C 16.577328,0.107522 17.225147,-0.096353 17.28575,-0.307155" />
      <path d="M 14.113825,6.250502 C 14.113841,6.251569 14.113849,6.252638 14.113849,6.25371" />
      <path d="M 14.113849,6.25371 C 14.113849,6.463433 13.81027,6.756197 13.426754,7.038471" />
      <path d="M 6.949694,7.902629 C 5.958422,7.550388 5.138283,7.198271 5.10663,6.986856" />
      <path d="M 12.223229,3.343438 C 12.785226,3.597427 13.609546,5.1545 14.113825,6.250502" />
      <path d="M 5.10663,6.986856 C 5.105828,6.9815 5.105431,6.976045 5.105431,6.970493" />
      <path d="M 5.105431,6.970493 C 5.105431,6.572351 7.146986,5.67678 8.249674,5.107472" />
      <path d="M 8.249674,5.107472 C 9.502002,4.460905 11.661241,3.089445 12.223229,3.343438" />
      <line x1="-3.056627" y1="11.211834" x2="-3.056627" y2="9.061607" />
      <line x1="-8.548772" y1="6.945729" x2="-8.548772" y2="4.795502" />
      <line x1="-8.213983" y1="1.007107" x2="-8.213983" y2="-1.14312" />
      <line x1="-10.557794" y1="-0.750179" x2="-10.557794" y2="-2.900406" />
      <line x1="-9.556668" y1="-4.149007" x2="-9.556668" y2="-2.437292" />
      <line x1="-9.542751" y1="-4.138573" x2="-9.542751" y2="-2.00066" />
      <line x1="-2.824511" y1="-7.620931" x2="-2.824511" y2="-5.470704" />
      <line x1="-2.834196" y1="-6.423546" x2="-2.834196" y2="-5.477966" />
      <line x1="-5.525334" y1="-5.028587" x2="-2.834196" y2="-6.423546" />
      <path d="M -5.628727,-5.000954 C -5.583668,-4.992252 -5.525334,-5.028587 -5.525334,-5.028587" />
      <path d="M -5.676492,-5.040936 C -5.676492,-5.040936 -5.675174,-5.025609 -5.658929,-5.013429" />
      <path d="M -5.658929,-5.013429 C -5.651963,-5.008207 -5.642253,-5.003563 -5.628727,-5.000954" />
      <line x1="-5.713724" y1="-5.517324" x2="-5.676492" y2="-5.040936" />
      <line x1="-6.063677" y1="-5.335927" x2="-5.713724" y2="-5.517324" />
      <line x1="-6.14057" y1="-5.902044" x2="-6.063677" y2="-5.335927" />
      <line x1="-6.544255" y1="-5.692796" x2="-6.14057" y2="-5.902044" />
      <line x1="-6.601924" y1="-5.256315" x2="-6.544255" y2="-5.692796" />
      <line x1="-8.216664" y1="-4.419325" x2="-6.601924" y2="-5.256315" />
      <line x1="-8.274333" y1="-4.796021" x2="-8.216664" y2="-4.419325" />
      <line x1="-8.679919" y1="-4.585788" x2="-8.274333" y2="-4.796021" />
      <path d="M -8.717457,-4.33237 C -8.663356,-4.454288 -8.679919,-4.585788 -8.679919,-4.585788" />
      <path d="M -8.80427,-4.210197 C -8.80427,-4.210197 -8.77156,-4.21042 -8.717457,-4.33237" />
      <line x1="-9.533066" y1="-3.830866" x2="-8.80427" y2="-4.210197" />
      <line x1="-9.533066" y1="-1.993399" x2="-9.533066" y2="-3.830866" />
      <line x1="-8.641167" y1="-3.213887" x2="-7.773873" y2="-3.170854" />
      <path d="M -8.68934,-3.339285 C -8.708538,-3.271068 -8.691467,-3.239943 -8.67254,-3.225752" />
      <path d="M -8.67254,-3.225752 C -8.657444,-3.214433 -8.641167,-3.213887 -8.641167,-3.213887" />
      <path d="M -8.68934,-3.339285 C -8.666021,-3.422144 -8.616372,-3.477643 -8.586632,-3.504918" />
      <path d="M -8.465405,-3.574994 Q -8.426491,-3.595157 -8.375225,-3.62172" />
      <path d="M -7.143776,-4.259793 C -7.005349,-4.331521 -6.904148,-4.383962 -6.872889,-4.400165 C -6.810146,-4.432687 -6.770798,-4.425178 -6.746469,-4.406937" />
      <path d="M -6.746469,-4.406937 C -6.716391,-4.384386 -6.709266,-4.345432 -6.709266,-4.345432" />
      <line x1="-6.664491" y1="-3.900446" x2="-6.709266" y2="-4.345432" />
      <line x1="16.82006" y1="0.908875" x2="16.82006" y2="-1.241352" />
      <line x1="14.113825" y1="8.400729" x2="14.113825" y2="6.250502" />
      <line x1="-2.834196" y1="-6.423546" x2="-2.838428" y2="-6.426719" />
      <line x1="-8.698038" y1="-9.507437" x2="-8.786603" y2="-9.573839" />
      <line x1="-8.786603" y1="-9.573839" x2="-8.698038" y2="-9.878942" />
      <line x1="-14.101499" y1="-12.444199" x2="-14.329834" y2="-12.615394" />
      <line x1="-14.329834" y1="-12.615394" x2="-13.887011" y2="-14.140909" />
      <line x1="-19.379037" y1="-16.401063" x2="-19.607372" y2="-16.572258" />
      <line x1="-19.607372" y1="-16.572258" x2="-19.341678" y2="-17.487567" />
      <line x1="-20.421053" y1="-18.296836" x2="-20.555079" y2="-18.397322" />
      <line x1="-20.555079" y1="-18.397322" x2="-20.421053" y2="-18.859036" />
      <line x1="-5.525334" y1="-5.028587" x2="-24.313788" y2="-19.115339" />
      <line x1="-5.676492" y1="-5.040936" x2="-24.496061" y2="-19.151016" />
      <line x1="-5.713724" y1="-5.517324" x2="-23.796336" y2="-19.074866" />
      <line x1="-6.063677" y1="-5.335927" x2="-25.330372" y2="-19.781242" />
      <line x1="-6.14057" y1="-5.902044" x2="-23.700005" y2="-19.067332" />
      <line x1="-6.544255" y1="-5.692796" x2="-26.204" y2="-20.432804" />
      <line x1="-6.601924" y1="-5.256315" x2="-26.261669" y2="-19.996322" />
      <line x1="-8.216664" y1="-4.419325" x2="-26.790868" y2="-18.345441" />
      <line x1="-8.274333" y1="-4.796021" x2="-26.742344" y2="-18.642519" />
      <line x1="-8.679919" y1="-4.585788" x2="-26.876352" y2="-18.228669" />
      <line x1="-8.80427" y1="-4.210197" x2="-26.899298" y2="-17.777049" />
      <line x1="-10.569928" y1="-4.60826" x2="-27.033783" y2="-16.952129" />
      <line x1="-10.233836" y1="-4.783192" x2="-10.569928" y2="-4.60826" />
      <line x1="-9.210891" y1="-4.016233" x2="-10.233836" y2="-4.783192" />
      <line x1="-9.546983" y1="-3.8413" x2="-9.210891" y2="-4.016233" />
      <line x1="-9.533066" y1="-3.830866" x2="-9.546983" y2="-3.8413" />
      <line x1="-9.546983" y1="-2.430031" x2="-9.546983" y2="-3.8413" />
      <line x1="-8.641167" y1="-3.213887" x2="-17.21879" y2="-9.64501" />
      <line x1="-6.709266" y1="-4.345432" x2="-26.369011" y2="-19.085439" />
      <line x1="-8.786603" y1="-8.616033" x2="-8.786603" y2="-9.573839" />
      <line x1="-14.329834" y1="-11.657606" x2="-14.329834" y2="-12.615394" />
      <line x1="-19.607372" y1="-15.61447" x2="-19.607372" y2="-16.572258" />
      <line x1="-20.555079" y1="-17.439515" x2="-20.555079" y2="-18.397322" />
      <line x1="-10.569928" y1="-4.60826" x2="-10.569928" y2="-2.770792" />
      <line x1="-10.233836" y1="-2.945003" x2="-10.233836" y2="-4.783192" />
      <line x1="-9.210891" y1="-2.178044" x2="-9.210891" y2="-4.016233" />
      <line x1="-21.517219" y1="-12.867782" x2="-26.272948" y2="-16.433416" />
      <path d="M 15.821161,3.655939 L 15.821161,1.505712" />
      <path d="M -7.31046,2.763246 L -7.31046,0.613019" />
      <path d="M -10.7024,-2.870114 L -10.7024,-3.27683" />
      <path d="M 17.308378,0.605474 L 17.308378,-0.467075" />
      <path d="M 14.113849,8.403937 L 14.113849,6.25371" />
      <path d="M 5.105431,9.12072 L 5.105431,6.970493" />
      <path d="M -5.658929,-5.013429 L -24.566062,-19.189161" />
      <path d="M -8.67254,-3.225752 L -17.29119,-9.687634" />
      <path d="M -6.746469,-4.406937 L -26.406214,-19.146944" />
      <path d="M -8.562682,-3.524591 L -16.000722,-9.101305" />
      <path d="M -21.679642,-13.359107 L -25.317645,-16.086721" />
      <path d="M -21.507565,-12.848886 L -26.329729,-16.464331" />
      <line x1="16.873915" y1="9.169415" x2="16.873915" y2="7.019188" />
      <line x1="9.239088" y1="12.712432" x2="9.239088" y2="10.562205" />
      <line x1="15.980833" y1="3.058616" x2="15.980833" y2="0.908389" />
      <line x1="0.487013" y1="11.089742" x2="0.487013" y2="8.939515" />
      <line x1="17.28575" y1="1.843072" x2="17.28575" y2="-0.307155" />
      <line x1="-1.668228" y1="11.66775" x2="-1.668228" y2="9.517524" />
      <line x1="-4.132692" y1="11.526381" x2="-4.132692" y2="9.376154" />
      <line x1="-7.459037" y1="10.007507" x2="-7.459037" y2="7.85728" />
      <line x1="-9.279387" y1="7.667617" x2="-9.279387" y2="5.51739" />
      <line x1="-7.351132" y1="2.30191" x2="-7.351132" y2="1.112676" />
      <line x1="-10.364277" y1="-2.87739" x2="-10.364277" y2="-3.730388" />
      <line x1="5.10663" y1="9.103659" x2="5.10663" y2="6.986856" />
      <line x1="12.223229" y1="5.493665" x2="12.223229" y2="3.343438" />
      <line x1="8.249674" y1="7.257699" x2="8.249674" y2="5.107472" />
      <line x1="-5.628727" y1="-5.000954" x2="-24.50903" y2="-19.15657" />
      <line x1="-8.717457" y1="-4.33237" x2="-26.883279" y2="-17.952299" />
      <line x1="-8.68934" y1="-3.339285" x2="-16.924517" y2="-9.513656" />
      <line x1="-21.556459" y1="-12.986481" x2="-26.042156" y2="-16.349658" />
    </g>
  </g>
</svg>