<?xml version="1.0" encoding="UTF-8" standalone="no"?>
<!-- Created with Inkscape (http://www.inkscape.org/) -->

<svg
   width="210mm"
   height="297mm"
   viewBox="0 0 210 297"
   version="1.1"
   id="svg1"
   xml:space="preserve"
   inkscape:version="1.4.2 (f4327f4, 2025-05-13)"
   sodipodi:docname="Everest.svg"
   xmlns:inkscape="http://www.inkscape.org/namespaces/inkscape"
   xmlns:sodipodi="http://sodipodi.sourceforge.net/DTD/sodipodi-0.dtd"
   xmlns="http://www.w3.org/2000/svg"
   xmlns:svg="http://www.w3.org/2000/svg"><sodipodi:namedview
     id="namedview1"
     pagecolor="#ffffff"
     bordercolor="#000000"
     borderopacity="0.25"
     inkscape:showpageshadow="2"
     inkscape:pageopacity="0.0"
     inkscape:pagecheckerboard="0"
     inkscape:deskcolor="#d1d1d1"
     inkscape:document-units="mm"
     inkscape:zoom="11.313709"
     inkscape:cx="632.02088"
     inkscape:cy="137.57646"
     inkscape:window-width="2560"
     inkscape:window-height="1369"
     inkscape:window-x="-8"
     inkscape:window-y="482"
     inkscape:window-maximized="1"
     inkscape:current-layer="layer1"
     showguides="true" /><defs
     id="defs1" /><g
     inkscape:label="Layer 1"
     inkscape:groupmode="layer"
     id="layer1"><path
       id="profile_e29_ctrl"
       style="display:inline;opacity:1;fill:#000000;stroke-width:1;paint-order:fill markers stroke"
       d="m 8.8347879e-5,80.075 c 0,0 0.06114600212,-5.244587 3.999999952121,-6.3 3.9388546,-1.055413 4.9999996,-4.989701 4.9999996,-4.989701 h 1.0000001 c 0,0 2.132391,-3.785299 5.25,-3.785299 3.117609,0 5.25,3.785 5.25,3.785 h 1 c 0,0 0.616164,1.688008 2,3.215 1.383836,1.526992 4,1.7 4,1.7 h 3 c 0.938464,0 0.9,1.05 0.9,1.05 v 0.975 l 25.792891,0.0015 2.407605,2.407605 h 1.467611 l 2.071708,2.072225 v 0.787032 L 59.79127,84.438 H 33.000088 V 84 h -1.6 v 1.5 c 0,0.811215 -0.9,1 -0.9,1 h -3.66598 c 0,0 -1.411814,-0.29469 -3.33402,1.65 -1.922206,1.944686 -2,3.215 -2,3.215 h -1 c 0,0 -1.798362,3.785 -5.25,3.785 -3.451639,0 -5.25,-3.785 -5.25,-3.785 -0.3891741,0.02058 -1.0000001,0 -1.0000001,0 0,0 -0.926733,-3.722382 -4.9999996,-4.99 -4.07326665,-1.267618 -3.999999952121,-6.3 -3.999999952121,-6.3 z m 2.249999952121,0 c 0,1.642005 1.1319593,4 2.7499996,4 1.618041,0 2.75,-2.381959 2.75,-4 0,-1.618041 -1.131959,-4 -2.75,-4 -1.6180403,0 -2.7499996,2.357995 -2.7499996,4 z m 20.3263997,3.259793 c 3.06e-4,0.341211 0.100765,0.674503 0.483175,0.685747 0.38241,0.01124 5.477701,0 5.477701,0 l 0.562239,-1.518254 c 0,0 0.140861,-0.693688 -0.410261,-0.929884 -0.551119,-0.236194 -4.763582,-1.780545 -4.763582,-1.780545 0,0 -1.023526,-0.24757 -1.102258,0.56224 0,0 -0.247526,2.409452 -0.247014,2.980696 z"
       sodipodi:nodetypes="csccsccscscccccccccccscczccscczcsaaasszccsccs"
       inkscape:label="#profile_e29_ctrl" /><path
       id="profile_e29_6pin"
       style="opacity:1;fill:#000000;stroke-width:1;paint-order:fill markers stroke"
       d="m 8.8347885e-5,49.074999 c 0,0 0.06114600212,-5.244586 3.999999852115,-6.299999 3.9388545,-1.055413 5.0000002,-4.989701 5.0000002,-4.989701 h 1.0000006 c 0,0 2.132391,-3.785299 5.25,-3.785299 3.117609,0 5.25,3.785 5.25,3.785 h 1 c 0,0 0.616164,1.688008 2,3.215 1.383836,1.526992 4,1.7 4,1.7 h 3 c 0.938464,0 0.9,1.05 0.9,1.05 v 0.974999 l 25.792891,0.0015 2.407605,2.407605 2.549415,2.365895 v 0.493362 l -3.4,3.444638 H 33.000089 v -0.438 h -1.6 v 1.5 c 0,0.811215 -0.9,1 -0.9,1 h -3.66598 c 0,0 -1.411814,-0.29469 -3.33402,1.65 -1.922206,1.944686 -2,3.215 -2,3.215 h -1 c 0,0 -1.798362,3.785 -5.25,3.785 -3.451639,0 -5.25,-3.785 -5.25,-3.785 -0.3891754,0.02058 -1.0000006,0 -1.0000006,0 0,0 -0.9267335,-3.722382 -5.0000002,-4.99 -4.07326655,-1.267618 -3.999999852115,-6.3 -3.999999852115,-6.3 z m 2.249999952115,0 c 0,1.642005 1.1319592,4 2.7499999,4 1.6180407,0 2.75,-2.381959 2.75,-4 0,-1.618041 -1.1319593,-4 -2.75,-4 -1.6180407,0 -2.7499999,2.357995 -2.7499999,4 z m 20.3264007,3.259793 c 3.06e-4,0.341211 0.100765,0.674503 0.483175,0.685747 0.38241,0.01124 5.477701,0 5.477701,0 l 0.562239,-1.518254 c 0,0 0.140861,-0.693688 -0.410261,-0.929884 -0.551119,-0.236194 -4.763582,-1.780545 -4.763582,-1.780545 0,0 -1.023526,-0.24757 -1.102258,0.56224 0,0 -0.247526,2.409452 -0.247014,2.980696 z"
       sodipodi:nodetypes="csccsccscsccccccccccscczccscczcsaaasszccsccs"
       inkscape:label="#profile_e29_6pin" /><path
       id="profile_e_6pin"
       style="opacity:1;fill:#000000;stroke-width:1;paint-order:fill markers stroke"
       d="m 0.02174801,111.075 c 0,0 -0.21804498,-3.23013 0.72669235,-4.49469 C 2.3516077,104.43441 8.0757586,102.6482 8.8566597,101 c 0.6064488,-1.28 0.4437375,-1.98721 0.665,-2.25 0.5345833,-0.63492 1.4500003,-0.6 1.4500003,-0.6 0,0 -0.03566,-0.87889 0.3,-1.15 0.335662,-0.27111 1.661884,-1 4.00009,-1 2.338206,0 3.77348,0.63953 4.04991,1 0.27643,0.36047 0.44164,1.14358 0.44164,1.14358 0,0 1.436027,0.18696 1.65836,0.85642 0.222333,0.66946 0.124121,2.2312 2.10009,4 1.975969,1.7688 3.240507,1.62373 4,1.7 0.759493,0.0763 3,0 3,0 0.938464,0 0.9,1.05 0.9,1.05 v 0.975 l 25.792891,0.002 2.407605,2.4076 2.527754,2.3659 v 0.49336 l -3.378339,3.44464 H 33.02175 V 115 h -1.6 v 1.5 c 0,0.81121 -0.9,1 -0.9,1 h -3.66598 c 0,0 -1.411814,-0.29469 -3.33402,1.65 -1.922206,1.94468 -2.034919,3.44318 -2.10009,4 -0.06175,0.52764 -1.676714,0.69787 -1.676714,0.69787 0,0 0.09169,0.91251 -0.423286,1.30213 -0.514976,0.38962 -1.461182,1 -4.04991,1 -2.588728,0 -3.465498,-0.59605 -4.00009,-1 -0.370079,-0.27964 -0.3,-1.15 -0.3,-1.15 -0.389175,0.0206 -0.884446,-0.26034 -1.4500003,-0.6 -0.2827769,-0.16983 -0.4411197,-1.79991 -0.665,-2.25 -0.6846754,-1.37648 -6.1150812,-4.01284 -7.5970273,-5.0655 -1.19200948,-0.84671 -1.23788439,-5.0095 -1.23788439,-5.0095 z m 2.76229129,-0.14408 c 0,0.821 0.055918,2.83033 0.6269354,3.09101 1.5655489,0.71469 4.3829813,1.92795 4.900644,1.57336 0.5176626,-0.35458 0.3114422,-2.89248 0.3086117,-4.34419 -0.00317,-1.62604 0.3079405,-4.69285 -0.3646436,-4.86449 -0.6725841,-0.17165 -3.1201442,0.79139 -4.7943901,1.52766 -0.5295949,0.4321 -0.6771574,2.19564 -0.6771574,3.01665 z"
       sodipodi:nodetypes="csssczzzczzzsccccccccccscczsczzscssscsszazcs"
       inkscape:label="#profile_e_6pin" /><path
       id="profile_e_ctrl"
       style="display:inline;opacity:1;fill:#000000;stroke-width:1;paint-order:fill markers stroke"
       d="m 0.02174801,142.575 c 0,0 -0.218045,-3.23013 0.7266924,-4.49469 C 2.351608,135.93441 8.075759,134.1482 8.85666,132.5 c 0.606448,-1.28 0.443737,-1.98721 0.665,-2.25 0.534583,-0.63492 1.45,-0.6 1.45,-0.6 0,0 -0.03566,-0.87889 0.3,-1.15 0.335662,-0.27111 1.661884,-1 4.00009,-1 2.338206,0 3.77348,0.63953 4.04991,1 0.27643,0.36047 0.44164,1.14358 0.44164,1.14358 0,0 1.436027,0.18696 1.65836,0.85642 0.222333,0.66946 0.124121,2.2312 2.10009,4 1.975969,1.7688 3.240507,1.62373 4,1.7 0.759493,0.0763 3,0 3,0 0.938464,0 0.9,1.05 0.9,1.05 v 0.975 l 25.792891,0.001 2.385359,2.4076 1.55,0.006 1.99,2.1102 V 143.5 l -3.39,3.43805 H 33.02175 v -0.438 h -1.6 v 1.5 c 0,0.81121 -0.9,1 -0.9,1 h -3.66598 c 0,0 -1.411814,-0.29469 -3.33402,1.65 -1.922206,1.94468 -2.034919,3.44318 -2.10009,4 -0.06175,0.52763 -1.676714,0.69787 -1.676714,0.69787 0,0 0.09169,0.91251 -0.423286,1.30213 -0.514976,0.38962 -1.461182,1 -4.04991,1 -2.588728,0 -3.465498,-0.59605 -4.00009,-1 -0.370079,-0.27964 -0.3,-1.15 -0.3,-1.15 -0.389175,0.0206 -0.884446,-0.26034 -1.45,-0.6 C 9.238883,154.73017 9.08054,153.10009 8.85666,152.65 8.171984,151.27352 2.741578,148.63716 1.2596324,147.5845 0.06762291,146.73779 0.02174801,142.575 0.02174801,142.575 Z M 2.784039,142.43092 c 0,0.821 0.05592,2.83033 0.626936,3.09101 1.565549,0.71469 4.382981,1.92795 4.900644,1.57336 0.517662,-0.35458 0.311442,-2.89248 0.308611,-4.34419 -0.0032,-1.62604 0.307941,-4.69285 -0.364643,-4.86449 -0.672584,-0.17165 -3.120144,0.79139 -4.79439,1.52766 -0.529595,0.4321 -0.677158,2.19564 -0.677158,3.01665 z"
       sodipodi:nodetypes="csssczzzczzzscccccccccccscczsczzscssscsszazcs"
       inkscape:label="#profile_e_ctrl" /><path
       style="display:inline;opacity:1;fill:#800000;stroke-width:1.07087;paint-order:fill markers stroke"
       d="m 122.40893,33.003457 h 1.225 l -5e-5,4.005772 -0.53728,0.975598 -0.59879,0.05823 c 0,0 -0.17847,0.03032 -0.17847,0.212795 0,0.182475 -4.1e-4,2.197608 -4.1e-4,2.197608 0,0 0.0191,0.119846 0.15303,0.164721 0.13395,0.04488 0.19231,-0.06265 0.19231,-0.06265 l 0.62999,-1.127932 0.1464,-1.34e-4 c 0,0 0.0694,0.01034 0.11937,0.06936 0.0759,0.08957 0.0739,0.199587 0.0739,0.199587 v 2.01905 h -2.35 l -0.002,-0.947813 c 0,0 0.0214,-0.04254 -0.0987,-0.112901 -0.12006,-0.07036 -0.29922,-0.04882 -0.29922,-0.04882 v -0.496769 l 0.52,-0.08231 v -0.448385 l -0.52,-0.075 v -0.5 l 0.52,-0.075 v -0.45 l -0.52,-0.075 v -1.243096 c 0,0 0.0839,-0.371145 0.28436,-0.355028 l 1.12459,-0.10542 c 0,0 0.0418,-0.0035 0.0828,-0.06212 0.041,-0.0586 0.0332,-0.134464 0.0332,-0.134464 z"
       id="keyway_c124"
       sodipodi:nodetypes="ccccczczcccscccczccccccccccsczcc"
       inkscape:label="#keyway_c124" /><path
       style="display:inline;opacity:1;fill:#800000;stroke-width:1.07087;paint-order:fill markers stroke"
       d="m 122.40892,22.322433 h 1.225 l -5e-5,4.005772 -0.53728,0.975598 -0.59879,0.05823 c 0,0 -0.17847,0.03032 -0.17847,0.212795 0,0.182475 -4.1e-4,2.197607 -4.1e-4,2.197607 0,0 0.0191,0.119846 0.15303,0.164721 0.13395,0.04488 0.19231,-0.06265 0.19231,-0.06265 l 0.62999,-1.127932 0.14641,-1.34e-4 c 0,0 0.0694,0.01034 0.11936,0.06936 0.0759,0.08957 0.0739,0.199587 0.0739,0.199587 v 2.01905 h -2.35 l -0.002,-0.947813 c 0,0 0.0213,-0.04254 -0.0987,-0.112901 -0.12006,-0.07036 -0.29921,-0.04882 -0.29921,-0.04882 v -0.496769 l 0.52,-0.08231 v -0.448385 -0.649999 -0.45 l -0.52,-0.075 v -1.243096 c 0,0 0.0839,-0.371145 0.28435,-0.355028 l 1.12459,-0.10542 c 0,0 0.0418,-0.0035 0.0828,-0.06212 0.041,-0.0586 0.0332,-0.134464 0.0332,-0.134464 z"
       id="keyway_c120"
       sodipodi:nodetypes="ccccczczcccscccczccccccccsczcc"
       inkscape:label="#keyway_c120" /><path
       style="display:inline;opacity:1;fill:#800000;stroke-width:1.07087;paint-order:fill markers stroke"
       d="m 115.12756,33.003457 h 1.225 l -5e-5,4.005772 -0.53728,0.975598 -0.59879,0.05823 c 0,0 -0.17847,0.03032 -0.17847,0.212795 0,0.182475 -4.1e-4,2.197608 -4.1e-4,2.197608 0,0 0.0191,0.119846 0.15303,0.164721 0.13395,0.04488 0.19231,-0.06265 0.19231,-0.06265 l 0.62999,-1.127932 0.1464,-1.34e-4 c 0,0 0.0694,0.01034 0.11937,0.06936 0.0759,0.08957 0.0739,0.199587 0.0739,0.199587 v 2.01905 h -2.35 l -0.002,-0.947813 c 0,0 0.0214,-0.04254 -0.0987,-0.112901 -0.12006,-0.07036 -0.29922,-0.04882 -0.29922,-0.04882 v -1.077471 l 0.52,-0.075 v -0.45 l -0.52,-0.075 v -0.5 l 0.52,-0.075 v -0.45 l -0.52,-0.075 v -0.668089 c 0,0 0.0839,-0.371145 0.28436,-0.355028 l 1.12459,-0.10542 c 0,0 0.0418,-0.0035 0.0828,-0.06212 0.041,-0.0586 0.0332,-0.134464 0.0332,-0.134464 z"
       id="keyway_c135"
       sodipodi:nodetypes="ccccczczcccscccczccccccccccsczcc"
       inkscape:label="#keyway_c135" /><path
       style="display:inline;opacity:1;fill:#800000;stroke-width:1.07087;paint-order:fill markers stroke"
       d="m 118.76825,33.003457 h 1.225 l -5e-5,4.005772 -0.53728,0.975598 -0.59879,0.05823 c 0,0 -0.17847,0.03032 -0.17847,0.212795 0,0.182475 -4.1e-4,2.197608 -4.1e-4,2.197608 0,0 0.0191,0.119846 0.15303,0.164721 0.13395,0.04488 0.19231,-0.06265 0.19231,-0.06265 l 0.62999,-1.127932 0.1464,-1.34e-4 c 0,0 0.0694,0.01034 0.11937,0.06936 0.0759,0.08957 0.0739,0.199587 0.0739,0.199587 v 2.01905 h -2.35 l -0.002,-0.947813 c 0,0 0.0214,-0.04254 -0.0987,-0.112901 -0.12006,-0.07036 -0.29922,-0.04882 -0.29922,-0.04882 v -1.077471 l 0.52,-0.075 v -0.45 -0.575 l -0.52,-0.05 v -1.218089 c 0,0 0.0839,-0.371145 0.28436,-0.355028 l 1.12459,-0.10542 c 0,0 0.0418,-0.0035 0.0828,-0.06212 0.041,-0.0586 0.0332,-0.134464 0.0332,-0.134464 z"
       id="keyway_c125"
       sodipodi:nodetypes="ccccczczcccscccczcccccccsczcc"
       inkscape:label="#keyway_c125" /><path
       style="display:inline;opacity:1;fill:#800000;stroke-width:1.07087;paint-order:fill markers stroke"
       d="m 115.12756,22.322433 h 1.225 l -5e-5,4.005772 -0.53728,0.975598 -0.59879,0.05823 c 0,0 -0.17847,0.03032 -0.17847,0.212795 0,0.182475 -4.1e-4,2.197608 -4.1e-4,2.197608 0,0 0.0191,0.119846 0.15303,0.164721 0.13395,0.04488 0.19231,-0.06265 0.19231,-0.06265 l 0.62999,-1.127933 0.1464,-1.33e-4 c 0,0 0.0694,0.01034 0.11937,0.06936 0.0759,0.08957 0.0739,0.199587 0.0739,0.199587 v 2.01905 h -2.35 l -0.002,-0.947813 c 0,0 0.0214,-0.04254 -0.0987,-0.112901 -0.12006,-0.07036 -0.29922,-0.04882 -0.29922,-0.04882 v -1.077471 l 0.52,-0.075 v -0.45 -0.65 -0.45 l -0.52,-0.075 v -0.668089 c 0,0 0.0839,-0.371145 0.28436,-0.355028 l 1.12459,-0.10542 c 0,0 0.0418,-0.0035 0.0828,-0.06212 0.041,-0.0586 0.0332,-0.134464 0.0332,-0.134464 z"
       id="keyway_c150"
       sodipodi:nodetypes="ccccczczcccscccczccccccccsczcc"
       inkscape:label="#keyway_c150" /><path
       style="display:inline;opacity:1;fill:#800000;stroke-width:1.07087;paint-order:fill markers stroke"
       d="m 118.76825,11.069169 h 1.225 l -5e-5,4.005772 -0.53728,0.975598 -0.59879,0.05823 c 0,0 -0.17847,0.03032 -0.17847,0.212795 0,0.182475 -4.1e-4,2.197608 -4.1e-4,2.197608 0,0 0.0191,0.119846 0.15303,0.164721 0.13395,0.04488 0.19231,-0.06265 0.19231,-0.06265 l 0.62999,-1.127932 0.1464,-1.34e-4 c 0,0 0.0694,0.01034 0.11937,0.06936 0.0759,0.08957 0.0739,0.199587 0.0739,0.199587 v 2.01905 h -2.35 l -0.002,-0.947813 c 0,0 0.0214,-0.04254 -0.0987,-0.112901 -0.12006,-0.07036 -0.29922,-0.04882 -0.29922,-0.04882 v -0.502471 l 0.52,-0.075 v -1.025 -0.65 -0.45 l -0.52,-0.075 V 15.22608 c 0,0 0.0839,-0.371145 0.28436,-0.355028 l 1.12459,-0.10542 c 0,0 0.0418,-0.0035 0.0828,-0.06212 0.041,-0.0586 0.0332,-0.134464 0.0332,-0.134464 z"
       id="keyway_c100"
       sodipodi:nodetypes="ccccczczcccscccczccccccccsczcc"
       inkscape:label="#keyway_c100" /><path
       style="display:inline;opacity:1;fill:#800000;stroke-width:1.07087;paint-order:fill markers stroke"
       d="m 111.48688,33.003457 h 1.225 l -5e-5,4.005772 -0.53728,0.975598 -0.59879,0.05823 c 0,0 -0.17847,0.03032 -0.17847,0.212795 0,0.182475 -4.1e-4,2.197608 -4.1e-4,2.197608 0,0 0.0191,0.119846 0.15303,0.164721 0.13395,0.04488 0.19231,-0.06265 0.19231,-0.06265 l 0.62999,-1.127932 0.1464,-1.34e-4 c 0,0 0.0694,0.01034 0.11937,0.06936 0.0759,0.08957 0.0739,0.199587 0.0739,0.199587 v 2.01905 h -2.35 l -0.002,-0.947813 c 0,0 0.0214,-0.04254 -0.0987,-0.112901 -0.12006,-0.07036 -0.29922,-0.04882 -0.29922,-0.04882 v -1.602471 l 0.52,-0.1 v -0.975 l -0.52,-0.075 v -0.693089 c 0,0 0.0839,-0.371145 0.28436,-0.355028 l 1.12459,-0.10542 c 0,0 0.0418,-0.0035 0.0828,-0.06212 0.041,-0.0586 0.0332,-0.134464 0.0332,-0.134464 z"
       id="keyway_c145"
       sodipodi:nodetypes="ccccczczcccscccczccccccsczcc"
       inkscape:label="#keyway_c145" /><path
       style="display:inline;opacity:1;fill:#800000;stroke-width:1.07087;paint-order:fill markers stroke"
       d="m 107.84619,33.003457 h 1.225 l -5e-5,4.005773 -0.53728,0.975598 -0.59879,0.05823 c 0,0 -0.17847,0.03032 -0.17847,0.212795 0,0.182474 -4.1e-4,2.197608 -4.1e-4,2.197608 0,0 0.0191,0.119846 0.15303,0.164721 0.13395,0.04488 0.19231,-0.06265 0.19231,-0.06265 l 0.62999,-1.127932 0.1464,-1.34e-4 c 0,0 0.0694,0.01034 0.11937,0.06936 0.0759,0.08957 0.0739,0.199587 0.0739,0.199587 v 2.01905 h -2.35 l -0.002,-0.947813 c 0,0 0.0214,-0.04254 -0.0987,-0.112901 -0.12006,-0.07036 -0.29922,-0.04882 -0.29922,-0.04882 v -0.502471 l 0.52,-0.1 v -0.424993 l -0.52,-0.075 v -1.025007 l 0.52,-0.1 v -0.45 l -0.52,-0.05 v -0.718089 c 0,0 0.0839,-0.371145 0.28436,-0.355028 l 1.12459,-0.10542 c 0,0 0.0418,-0.0035 0.0828,-0.06212 0.041,-0.0586 0.0332,-0.134464 0.0332,-0.134464 z"
       id="keyway_c134"
       sodipodi:nodetypes="ccccczczcccscccczccccccccccsczcc"
       inkscape:label="#keyway_c134" /><path
       style="display:inline;opacity:1;fill:#800000;stroke-width:1.07087;paint-order:fill markers stroke"
       d="m 126.04962,33.003457 h 1.225 l -5e-5,4.005772 -0.53728,0.975598 -0.59879,0.05823 c 0,0 -0.17847,0.03032 -0.17847,0.212795 0,0.182475 -4.1e-4,2.197608 -4.1e-4,2.197608 0,0 0.0191,0.119846 0.15303,0.164721 0.13395,0.04488 0.19231,-0.06265 0.19231,-0.06265 l 0.62999,-1.127932 0.1464,-1.34e-4 c 0,0 0.0694,0.01034 0.11937,0.06936 0.0759,0.08957 0.0739,0.199587 0.0739,0.199587 v 2.01905 h -2.35 l -0.002,-0.947813 c 0,0 0.0214,-0.04254 -0.0987,-0.112901 -0.12006,-0.07036 -0.29922,-0.04882 -0.29922,-0.04882 v -0.527471 l 0.52,-0.075 v -1 l -0.52,-0.075 v -1.768089 c 0,0 0.0839,-0.371145 0.28436,-0.355028 l 1.12459,-0.10542 c 0,0 0.0418,-0.0035 0.0828,-0.06212 0.041,-0.0586 0.0332,-0.134464 0.0332,-0.134464 z"
       id="keyway_c123"
       sodipodi:nodetypes="ccccczczcccscccczccccccsczcc"
       inkscape:label="#keyway_c123" /><path
       style="display:inline;opacity:1;fill:#800000;stroke-width:1.07087;paint-order:fill markers stroke"
       d="m 129.6903,33.003457 h 1.225 l -5e-5,4.005773 -0.53728,0.975598 -0.59879,0.05823 c 0,0 -0.17847,0.03032 -0.17847,0.212795 0,0.182475 -4.1e-4,2.197607 -4.1e-4,2.197607 0,0 0.0191,0.119846 0.15303,0.164721 0.13395,0.04488 0.19231,-0.06265 0.19231,-0.06265 l 0.62999,-1.127931 0.1464,-1.34e-4 c 0,0 0.0694,0.01034 0.11937,0.06936 0.0759,0.08957 0.0739,0.199587 0.0739,0.199587 v 2.019049 h -2.35 l -0.002,-0.947813 c 0,0 0.0214,-0.04254 -0.0987,-0.112901 -0.12006,-0.07036 -0.29922,-0.04882 -0.29922,-0.04882 v -0.52747 l 0.52,-0.075 v -0.45 l -0.52,-0.075 v -2.175 l 0.775,-0.1 v -0.455121 l 0.63395,-0.04842 c 0,0 0.0418,-0.0035 0.0828,-0.06212 0.041,-0.0586 0.0332,-0.134464 0.0332,-0.134464 z"
       id="keyway_c234"
       sodipodi:nodetypes="ccccczczcccscccczccccccccczcc"
       inkscape:label="#keyway_c234" /><path
       style="display:inline;opacity:1;fill:#800000;stroke-width:1.07087;paint-order:fill markers stroke"
       d="m 133.33099,33.003457 h 1.225 l -5e-5,4.005773 -0.53728,0.975598 -0.59879,0.05823 c 0,0 -0.17847,0.03032 -0.17847,0.212795 0,0.182475 -4.1e-4,2.197607 -4.1e-4,2.197607 0,0 0.0191,0.119846 0.15303,0.164721 0.13395,0.04488 0.19231,-0.06265 0.19231,-0.06265 l 0.62999,-1.127931 0.1464,-1.34e-4 c 0,0 0.0694,0.01034 0.11937,0.06936 0.0759,0.08957 0.0739,0.199587 0.0739,0.199587 v 2.019049 h -2.35 l -0.002,-0.947813 c 0,0 0.0214,-0.04254 -0.0987,-0.112901 -0.12006,-0.07036 -0.29922,-0.04882 -0.29922,-0.04882 v -1.002471 l 0.52,-0.1 v -0.499931 l -0.52,-0.074 v -1.626068 l 0.775,-0.1 v -0.455121 l 0.63395,-0.04842 c 0,0 0.0418,-0.0035 0.0828,-0.06212 0.041,-0.0586 0.0332,-0.134464 0.0332,-0.134464 z"
       id="keyway_c235"
       sodipodi:nodetypes="ccccczczcccscccczccccccccczcc"
       inkscape:label="#keyway_c235" /><path
       style="display:inline;opacity:1;fill:#800000;stroke-width:1.07087;paint-order:fill markers stroke"
       d="m 129.6903,22.322433 h 1.225 l -5e-5,4.005772 -0.53728,0.975598 -0.59879,0.05823 c 0,0 -0.17847,0.03032 -0.17847,0.212795 0,0.182475 -4.1e-4,2.197607 -4.1e-4,2.197607 0,0 0.0191,0.119846 0.15303,0.164721 0.13395,0.04488 0.19231,-0.06265 0.19231,-0.06265 l 0.62999,-1.127931 0.1464,-1.34e-4 c 0,0 0.0694,0.01034 0.11937,0.06936 0.0759,0.08957 0.0739,0.199587 0.0739,0.199587 v 2.019049 h -2.35 l -0.002,-0.947813 c 0,0 0.0214,-0.04254 -0.0987,-0.112901 -0.12006,-0.07036 -0.29922,-0.04882 -0.29922,-0.04882 v -0.527471 l 0.52,-0.075 v -1 l -0.52,-0.075 v -1.624999 l 0.775,-0.1 v -0.455121 l 0.63395,-0.04842 c 0,0 0.0418,-0.0035 0.0828,-0.06212 0.041,-0.0586 0.0332,-0.134464 0.0332,-0.134464 z"
       id="keyway_c230"
       sodipodi:nodetypes="ccccczczcccscccczccccccccczcc"
       inkscape:label="#keyway_c230" /><path
       style="display:inline;opacity:1;fill:#800000;stroke-width:1.07087;paint-order:fill markers stroke"
       d="m 126.04962,11.06917 h 1.225 l -5e-5,4.005772 -0.53728,0.975598 -0.59879,0.05823 c 0,0 -0.17847,0.03032 -0.17847,0.212795 0,0.182475 -4.1e-4,2.197607 -4.1e-4,2.197607 0,0 0.0191,0.119846 0.15303,0.164721 0.13395,0.04488 0.19231,-0.06265 0.19231,-0.06265 l 0.62999,-1.127931 0.1464,-1.34e-4 c 0,0 0.0694,0.01034 0.11937,0.06936 0.0759,0.08957 0.0739,0.199587 0.0739,0.199587 v 2.019049 h -2.35 l -0.002,-0.947813 c 0,0 0.0214,-0.04254 -0.0987,-0.112901 -0.12006,-0.07036 -0.29922,-0.04882 -0.29922,-0.04882 v -0.527471 l 0.52,-0.075 V 16.51917 l -0.52,-0.075 v -1.075 l 0.775,-0.1 v -0.455121 l 0.63395,-0.04842 c 0,0 0.0418,-0.0035 0.0828,-0.06212 0.041,-0.0586 0.0332,-0.134464 0.0332,-0.134464 z"
       id="keyway_c200"
       sodipodi:nodetypes="ccccczczcccscccczccccccccczcc"
       inkscape:label="#keyway_c200" /><path
       style="display:inline;opacity:1;fill:#800000;stroke-width:1.07087;paint-order:fill markers stroke"
       d="m 122.40893,1.8190104 h 1.225 l -5e-5,4.005772 -0.53728,0.975598 -0.59879,0.05823 c 0,0 -0.17847,0.03032 -0.17847,0.212795 0,0.182475 -4.1e-4,2.1976074 -4.1e-4,2.1976074 0,0 0.0191,0.119846 0.15303,0.164721 0.13395,0.04488 0.19231,-0.06265 0.19231,-0.06265 l 0.62999,-1.1279314 0.1464,-1.34e-4 c 0,0 0.0694,0.01034 0.11937,0.06936 0.0759,0.08957 0.0739,0.199587 0.0739,0.199587 v 2.0190496 h -2.35 l -0.002,-0.9478132 c 0,0 0.0214,-0.04254 -0.0987,-0.112901 -0.12006,-0.07036 -0.29922,-0.04882 -0.29922,-0.04882 V 8.8940094 l 0.52,-0.075 v -2.099999 l -0.52,-0.075 v -0.525 l 0.775,-0.1 v -0.455121 l 0.63395,-0.04842 c 0,0 0.0418,-0.0035 0.0828,-0.06212 0.041,-0.0586 0.0332,-0.134464 0.0332,-0.134464 z"
       id="keyway_c000"
       sodipodi:nodetypes="ccccczczcccscccczccccccccczcc"
       inkscape:label="#keyway_c000" /><path
       style="display:inline;opacity:1;fill:#800000;stroke-width:1.07087;paint-order:fill markers stroke"
       d="m 136.97192,33.003457 h 1.225 l -5e-5,4.005773 -0.53728,0.975598 -0.59879,0.05823 c 0,0 -0.17847,0.03032 -0.17847,0.212795 0,0.182475 -4.1e-4,2.197607 -4.1e-4,2.197607 0,0 0.0191,0.119846 0.15303,0.164721 0.13395,0.04488 0.19231,-0.06265 0.19231,-0.06265 l 0.62999,-1.127931 0.1464,-1.34e-4 c 0,0 0.0694,0.01034 0.11937,0.06936 0.0759,0.08957 0.0739,0.199587 0.0739,0.199587 v 2.019049 h -2.35 l -0.002,-0.947813 c 0,0 0.0214,-0.04254 -0.0987,-0.112901 -0.12006,-0.07036 -0.29922,-0.04882 -0.29922,-0.04882 v -1.602471 l 0.52,-0.075 v -0.475 l -0.52,-0.075 v -1.074999 l 0.775,-0.1 v -0.455121 l 0.63395,-0.04842 c 0,0 0.0418,-0.0035 0.0828,-0.06212 0.041,-0.0586 0.0332,-0.134464 0.0332,-0.134464 z"
       id="keyway_c245"
       sodipodi:nodetypes="ccccczczcccscccczccccccccczcc"
       inkscape:label="#keyway_c245" /><path
       style="display:inline;opacity:1;fill:#800000;stroke-width:1.07087;paint-order:fill markers stroke"
       d="m 140.61292,33.003457 h 1.225 l -5e-5,4.005773 -0.53728,0.975598 -0.59879,0.05823 c 0,0 -0.17847,0.03032 -0.17847,0.212795 0,0.182475 -4.1e-4,2.197607 -4.1e-4,2.197607 0,0 0.0191,0.119846 0.15303,0.164721 0.13395,0.04488 0.19231,-0.06265 0.19231,-0.06265 l 0.62999,-1.127931 0.1464,-1.34e-4 c 0,0 0.0694,0.01034 0.11937,0.06936 0.0759,0.08957 0.0739,0.199587 0.0739,0.199587 v 2.019049 h -2.35 l -0.002,-0.947813 c 0,0 0.0214,-0.04254 -0.0987,-0.112901 -0.12006,-0.07036 -0.29922,-0.04882 -0.29922,-0.04882 v -2.177471 l 0.52,-0.075 v -0.475 l -0.52,-0.075 v -0.499999 l 0.775,-0.1 v -0.455121 l 0.63395,-0.04842 c 0,0 0.0418,-0.0035 0.0828,-0.06212 0.041,-0.0586 0.0332,-0.134464 0.0332,-0.134464 z"
       id="keyway_c345"
       sodipodi:nodetypes="ccccczczcccscccczccccccccczcc"
       inkscape:label="#keyway_c345" /><path
       style="display:inline;opacity:1;fill:#800000;stroke-width:1.07087;paint-order:fill markers stroke"
       d="m 168.797,33.003467 h 1.19983 l -5e-5,3.949533 -0.5709,0.974 -0.52132,0.253455 c 0,0 -0.15256,-0.0095 -0.15256,0.173007 0,0.09124 10e-4,1.150747 10e-4,1.150747 l -0.242,0.424253 0.004,0.736939 c 0,0 0.034,0.303499 0.17663,0.301599 0.0713,-9.5e-4 0.6817,0.06792 0.68037,-0.108 -4.4e-4,-0.05826 0,-0.673257 0,-0.673257 l 0.21355,-0.763986 0.41137,0.0067 -8e-5,2.287005 H 167.722 v -0.947808 c 0,0 -4.6e-4,-0.05804 -0.16138,-0.0943 -0.16092,-0.03626 -0.19687,-0.03247 -0.25989,-0.106062 -0.0315,-0.03679 -0.0538,-0.08883 -0.0538,-0.08883 v -0.45 l 0.47507,-0.075 -7e-5,-0.35 -0.475,-0.075 v -0.55 l 0.475,-0.075 v -0.374995 l -0.475,-0.05 v -1.35 c 0,0 0.0697,-0.261795 0.26974,-0.282308 l 1.09828,-0.112611 c 0,0 0.10301,-0.0159 0.14401,-0.07452 0.041,-0.0586 0.038,-0.08698 0.038,-0.08698 z"
       id="keyway_s124"
       sodipodi:nodetypes="cccccscccsscccccczsccccccccccsczcc"
       inkscape:label="#keyway_s124" /><path
       style="display:inline;opacity:1;fill:#800000;stroke-width:1.07087;paint-order:fill markers stroke"
       d="m 171.875,33.003467 h 1.2 V 36.953 l -0.57051,0.974 -0.52132,0.253455 c 0,0 -0.15215,-0.0095 -0.15215,0.173007 0,0.09124 0.001,1.150747 0.001,1.150747 l -0.242,0.424253 v 0.736939 c 0,0 0.0375,0.303499 0.18022,0.301599 0.0713,-9.5e-4 0.68211,0.06792 0.68078,-0.108 -4.4e-4,-0.05826 0,-0.673257 0,-0.673257 l 0.21314,-0.763986 0.41137,0.0067 -8e-5,2.287005 H 170.801 v -0.947808 c 0,0 -0.003,-0.06146 -0.16177,-0.0943 -0.15923,-0.03284 -0.19687,-0.03247 -0.25989,-0.106062 -0.0315,-0.03679 -0.0538,-0.08883 -0.0538,-0.08883 v -0.45 l 0.47546,-0.075 -4.6e-4,-0.899995 -0.475,-0.075 v -1.85 c 0,0 0.0697,-0.261795 0.26974,-0.282308 l 1.09828,-0.112611 c 0,0 0.1046,-0.01519 0.1456,-0.07381 0.041,-0.0586 0.0359,-0.08769 0.0359,-0.08769 z"
       id="keyway_s123"
       sodipodi:nodetypes="cccccscccsscccccczsccccccsczcc"
       inkscape:label="#keyway_s123" /><path
       style="display:inline;opacity:1;fill:#800000;stroke-width:1.07087;paint-order:fill markers stroke"
       d="m 165.82,33.003467 h 1.10021 l -5e-5,3.949533 -0.5709,0.974 -0.52132,0.253455 c 0,0 -0.15294,-0.0095 -0.15294,0.173007 0,0.09124 10e-4,1.150747 10e-4,1.150747 l -0.241,0.424253 0.004,0.736939 c 0,0 0.0333,0.303499 0.17601,0.301599 0.0713,-9.5e-4 0.68132,0.06792 0.67999,-0.108 -4.4e-4,-0.05826 0,-0.673257 0,-0.673257 l 0.21393,-0.763986 0.41137,0.0067 -8e-5,2.287005 H 164.645 v -0.947808 c 0,0 -0.0208,-0.06877 -0.161,-0.0943 -0.14023,-0.02553 -0.19687,-0.03247 -0.25989,-0.106062 -0.0315,-0.03679 -0.0538,-0.08883 -0.0538,-0.08883 v -0.974995 l 0.47469,-0.075 3.1e-4,-0.9 -0.475,-0.075 v -1.325 c 0,0 0.0697,-0.261795 0.26974,-0.282308 l 1.09828,-0.112611 c 0,0 0.19814,-0.0093 0.23914,-0.06797 0.041,-0.0586 0.0425,-0.09353 0.0425,-0.09353 z"
       id="keyway_s125"
       sodipodi:nodetypes="cccccscccsscccccczsccccccsczcc"
       inkscape:label="#keyway_s125" /><path
       style="display:inline;opacity:1;fill:#800000;stroke-width:1.07087;paint-order:fill markers stroke"
       d="m 162.748,33.003467 h 1.05047 l -5e-5,3.949533 -0.5709,0.974 -0.52132,0.253455 c 0,0 -0.1522,-0.0095 -0.1522,0.173007 0,0.09124 0.001,1.150747 0.001,1.150747 l -0.242,0.424253 0.004,0.736939 c 0,0 0.0336,0.303499 0.17627,0.301599 0.0713,-9.5e-4 0.68206,0.06792 0.68073,-0.108 -4.4e-4,-0.05826 0,-0.673257 0,-0.673257 l 0.21319,-0.763986 0.41137,0.0067 -8e-5,2.287005 H 161.524 v -0.947808 c 0,0 -0.008,-0.04685 -0.16174,-0.0943 -0.15338,-0.04745 -0.19687,-0.03247 -0.25989,-0.106062 -0.0315,-0.03679 -0.0538,-0.08883 -0.0538,-0.08883 v -0.974995 l 0.47543,-0.075 -4.3e-4,-0.35 -0.475,-0.075 v -0.575 l 0.475,-0.075 v -0.35 l -0.475,-0.075 v -0.8 c 0,0 0.0697,-0.261795 0.26974,-0.282308 l 1.09828,-0.112611 c 0,0 0.25184,-0.01177 0.29284,-0.07039 0.041,-0.0586 0.0386,-0.09111 0.0386,-0.09111 z"
       id="keyway_s135"
       sodipodi:nodetypes="cccccscccsscccccczsccccccccccsczcc"
       inkscape:label="#keyway_s135" /><path
       style="display:inline;opacity:1;fill:#800000;stroke-width:1.07087;paint-order:fill markers stroke"
       d="m 159.64969,33.003467 h 1.10021 l -5e-5,3.949533 -0.5709,0.974 -0.52132,0.253455 c 0,0 -0.15263,-0.0095 -0.15263,0.173007 0,0.09124 0.001,1.150747 0.001,1.150747 l -0.241,0.424253 0.004,0.736939 c 0,0 0.033,0.303499 0.1757,0.301599 0.0713,-9.5e-4 0.68163,0.06792 0.6803,-0.108 -4.4e-4,-0.05826 0,-0.673257 0,-0.673257 l 0.21362,-0.763986 0.41137,0.0067 -8e-5,2.287005 H 158.475 v -0.947808 c 0,0 -0.0109,-0.04685 -0.14377,-0.09722 -0.13292,-0.05038 -0.21441,-0.02955 -0.27743,-0.103139 C 158.0223,40.530502 158,40.478462 158,40.478462 v -1.524995 l 0.475,-0.075 v -0.9 l -0.475,-0.075 v -0.775 c 0,0 0.0697,-0.261795 0.26974,-0.282308 l 1.09828,-0.112611 c 0,0 0.19814,-0.0093 0.23914,-0.06797 0.041,-0.0586 0.0425,-0.09353 0.0425,-0.09353 z"
       id="keyway_s145"
       sodipodi:nodetypes="cccccscccsscccccczsccccccsczcc"
       inkscape:label="#keyway_s145" /><path
       style="display:inline;opacity:1;fill:#800000;stroke-width:1.07087;paint-order:fill markers stroke"
       d="m 156.60885,33.003467 h 1.05047 l -3.2e-4,3.949533 -0.57063,0.974 -0.52132,0.253455 c 0,0 -0.15705,-0.0095 -0.15705,0.173007 v 1.150747 l -0.236,0.424253 0.004,0.736939 c 0,0 0.0335,0.303499 0.17618,0.301599 0.0713,-9.5e-4 0.68115,0.06792 0.67982,-0.108 -4.4e-4,-0.05826 0,-0.673257 0,-0.673257 l 0.2141,-0.763986 0.41137,0.0067 -8e-5,2.287005 H 155.384 v -0.947808 c 0,0 -0.002,-0.07316 -0.14914,-0.100147 -0.14753,-0.02699 -0.20856,-0.02662 -0.27158,-0.100215 -0.0315,-0.03679 -0.0538,-0.08883 -0.0538,-0.08883 v -0.474995 l 0.475,-0.075 v -0.35 l -0.475,-0.075 v -1.075 l 0.475,-0.075 v -0.35 l -0.475,-0.075 v -0.8 c 0,0 0.0697,-0.261795 0.26974,-0.282308 l 1.09828,-0.112611 c 0,0 0.25184,-0.01177 0.29284,-0.07039 0.041,-0.0586 0.0386,-0.09111 0.0386,-0.09111 z"
       id="keyway_s134"
       sodipodi:nodetypes="cccccscccsscccccczsccccccccccsczcc"
       inkscape:label="#keyway_s134" /><path
       style="display:inline;opacity:1;fill:#800000;stroke-width:1.07087;paint-order:fill markers stroke"
       d="m 168.79641,22.98852 h 1.20042 l -5e-5,3.95048 -0.5709,0.973 -0.52132,0.253508 c 0,0 -0.15215,-0.0095 -0.15215,0.173007 0,0.09124 0.001,1.150748 0.001,1.150748 l -0.242,0.424253 0.004,0.736939 c 0,0 0.0335,0.303445 0.17622,0.301545 0.0713,-9.5e-4 0.6817,0.06792 0.68037,-0.108 -4.4e-4,-0.05826 0,-0.673203 0,-0.673203 l 0.21355,-0.763987 0.41137,0.0067 -8e-5,2.287006 H 167.722 v -0.947808 c 0,0 0.0242,-0.05562 -0.16138,-0.0943 -0.18554,-0.03868 -0.19687,-0.03247 -0.25989,-0.106062 -0.0315,-0.03679 -0.0538,-0.08883 -0.0538,-0.08883 v -0.45 l 0.47507,-0.075 4.1e-4,-1.374516 -0.47548,-0.075 v -1.37548 c 0,0 0.0697,-0.261795 0.26974,-0.282308 l 1.09828,-0.112611 c 0,0 0.1046,-0.01519 0.1456,-0.07381 0.041,-0.0586 0.0359,-0.08769 0.0359,-0.08769 z"
       id="keyway_s120"
       sodipodi:nodetypes="cccccscccsscccccczsccccccsczcc"
       inkscape:label="#keyway_s120" /><path
       style="display:inline;opacity:1;fill:#800000;stroke-width:1.07087;paint-order:fill markers stroke"
       d="m 175.09761,33.003468 h 1.20042 l -5e-5,3.949532 -0.5709,0.974 -0.52132,0.253456 c 0,0 -0.15276,-0.0095 -0.15276,0.173007 0,0.09124 0.001,1.150746 0.001,1.150746 l -0.241,0.424253 0.004,0.736939 c 0,0 0.0332,0.303499 0.17583,0.301599 0.0713,-9.5e-4 0.6815,0.06792 0.68017,-0.108 -4.4e-4,-0.05826 0,-0.673257 0,-0.673257 l 0.21375,-0.763986 0.41137,0.0067 -8e-5,2.287005 H 174.023 v -0.947808 c 0,0 -0.002,-0.06424 -0.16118,-0.0943 -0.15885,-0.03006 -0.19687,-0.03247 -0.25989,-0.106062 -0.0315,-0.03679 -0.0538,-0.08883 -0.0538,-0.08883 v -0.45 l 0.47487,-0.075 1.3e-4,-0.374995 -0.475,-0.075 v -2.174999 l 0.75,-0.075 v -0.455 l 0.61802,-0.06492 c 0,0 0.1046,-0.01519 0.1456,-0.07381 0.041,-0.0586 0.0359,-0.08769 0.0359,-0.08769 z"
       id="keyway_s234"
       sodipodi:nodetypes="cccccscccsscccccczsccccccccczcc"
       inkscape:label="#keyway_s234" /><path
       style="display:inline;opacity:1;fill:#800000;stroke-width:1.07087;paint-order:fill markers stroke"
       d="m 178.15885,33.003468 h 1.20042 l -5e-5,3.949532 -0.5709,0.974 -0.52132,0.253456 c 0,0 -0.153,-0.0095 -0.153,0.173007 0,0.09124 0.001,1.150746 0.001,1.150746 l -0.241,0.424253 0.004,0.736939 c 0,0 0.0334,0.303499 0.17607,0.301599 0.0713,-9.5e-4 0.68126,0.06792 0.67993,-0.108 -4.4e-4,-0.05826 0,-0.673257 0,-0.673257 l 0.21399,-0.763986 0.41137,0.0067 -8e-5,2.287005 H 177.084 v -0.947808 c 0,0 0.007,-0.06731 -0.16094,-0.0943 -0.168,-0.02699 -0.19687,-0.03247 -0.25989,-0.106062 -0.0315,-0.03679 -0.0538,-0.08883 -0.0538,-0.08883 v -0.949994 l 0.47463,-0.075 3.7e-4,-0.375 -0.475,-0.075 v -1.675 l 0.75,-0.075 v -0.455 l 0.61802,-0.06492 c 0,0 0.1046,-0.01519 0.1456,-0.07381 0.041,-0.0586 0.0359,-0.08769 0.0359,-0.08769 z"
       id="keyway_s235"
       sodipodi:nodetypes="cccccscccsscccccczsccccccccczcc"
       inkscape:label="#keyway_s235" /><path
       style="display:inline;opacity:1;fill:#800000;stroke-width:1.07087;paint-order:fill markers stroke"
       d="m 181.33385,33.003468 h 1.20042 l -5e-5,3.949532 -0.5709,0.974 -0.52132,0.253456 c 0,0 -0.153,-0.0095 -0.153,0.173007 0,0.09124 0.001,1.150746 0.001,1.150746 l -0.241,0.424253 0.004,0.736939 c 0,0 0.0333,0.303499 0.176,0.301599 0.0713,-9.5e-4 0.68133,0.06792 0.68,-0.108 -4.4e-4,-0.05826 0,-0.673257 0,-0.673257 l 0.21399,-0.763986 0.41137,0.0067 -8e-5,2.287005 H 180.259 v -0.947808 c 0,0 -2e-5,-0.0539 -0.16094,-0.0943 -0.16092,-0.0404 -0.19687,-0.03247 -0.25989,-0.106062 -0.0315,-0.03679 -0.0538,-0.08883 -0.0538,-0.08883 v -1.449994 l 0.47463,-0.075 3.7e-4,-0.375 -0.475,-0.075 v -1.175 l 0.75,-0.075 v -0.455 l 0.61802,-0.06492 c 0,0 0.1046,-0.01519 0.1456,-0.07381 0.041,-0.0586 0.0359,-0.08769 0.0359,-0.08769 z"
       id="keyway_s245"
       sodipodi:nodetypes="cccccscccsscccccczsccccccccczcc"
       inkscape:label="#keyway_s245" /><path
       style="display:inline;opacity:1;fill:#800000;stroke-width:1.07087;paint-order:fill markers stroke"
       d="m 184.37141,33.003468 h 1.20042 l -5e-5,3.949532 -0.5709,0.974 -0.52132,0.253456 c 0,0 -0.15256,-0.0095 -0.15256,0.173007 0,0.09124 0.001,1.150746 0.001,1.150746 l -0.242,0.424253 0.004,0.736939 c 0,0 0.034,0.303499 0.17663,0.301599 0.0713,-9.5e-4 0.6817,0.06792 0.68037,-0.108 -4.4e-4,-0.05826 0,-0.673257 0,-0.673257 l 0.21355,-0.763986 0.41137,0.0067 -8e-5,2.287005 H 183.297 v -0.947808 c 0,0 0.007,-0.06731 -0.16138,-0.0943 -0.168,-0.02699 -0.19687,-0.03247 -0.25989,-0.106062 -0.0315,-0.03679 -0.0538,-0.08883 -0.0538,-0.08883 v -1.949994 l 0.47507,-0.075 -7e-5,-0.375 -0.475,-0.075 v -0.675 l 0.75,-0.075 v -0.455 l 0.61802,-0.06492 c 0,0 0.1046,-0.01519 0.1456,-0.07381 0.041,-0.0586 0.0359,-0.08769 0.0359,-0.08769 z"
       id="keyway_s345"
       sodipodi:nodetypes="cccccscccsscccccczsccccccccczcc"
       inkscape:label="#keyway_s345" /><path
       style="display:inline;opacity:1;fill:#800000;stroke-width:1.07087;paint-order:fill markers stroke"
       d="m 175.09761,22.988522 h 1.20042 l -5e-5,3.950478 -0.5709,0.973 -0.52132,0.25351 c 0,0 -0.15276,-0.0095 -0.15276,0.173007 0,0.09124 0.001,1.150746 0.001,1.150746 l -0.241,0.424253 0.004,0.736939 c 0,0 0.0332,0.303445 0.17583,0.301545 0.0713,-9.5e-4 0.6815,0.06792 0.68017,-0.108 -4.4e-4,-0.05826 0,-0.673203 0,-0.673203 l 0.21375,-0.763986 0.41137,0.0067 -8e-5,2.287005 H 174.023 v -0.947808 c 0,0 0.004,-0.06439 -0.16118,-0.0943 -0.16507,-0.02991 -0.19687,-0.03247 -0.25989,-0.106062 -0.0315,-0.03679 -0.0538,-0.08883 -0.0538,-0.08883 v -0.45 l 0.47487,-0.075 1.3e-4,-0.874994 -0.475,-0.075 v -1.675 l 0.75,-0.075 v -0.455 l 0.61802,-0.06492 c 0,0 0.1046,-0.01519 0.1456,-0.07381 0.041,-0.0586 0.0359,-0.08769 0.0359,-0.08769 z"
       id="keyway_s230"
       sodipodi:nodetypes="cccccscccsscccccczsccccccccczcc"
       inkscape:label="#keyway_s230" /><path
       style="display:inline;opacity:1;fill:#800000;stroke-width:1.07087;paint-order:fill markers stroke"
       d="m 171.875,13.540542 h 1.20042 l -5e-5,3.950458 -0.5709,0.973 -0.52132,0.25353 c 0,0 -0.15215,-0.0095 -0.15215,0.173007 0,0.09124 0.001,1.150746 0.001,1.150746 l -0.242,0.424253 0.004,0.736939 c 0,0 0.0335,0.303425 0.17622,0.301525 0.0713,-9.5e-4 0.68211,0.06792 0.68078,-0.108 -4.4e-4,-0.05826 0,-0.673183 0,-0.673183 l 0.21314,-0.763986 0.41137,0.0067 -8e-5,2.287005 H 170.801 v -0.947808 c 0,0 0.009,-0.06731 -0.16179,-0.0943 -0.17092,-0.02699 -0.19687,-0.03247 -0.25989,-0.106062 -0.0315,-0.03679 -0.0538,-0.08883 -0.0538,-0.08883 v -0.45 l 0.475,-0.075 4.8e-4,-1.374994 -0.47548,-0.075 v -1.175 l 0.75,-0.075 v -0.455 l 0.61802,-0.06492 c 0,0 0.1046,-0.01519 0.1456,-0.07381 0.041,-0.0586 0.0359,-0.08769 0.0359,-0.08769 z"
       id="keyway_s200"
       sodipodi:nodetypes="cccccscccsscccccczsccccccccczcc"
       inkscape:label="#keyway_s200" /><path
       style="display:inline;opacity:1;fill:#800000;stroke-width:1.07087;paint-order:fill markers stroke"
       d="m 162.69826,22.988521 h 1.10021 l -5e-5,3.950479 -0.5709,0.973 -0.52132,0.253509 c 0,0 -0.1522,-0.0095 -0.1522,0.173007 0,0.09124 0.001,1.150747 0.001,1.150747 l -0.242,0.424253 0.004,0.736939 c 0,0 0.0336,0.303445 0.17627,0.301545 0.0713,-9.5e-4 0.68206,0.06792 0.68073,-0.108 -4.4e-4,-0.05826 0,-0.673203 0,-0.673203 l 0.21319,-0.763986 0.41137,0.0067 -8e-5,2.287005 H 161.524 v -0.947808 c 0,0 0.0178,-0.07457 -0.16174,-0.0943 -0.17956,-0.01973 -0.19687,-0.03247 -0.25989,-0.106062 -0.0315,-0.03679 -0.0538,-0.08883 -0.0538,-0.08883 v -0.974995 l 0.47543,-0.075 -4.3e-4,-1.35 -0.475,-0.075 v -0.875 c 0,0 0.0697,-0.261795 0.26974,-0.282308 l 1.09828,-0.112611 c 0,0 0.19814,-0.0093 0.23914,-0.06797 0.041,-0.0586 0.0425,-0.09353 0.0425,-0.09353 z"
       id="keyway_s150"
       sodipodi:nodetypes="cccccscccsscccccczsccccccsczcc"
       inkscape:label="#keyway_s150" /><path
       style="display:inline;opacity:1;fill:#800000;stroke-width:1.07087;paint-order:fill markers stroke"
       d="m 165.71979,13.54054 h 1.20042 l -5e-5,3.95046 -0.5709,0.973 -0.52132,0.253528 c 0,0 -0.15294,-0.0095 -0.15294,0.173007 0,0.09124 10e-4,1.150748 10e-4,1.150748 l -0.241,0.424253 0.004,0.736939 c 0,0 0.0333,0.303425 0.17601,0.301525 0.0713,-9.5e-4 0.68132,0.06792 0.67999,-0.108 -4.4e-4,-0.05826 0,-0.673183 0,-0.673183 l 0.21393,-0.763987 0.41137,0.0067 -8e-5,2.287006 H 164.645 v -0.947808 c 0,0 0.0128,-0.07316 -0.161,-0.0943 -0.17384,-0.02114 -0.19687,-0.03247 -0.25989,-0.106062 -0.0315,-0.03679 -0.0538,-0.08883 -0.0538,-0.08883 v -0.45 l 0.47469,-0.075 3.1e-4,-1.874516 -0.475,-0.075 v -0.87548 c 0,0 0.0697,-0.261795 0.26974,-0.282308 l 1.09828,-0.112611 c 0,0 0.1046,-0.01519 0.1456,-0.07381 0.041,-0.0586 0.0359,-0.08769 0.0359,-0.08769 z"
       id="keyway_s100"
       sodipodi:nodetypes="cccccscccsscccccczsccccccsczcc"
       inkscape:label="#keyway_s100" /><path
       style="display:inline;opacity:1;fill:#800000;stroke-width:1.07087;paint-order:fill markers stroke"
       d="m 169.064,3.7417734 h 1.20042 l -5e-5,3.9502266 -0.5709,0.973 -0.52132,0.2537614 c 0,0 -0.15215,-0.0095 -0.15215,0.173007 0,0.09124 10e-4,1.1507456 10e-4,1.1507456 l -0.242,0.424253 0.004,0.736939 c 0,0 0.0335,0.304194 0.17622,0.302294 0.0713,-9.5e-4 0.68211,0.06692 0.68078,-0.109 -4.4e-4,-0.05826 0,-0.672952 0,-0.672952 l 0.21314,-0.763986 0.41137,0.0067 -8e-5,2.287005 H 167.99 v -0.947808 c 0,0 0.001,-0.07044 -0.16179,-0.0943 -0.16298,-0.02386 -0.19687,-0.03247 -0.25989,-0.106062 -0.0315,-0.03679 -0.0538,-0.08883 -0.0538,-0.08883 v -0.45 l 0.47548,-0.075 -4.8e-4,-1.8749936 -0.475,-0.075 v -0.675 l 0.75,-0.075 v -0.455 l 0.61802,-0.06492 c 0,0 0.1046,-0.01519 0.1456,-0.07381 0.041,-0.0586 0.0359,-0.08769 0.0359,-0.08769 z"
       id="keyway_s000"
       sodipodi:nodetypes="cccccscccsscccccczsccccccccczcc"
       inkscape:label="#keyway_s000" /></g></svg>
