<?xml version="1.0" encoding="UTF-8" standalone="no"?>
<!-- Created with Inkscape (http://www.inkscape.org/) -->

<svg
   width="210mm"
   height="297mm"
   viewBox="0 0 210 297"
   version="1.1"
   id="svg1"
   xml:space="preserve"
   inkscape:version="1.4.2 (f4327f4, 2025-05-13)"
   sodipodi:docname="Everest.svg"
   xmlns:inkscape="http://www.inkscape.org/namespaces/inkscape"
   xmlns:sodipodi="http://sodipodi.sourceforge.net/DTD/sodipodi-0.dtd"
   xmlns="http://www.w3.org/2000/svg"
   xmlns:svg="http://www.w3.org/2000/svg"><sodipodi:namedview
     id="namedview1"
     pagecolor="#ffffff"
     bordercolor="#000000"
     borderopacity="0.25"
     inkscape:showpageshadow="2"
     inkscape:pageopacity="0.0"
     inkscape:pagecheckerboard="0"
     inkscape:deskcolor="#d1d1d1"
     inkscape:document-units="mm"
     inkscape:zoom="5.6568543"
     inkscape:cx="429.56737"
     inkscape:cy="100.144"
     inkscape:window-width="2560"
     inkscape:window-height="1369"
     inkscape:window-x="-8"
     inkscape:window-y="482"
     inkscape:window-maximized="1"
     inkscape:current-layer="layer1"
     showguides="true" /><defs
     id="defs1"><rect
       x="569.57449"
       y="221.32441"
       width="26.870056"
       height="39.597978"
       id="rect3" /><rect
       x="566.39251"
       y="48.436812"
       width="32.880464"
       height="37.830211"
       id="rect2" /><rect
       x="396.33333"
       y="47.022599"
       width="29.34493"
       height="36.062444"
       id="rect1" /><rect
       x="396.33334"
       y="47.022598"
       width="29.344931"
       height="36.062443"
       id="rect1-1" /></defs><g
     inkscape:label="Layer 1"
     inkscape:groupmode="layer"
     id="layer1"><path
       id="profile_e29_ctrl"
       style="display:inline;opacity:1;fill:#000000;stroke-width:1;paint-order:fill markers stroke"
       d="m 8.8347879e-5,80.075 c 0,0 0.06114600212,-5.244587 3.999999952121,-6.3 3.9388546,-1.055413 4.9999996,-4.989701 4.9999996,-4.989701 h 1.0000001 c 0,0 2.132391,-3.785299 5.25,-3.785299 3.117609,0 5.25,3.785 5.25,3.785 h 1 c 0,0 0.616164,1.688008 2,3.215 1.383836,1.526992 4,1.7 4,1.7 h 3 c 0.938464,0 0.9,1.05 0.9,1.05 v 0.975 l 25.792891,0.0015 2.407605,2.407605 h 1.467611 l 2.071708,2.072225 v 0.787032 L 59.79127,84.338 H 33.000088 V 84 h -1.6 v 1.5 c 0,0.811215 -0.9,1 -0.9,1 h -3.66598 c 0,0 -1.411814,-0.29469 -3.33402,1.65 -1.922206,1.944686 -2,3.215 -2,3.215 h -1 c 0,0 -1.798362,3.785 -5.25,3.785 -3.451639,0 -5.25,-3.785 -5.25,-3.785 -0.3891741,0.02058 -1.0000001,0 -1.0000001,0 0,0 -0.926733,-3.722382 -4.9999996,-4.99 -4.07326665,-1.267618 -3.999999952121,-6.3 -3.999999952121,-6.3 z m 2.249999952121,0 c 0,1.642005 1.1319593,4 2.7499996,4 1.618041,0 2.75,-2.381959 2.75,-4 0,-1.618041 -1.131959,-4 -2.75,-4 -1.6180403,0 -2.7499996,2.357995 -2.7499996,4 z m 20.3263997,3.259793 c 3.06e-4,0.341211 0.100765,0.674503 0.483175,0.685747 0.38241,0.01124 5.477701,0 5.477701,0 l 0.562239,-1.518254 c 0,0 0.140861,-0.693688 -0.410261,-0.929884 -0.551119,-0.236194 -4.763582,-1.780545 -4.763582,-1.780545 0,0 -1.023526,-0.24757 -1.102258,0.56224 0,0 -0.247526,2.409452 -0.247014,2.980696 z"
       sodipodi:nodetypes="csccsccscscccccccccccscczccscczcsaaasszccsccs"
       inkscape:label="#profile_e29_ctrl" /><path
       id="profile_e29_6pin"
       style="opacity:1;fill:#000000;stroke-width:1;paint-order:fill markers stroke"
       d="m 8.8347885e-5,49.074999 c 0,0 0.06114600212,-5.244586 3.999999852115,-6.299999 3.9388545,-1.055413 5.0000002,-4.989701 5.0000002,-4.989701 h 1.0000006 c 0,0 2.132391,-3.785299 5.25,-3.785299 3.117609,0 5.25,3.785 5.25,3.785 h 1 c 0,0 0.616164,1.688008 2,3.215 1.383836,1.526992 4,1.7 4,1.7 h 3 c 0.938464,0 0.9,1.05 0.9,1.05 v 0.974999 l 25.792891,0.0015 2.407605,2.407605 2.549415,2.365895 v 0.493362 L 58.75,53.338 H 33.000089 v -0.338001 h -1.6 v 1.5 c 0,0.811215 -0.9,1 -0.9,1 h -3.66598 c 0,0 -1.411814,-0.29469 -3.33402,1.65 -1.922206,1.944686 -2,3.215 -2,3.215 h -1 c 0,0 -1.798362,3.785 -5.25,3.785 -3.451639,0 -5.25,-3.785 -5.25,-3.785 -0.3891754,0.02058 -1.0000006,0 -1.0000006,0 0,0 -0.9267335,-3.722382 -5.0000002,-4.99 -4.07326655,-1.267618 -3.999999852115,-6.3 -3.999999852115,-6.3 z m 2.249999952115,0 c 0,1.642005 1.1319592,4 2.7499999,4 1.6180407,0 2.75,-2.381959 2.75,-4 0,-1.618041 -1.1319593,-4 -2.75,-4 -1.6180407,0 -2.7499999,2.357995 -2.7499999,4 z m 20.3264007,3.259793 c 3.06e-4,0.341211 0.100765,0.674503 0.483175,0.685747 0.38241,0.01124 5.477701,0 5.477701,0 l 0.562239,-1.518254 c 0,0 0.140861,-0.693688 -0.410261,-0.929884 -0.551119,-0.236194 -4.763582,-1.780545 -4.763582,-1.780545 0,0 -1.023526,-0.24757 -1.102258,0.56224 0,0 -0.247526,2.409452 -0.247014,2.980696 z"
       sodipodi:nodetypes="csccsccscsccccccccccscczccscczcsaaasszccsccs"
       inkscape:label="#profile_e29_6pin" /><path
       id="profile_e_6pin"
       style="opacity:1;fill:#000000;stroke-width:1;paint-order:fill markers stroke"
       d="m 0.02174802,180.075 c 0,0 -0.21804498,-3.23013 0.72669235,-4.49469 C 2.3516077,173.43441 8.0757586,171.6482 8.8566597,170 c 0.6064488,-1.28 0.4437375,-1.98721 0.665,-2.25 0.5345833,-0.63492 1.4500003,-0.6 1.4500003,-0.6 0,0 -0.03566,-0.87889 0.3,-1.15 0.335662,-0.27111 1.661884,-1 4.00009,-1 2.338206,0 3.77348,0.63953 4.04991,1 0.27643,0.36047 0.44164,1.14358 0.44164,1.14358 0,0 1.436027,0.18696 1.65836,0.85642 0.222333,0.66946 0.124121,2.2312 2.10009,4 1.975969,1.7688 3.240507,1.62373 4,1.7 0.759493,0.0763 3,0 3,0 0.938464,0 0.9,1.05 0.9,1.05 v 0.975 l 25.792891,0.002 2.407605,2.4076 2.527754,2.3659 v 0.49336 L 58.771661,184.339 H 33.02175 V 184 h -1.6 v 1.5 c 0,0.81121 -0.9,1 -0.9,1 h -3.66598 c 0,0 -1.411814,-0.29469 -3.33402,1.65 -1.922206,1.94468 -2.034919,3.44318 -2.10009,4 -0.06175,0.52764 -1.676714,0.69787 -1.676714,0.69787 0,0 0.09169,0.91251 -0.423286,1.30213 -0.514976,0.38962 -1.461182,1 -4.04991,1 -2.588728,0 -3.465498,-0.59605 -4.00009,-1 -0.370079,-0.27964 -0.3,-1.15 -0.3,-1.15 -0.389175,0.0206 -0.884446,-0.26034 -1.4500003,-0.6 -0.2827769,-0.16983 -0.4411197,-1.79991 -0.665,-2.25 -0.6846754,-1.37648 -6.1150812,-4.01284 -7.5970273,-5.0655 -1.19200947,-0.84671 -1.23788438,-5.0095 -1.23788438,-5.0095 z m 2.76229128,-0.14408 c 0,0.821 0.055918,2.83033 0.6269354,3.09101 1.5655489,0.71469 4.3829813,1.92795 4.900644,1.57336 0.5176626,-0.35458 0.3114422,-2.89248 0.3086117,-4.34419 -0.00317,-1.62604 0.3079405,-4.69285 -0.3646436,-4.86449 -0.6725841,-0.17165 -3.1201442,0.79139 -4.7943901,1.52766 -0.5295949,0.4321 -0.6771574,2.19564 -0.6771574,3.01665 z"
       sodipodi:nodetypes="csssczzzczzzsccccccccccscczsczzscssscsszazcs"
       inkscape:label="#profile_e_6pin" /><path
       id="profile_e_ctrl"
       style="display:inline;opacity:1;fill:#000000;stroke-width:1;paint-order:fill markers stroke"
       d="m 0.02174802,215.075 c 0,0 -0.218045,-3.23013 0.72669235,-4.49469 C 2.351608,208.43441 8.075759,206.6482 8.85666,205 c 0.606448,-1.28 0.443737,-1.98721 0.665,-2.25 0.534583,-0.63492 1.45,-0.6 1.45,-0.6 0,0 -0.03566,-0.87889 0.3,-1.15 0.335662,-0.27111 1.661884,-1 4.00009,-1 2.338206,0 3.77348,0.63953 4.04991,1 0.27643,0.36047 0.44164,1.14358 0.44164,1.14358 0,0 1.436027,0.18696 1.65836,0.85642 0.222333,0.66946 0.124121,2.2312 2.10009,4 1.975969,1.7688 3.240507,1.62373 4,1.7 0.759493,0.0763 3,0 3,0 0.938464,0 0.9,1.05 0.9,1.05 v 0.975 l 25.792891,0.001 2.385359,2.4076 1.55,0.006 1.99,2.1102 V 216 l -3.39,3.338 H 33.02175 v -0.33795 h -1.6 v 1.5 c 0,0.81121 -0.9,1 -0.9,1 h -3.66598 c 0,0 -1.411814,-0.29469 -3.33402,1.65 -1.922206,1.94468 -2.034919,3.44318 -2.10009,4 -0.06175,0.52763 -1.676714,0.69787 -1.676714,0.69787 0,0 0.09169,0.91251 -0.423286,1.30213 -0.514976,0.38962 -1.461182,1 -4.04991,1 -2.588728,0 -3.465498,-0.59605 -4.00009,-1 -0.370079,-0.27964 -0.3,-1.15 -0.3,-1.15 -0.389175,0.0206 -0.884446,-0.26034 -1.45,-0.6 C 9.238883,227.23017 9.08054,225.60009 8.85666,225.15 8.171984,223.77352 2.741578,221.13716 1.2596324,220.0845 0.06762292,219.23779 0.02174802,215.075 0.02174802,215.075 Z M 2.784039,214.93092 c 0,0.821 0.05592,2.83033 0.626936,3.09101 1.565549,0.71469 4.382981,1.92795 4.900644,1.57336 0.517662,-0.35458 0.311442,-2.89248 0.308611,-4.34419 -0.0032,-1.62604 0.307941,-4.69285 -0.364643,-4.86449 -0.672584,-0.17165 -3.120144,0.79139 -4.79439,1.52766 -0.529595,0.4321 -0.677158,2.19564 -0.677158,3.01665 z"
       sodipodi:nodetypes="csssczzzczzzscccccccccccscczsczzscssscsszazcs"
       inkscape:label="#profile_e_ctrl" /><path
       style="display:inline;opacity:1;fill:#800000;stroke-width:1.07014;paint-order:fill markers stroke"
       d="m 114.867,29.239384 h 1.12465 l -5e-5,4.000252 -0.53729,0.974253 -0.59881,0.05815 c 0,0 -0.3555,0.03027 -0.3555,0.212501 v 2.194579 c 0,0 0.0758,0.181515 0.20976,0.226328 0.13396,0.04482 0.31221,-0.124394 0.31221,-0.124394 l 0.63001,-1.126378 0.1464,-1.34e-4 c 0,0 0.0694,0.01033 0.11937,0.06926 0.0759,0.08944 0.0739,0.199313 0.0739,0.199313 V 37.93938 H 113.75 v -0.946506 c 0,0 0.004,-0.0838 -0.20911,-0.112746 -0.0689,-0.0094 -0.12315,-0.01813 -0.18295,-0.02153 -0.0598,-0.0034 -0.11628,-0.02739 -0.11628,-0.02739 v -2.723682 -0.644669 c 0,0 0.006,-0.143676 0.28437,-0.179464 l 1.12462,-0.144605 c 0,0 0.11208,-0.0012 0.15308,-0.0598 0.041,-0.05852 0.0633,-0.344514 0.0633,-0.344514 z"
       id="keyway_c"
       sodipodi:nodetypes="ccccczczcccsccccsscccsczcc"
       inkscape:label="#keyway_c" /><path
       style="display:inline;opacity:1;fill:#800000;stroke-width:1.07014;paint-order:fill markers stroke"
       d="m 132.612,29.2394 h 1.09993 l -5e-5,3.581278 -0.68666,1.115841 -0.40556,0.04986 c 0,0 -0.46966,0.05537 -0.46966,0.249284 v 1.328587 l -0.25,0.590638 v 0.662765 c 0,0 0.0229,0.174499 0.16736,0.170377 0,0 0.79671,0.0041 0.90504,0.0041 0.10833,0 0.0897,-0.174495 0.0897,-0.174495 v -0.473641 l 0.23862,-0.688025 0.41137,-4.19e-4 -8e-5,2.283865 -2.21201,-3.69e-4 v -1.011098 c 0,0 0.0411,-0.225521 -0.0751,-0.250752 -0.11624,-0.02523 -0.28165,0.0047 -0.37098,-0.04839 -0.0416,-0.02475 -0.0918,-0.04986 -0.0918,-0.04986 V 33.48782 c 0,0 0.004,-0.108042 0.48471,-0.219371 l 0.88331,-0.204413 c 0,0 0.2005,-0.04136 0.24143,-0.07539 0.0409,-0.03403 0.0404,-0.18557 0.0404,-0.18557 z"
       id="keyway_s"
       sodipodi:nodetypes="cccccscccszccccccczsccsczcc"
       inkscape:label="#keyway_s" /><text
       xml:space="preserve"
       transform="matrix(0.26458333,0,0,0.26458333,-1.1906249,16.51372)"
       id="text1"
       style="font-size:32px;text-align:start;writing-mode:lr-tb;direction:ltr;white-space:pre;shape-inside:url(#rect1);display:inline;fill:#cccccc;stroke-width:3.77953;paint-order:fill markers stroke"><tspan
         x="396.33398"
         y="76.218008"
         id="tspan2">C</tspan></text><text
       xml:space="preserve"
       transform="matrix(0.26458333,0,0,0.26458333,-26.722915,16.139583)"
       id="text2"
       style="font-size:32px;text-align:start;writing-mode:lr-tb;direction:ltr;white-space:pre;shape-inside:url(#rect2);display:inline;fill:#cccccc;stroke-width:3.77953;paint-order:fill markers stroke"><tspan
         x="566.39258"
         y="77.63207"
         id="tspan3">S</tspan></text><text
       xml:space="preserve"
       transform="matrix(0.26458333,0,0,0.26458333,-27.837576,-41.274998)"
       id="text3"
       style="font-size:32px;text-align:start;writing-mode:lr-tb;direction:ltr;white-space:pre;shape-inside:url(#rect3);display:inline;fill:#cccccc;stroke-width:3.77953;paint-order:fill markers stroke"><tspan
         x="569.57422"
         y="250.51879"
         id="tspan4">R</tspan></text><path
       style="display:inline;fill:#800000;stroke-width:1.07014;paint-order:fill markers stroke"
       d="m 132.61207,18.895956 h 1.09986 c 0,0 -5e-5,2.971058 -5e-5,3.945039 0,0.359804 -0.57675,0.546121 -0.57675,0.546121 l -0.58475,0.174499 c 0,0 -0.43429,0.06616 -0.40038,0.469605 v 1.189587 l -0.25,0.590638 v 0.662766 c 0,0 0.0463,0.186159 0.19071,0.182037 0,0 0.77333,-0.0076 0.88166,-0.0076 0.10833,0 0.0897,-0.174496 0.0897,-0.174496 v -0.473641 l 0.23862,-0.688026 0.41137,-4.19e-4 -8e-5,2.283868 H 131.5 v -0.947282 c 0,0 -0.0168,-0.07228 -0.22424,-0.09339 -0.20742,-0.02111 -0.19687,-0.03243 -0.25989,-0.105913 -0.0315,-0.03673 -0.0538,-0.08871 -0.0538,-0.08871 v -2.728302 c 0,0 0.7874,-0.491436 0.775,-1.107772 l 0.59302,-0.134614 c 0,0 0.16494,-0.03021 0.21488,-0.07585 0.0499,-0.04563 0.067,-0.173424 0.067,-0.173424 z"
       id="keyway_r"
       sodipodi:nodetypes="cccccscccszccccccczscccczcc"
       inkscape:label="#keyway_r" /><path
       id="profile_e29sl_ctrl"
       style="opacity:1;fill:#000000;stroke-width:1;paint-order:fill markers stroke"
       d="m 8.8345429e-5,145.075 c 0,0 0.06115000457,-5.24459 4.000000154571,-6.3 3.938855,-1.05541 5,-4.9897 5,-4.9897 h 1.0000005 c 0,0 2.132392,-3.7853 5.25,-3.7853 3.117609,0 5.25,3.785 5.25,3.785 h 1 c 0,0 0.743203,2.35711 2.11693,3.8932 1.804786,2.0181 4.046773,1.77015 4.046773,1.77015 h 2.836297 c 0.938464,0 0.9,0.79276 0.9,0.79276 V 141 H 60.5 l 1.374712,1.175 H 63 l 1.75,2.07505 v 3.25 L 63,149.05 H 33.000089 v -0.3 h -1.6 v 0.75 c 0,0.81121 -0.9,1 -0.9,1 h -3.66598 c 0,0 -1.715834,-0.25349 -3.497723,2.04201 -1.781889,2.2955 -1.836297,3.82304 -1.836297,3.82304 h -1 c 0,0 -1.798362,3.785 -5.25,3.785 -3.451638,0 -5.25,-3.785 -5.25,-3.785 -0.3891745,0.0206 -1.0000005,0 -1.0000005,0 0,0 -0.926733,-3.72238 -5,-4.99 C 0.13665216,150.17273 8.8345429e-5,145.075 8.8345429e-5,145.075 Z m 2.250000154571,0 c 0,1.64201 1.131959,4 2.75,4 1.618041,0 2.75,-2.38196 2.75,-4 0,-1.61804 -1.131959,-4 -2.75,-4 -1.618041,0 -2.75,2.358 -2.75,4 z m 20.3264005,3.25979 c 3.06e-4,0.34122 0.100765,0.67451 0.483175,0.68575 0.38241,0.0112 5.477701,0 5.477701,0 l 0.562239,-1.51825 c 0,0 0.140861,-0.69369 -0.410261,-0.92989 -0.551119,-0.23619 -4.763582,-1.78054 -4.763582,-1.78054 0,0 -1.023526,-0.24757 -1.102258,0.56224 0,0 -0.247526,2.40945 -0.247014,2.98069 z"
       sodipodi:nodetypes="csccsccscscccccccccccscczccscczcsaasszccsccsz"
       inkscape:label="#profile_e29sl_ctrl" /><path
       id="profile_e29sl_7pin"
       style="opacity:1;fill:#000000;stroke-width:0.999997;paint-order:fill markers stroke"
       d="m 8.834485e-5,112.575 c 0,0 0.06114959515,-5.24459 3.99997365515,-6.3 3.93883,-1.05541 4.999968,-4.9897 4.999968,-4.9897 h 0.999994 c 0,0 2.132377,-3.7853 5.249965,-3.7853 3.117588,0 5.249965,3.785 5.249965,3.785 h 0.999994 c 0,0 1.427543,2.93146 2.734642,4.52462 1.334218,1.62621 4.060445,1.46614 4.060445,1.46614 l 2.204853,-0.0258 c 0.938393,-0.011 0.899994,0.5 0.899994,0.5 v 0.75 h 27.849727 l 3.749976,3.25005 v 3.25 c 0,0 0.01393,1.00154 -0.194075,1.32454 -0.208006,0.32299 -0.805919,0.22545 -0.805919,0.22545 H 32.999872 v -0.30004 h -1.59999 V 117 c 0,0.81121 -0.899994,1 -0.899994,1 H 28.295 c 0,0 -2.922481,-0.10497 -4.72892,1.75704 -1.806439,1.86201 -2.066132,4.10797 -2.066132,4.10797 h -0.999994 c 0,0 -1.79835,3.785 -5.249965,3.785 -3.451615,0 -5.249965,-3.785 -5.249965,-3.785 -0.3891721,0.0206 -0.999994,0 -0.999994,0 0,0 -0.9267269,-3.72238 -4.999968,-4.99 C 0.13664271,117.67273 8.834485e-5,112.575 8.834485e-5,112.575 Z m 2.24998515515,0 c 0,1.64201 1.1319516,4 2.7499819,4 1.6180303,0 2.7499828,-2.38196 2.7499828,-4 0,-1.61804 -1.1319525,-4 -2.7499828,-4 -1.6180303,0 -2.7499819,2.358 -2.7499819,4 z m 20.3262675,3.25979 c 3.06e-4,0.34122 0.100764,0.67451 0.483171,0.68575 0.382408,0.0112 5.477665,0 5.477665,0 l 0.562235,-1.51825 c 0,0 0.140861,-0.69369 -0.410258,-0.92989 -0.551115,-0.23619 -4.76355,-1.78054 -4.76355,-1.78054 0,0 -1.02352,-0.24757 -1.102251,0.56224 0,0 -0.247524,2.40945 -0.247012,2.98069 z"
       sodipodi:nodetypes="csccsccscsccccczccccscczccscczcsaasszccsccsz"
       inkscape:label="#profile_e29sl_7pin" /><path
       id="profile_esl_ctrl"
       style="display:inline;opacity:1;fill:#000000;stroke-width:1;paint-order:fill markers stroke"
       d="m 3.1258401e-6,280.075 c 0,0 -0.00759999584,-3.6043 0.7266920141599,-4.49469 C 2.4309072,273.51375 8.0540142,271.6482 8.8349152,270 c 0.606448,-1.28 0.443737,-1.98721 0.6650001,-2.25 0.5345837,-0.63492 1.4500007,-0.6 1.4500007,-0.6 0,0 -0.03566,-0.87889 0.3,-1.15 0.335662,-0.27111 1.661884,-1 4.00009,-1 2.338206,0 3.77348,0.63953 4.04991,1 0.27643,0.36047 0.44164,1.14358 0.44164,1.14358 0,0 1.436027,0.18696 1.65836,0.85642 0.222333,0.66946 0.388704,2.95881 2.364673,4.72761 1.975969,1.7688 3.081161,1.99527 3.840654,2.07154 0.759493,0.0763 2.894763,0 2.894763,0 0.938464,0 0.9,0.39519 0.9,0.39519 V 276 h 29.349995 l 1.25,1.175 H 63 l 1.750001,2.075 v 3.25 l -1.75,1.55 H 33.000006 v -0.3 h -1.6 l -5e-6,0.87448 c -4e-6,0.66795 -0.9,0.62552 -0.9,0.62552 l -3.198253,0.24445 c 0,0 -1.996466,0.47705 -3.918672,2.42174 -1.922206,1.94468 -1.917989,3.67704 -1.98316,4.23386 -0.06175,0.52763 -1.676714,0.69787 -1.676714,0.69787 0,0 0.09169,0.91251 -0.423286,1.30213 -0.514976,0.38962 -1.461182,1 -4.04991,1 -2.588728,0 -3.465498,-0.59605 -4.00009,-1 -0.370079,-0.27964 -0.3,-1.15 -0.3,-1.15 -0.389175,0.0206 -0.884446,-0.26034 -1.4500007,-0.6 C 9.2171382,292.23017 9.0587952,290.60009 8.8349152,290.15 8.1502392,288.77352 2.7198332,286.13716 1.2378872,285.0845 0.04587813,284.23779 3.1258401e-6,280.075 3.1258401e-6,280.075 Z M 2.7622942,279.93092 c 0,0.821 0.05592,2.83033 0.626936,3.09101 1.565549,0.71469 4.382981,1.92795 4.900644,1.57336 0.517662,-0.35458 0.311442,-2.89248 0.308611,-4.34419 -0.0032,-1.62604 0.307941,-4.69285 -0.364643,-4.86449 -0.672584,-0.17165 -3.120144,0.79139 -4.79439,1.52766 -0.529595,0.4321 -0.677158,2.19564 -0.677158,3.01665 z"
       sodipodi:nodetypes="csssczzzczzzscccccccccccscczsczzscssscsszazcs"
       inkscape:label="#profile_esl_ctrl" /><path
       id="profile_esl_7pin"
       style="display:inline;opacity:1;fill:#000000;stroke-width:1;paint-order:fill markers stroke"
       d="m 3.1258402e-6,247.075 c 0,0 -0.00759999584,-3.60431 0.7266920041598,-4.49469 C 2.4309081,240.51374 8.0540141,238.6482 8.8349151,237 c 0.606448,-1.28 0.443737,-1.98721 0.665,-2.25 0.5345829,-0.63492 1.4499999,-0.6 1.4499999,-0.6 0,0 -0.03566,-0.87889 0.3,-1.15 0.335662,-0.27111 1.661884,-1 4.00009,-1 2.338206,0 3.77348,0.63953 4.04991,1 0.27643,0.36047 0.44164,1.14358 0.44164,1.14358 0,0 1.436027,0.18696 1.65836,0.85642 0.222333,0.66946 0.388704,2.9588 2.364673,4.7276 1.975969,1.7688 3.081161,1.99528 3.840654,2.07155 0.759493,0.0763 2.894763,0 2.894763,0 0.938464,0 0.9,0.39519 0.9,0.39519 V 243 H 60 l 3.25,3.25 v 3.25 c 0,0 0.115285,1.15804 -0.259715,1.43304 C 62.615285,251.20804 62,251.05 62,251.05 H 33.000005 v -0.3 h -1.6 l -5e-6,0.87448 c -4e-6,0.66795 -0.9,0.62552 -0.9,0.62552 l -3.198253,0.24445 c 0,0 -1.996466,0.47705 -3.918672,2.42174 -1.922206,1.94468 -1.917989,3.67704 -1.98316,4.23386 -0.06175,0.52763 -1.676714,0.69787 -1.676714,0.69787 0,0 0.09169,0.91251 -0.423286,1.30213 -0.514976,0.38962 -1.461182,1 -4.04991,1 -2.588728,0 -3.465498,-0.59605 -4.00009,-1 -0.370079,-0.27964 -0.3,-1.15 -0.3,-1.15 -0.389175,0.0206 -0.884446,-0.26034 -1.4499999,-0.6 -0.282777,-0.16988 -0.44112,-1.79996 -0.665,-2.25005 -0.684676,-1.37648 -6.115082,-4.01284 -7.597028,-5.0655 C 0.04587813,251.23779 3.1258402e-6,247.075 3.1258402e-6,247.075 Z M 2.7622941,246.93092 c 0,0.821 0.05592,2.83033 0.626936,3.09101 1.565549,0.71469 4.382981,1.92795 4.900644,1.57336 0.517662,-0.35458 0.311442,-2.89248 0.308611,-4.34419 -0.0032,-1.62604 0.307941,-4.69285 -0.364643,-4.86449 -0.672584,-0.17165 -3.120144,0.79139 -4.79439,1.52766 -0.529595,0.4321 -0.677158,2.19564 -0.677158,3.01665 z"
       sodipodi:nodetypes="csssczzzczzzsccccczccccscczsczzscssscsszazcs"
       inkscape:label="#profile_esl_7pin" /><path
       style="display:inline;opacity:1;fill:#800000;stroke-width:1.07014;paint-order:fill markers stroke"
       d="m 114.89166,18.895946 h 1.09999 c 0,0 -5e-5,3.880395 -5e-5,4.000253 0,0.08418 -0.0393,0.423238 -0.43721,0.562124 C 115.15651,23.597209 114.5,23.75 114.5,23.75 v 0.391103 2.194579 c 0,0 0.0758,0.181516 0.20976,0.226328 0.13396,0.04482 0.31221,-0.124394 0.31221,-0.124394 l 0.63001,-1.126377 0.1464,-1.34e-4 c 0,0 0.0694,0.01033 0.11937,0.06926 0.0759,0.08944 0.0739,0.199313 0.0739,0.199313 v 2.016265 h -2.27499 v -0.949995 c 0,0 -1.3e-4,-0.06236 -0.11438,-0.08002 -0.0687,-0.01063 -0.167,-0.02836 -0.22826,-0.0493 -0.0567,-0.01937 -0.13236,-0.145782 -0.13236,-0.145782 v -2.744894 c 0,0 0.18447,-0.07879 0.49196,-0.421031 0.30749,-0.342241 0.28939,-0.684943 0.28939,-0.684943 0,0 0.27978,-0.0619 0.43733,-0.08851 0.11119,-0.01879 0.28918,-0.07818 0.34752,-0.09692 0.0584,-0.01874 0.0838,-0.162613 0.0838,-0.162613 z"
       id="keyway_b"
       sodipodi:nodetypes="ccszczczcccsccccsscczcszcc"
       inkscape:label="#keyway_b" /><text
       xml:space="preserve"
       transform="matrix(0.26458333,0,0,0.26458333,-1.1906249,4.8420831)"
       id="text1-7"
       style="font-size:32px;text-align:start;writing-mode:lr-tb;direction:ltr;white-space:pre;shape-inside:url(#rect1-1);display:inline;fill:#cccccc;stroke-width:3.77953;paint-order:fill markers stroke"><tspan
         x="396.33398"
         y="76.218008"
         id="tspan5">B</tspan></text></g></svg>
