<?xml version='1.0' encoding='utf-8'?>
<svg width="100.090001mm" height="72.55586mm" viewBox="-28.079106 -12.938675 45.839543 33.229368" version="1.1" xmlns="http://www.w3.org/2000/svg">
  <g transform="scale(1,-1)" stroke-linecap="round">
    <g fill="none" stroke="rgb(0,0,0)" stroke-width="0.04121849171601774" id="Visible">
      <path d="M 14.14949,11.48341 C 14.14949,11.48341 16.768336,10.294798 17.133216,9.335778" />
      <path d="M 9.511221,12.895579 C 10.925219,13.127907 14.14949,11.48341 14.14949,11.48341" />
      <path d="M 17.133216,9.335778 C 17.208227,9.13863 17.240415,8.91461 17.240415,8.671284" />
      <path d="M 17.240415,8.671284 C 17.240415,7.19809 16.060517,5.017211 16.060517,3.807635" />
      <path d="M 16.060517,3.807635 C 16.060517,3.567825 16.106895,3.366194 16.21804,3.215826" />
      <path d="M 17.240415,6.523393 C 17.240415,5.519156 16.692143,4.186075 16.343082,3.055981" />
      <path d="M 0.7533,11.282445 C 2.248649,11.059542 7.753289,12.606742 9.511221,12.895579" />
      <path d="M -1.399845,11.864472 C -1.088224,11.932009 0.264341,11.35533 0.7533,11.282445" />
      <path d="M -2.789889,11.409733 C -2.55621,11.604498 -2.023089,11.729396 -1.399845,11.864472" />
      <path d="M -3.864814,11.72633 C -3.412948,11.791749 -2.789889,11.409733 -2.789889,11.409733" />
      <path d="M -7.196643,10.209551 C -5.537081,11.450241 -4.51755,11.631831 -3.864814,11.72633" />
      <path d="M -9.025449,7.868238 C -8.994338,8.271024 -8.856206,8.968861 -7.196643,10.209551" />
      <path d="M -8.297446,7.144091 C -8.297446,7.144091 -9.02638,7.452675 -9.02638,7.844074" />
      <path d="M -9.02638,7.844074 C -9.02638,7.852094 -9.026074,7.86015 -9.025449,7.868238" />
      <path d="M -8.83674,6.061122 C -8.898125,6.101582 -8.923661,6.159017 -8.923661,6.226579" />
      <path d="M -8.923661,6.226579 C -8.923661,6.561151 -8.297446,7.144091 -8.297446,7.144091" />
      <path d="M -7.113127,3.453306 C -7.373358,5.153065 -8.451171,5.806977 -8.83674,6.061122" />
      <path d="M -7.984132,1.194881 C -7.984132,1.194881 -7.074243,1.644227 -7.074243,2.963065" />
      <path d="M -7.074243,2.963065 C -7.074243,3.114762 -7.086281,3.277962 -7.113127,3.453306" />
      <line x1="-10.334292" y1="-0.562099" x2="-7.984132" y2="1.194881" />
      <path d="M -10.143776,-1.393767 C -10.404493,-1.257774 -10.480262,-1.089835 -10.480262,-0.940555" />
      <path d="M -10.480262,-0.940555 C -10.480262,-0.733355 -10.334292,-0.562099 -10.334292,-0.562099" />
      <line x1="-9.337683" y1="-1.814236" x2="-10.143776" y2="-1.393767" />
      <line x1="-9.323729" y1="-1.803804" x2="-9.337683" y2="-1.814236" />
      <line x1="-2.618098" y1="-5.301552" x2="-9.323729" y2="-1.803804" />
      <line x1="-2.618098" y1="-5.301552" x2="-2.632052" y2="-5.311984" />
      <line x1="-1.893357" y1="-5.697298" x2="-2.632052" y2="-5.311984" />
      <path d="M -0.510536,-5.686303 C -1.11216,-6.136077 -1.893357,-5.697298 -1.893357,-5.697298" />
      <path d="M 1.412682,-4.248505 C 0.867233,-4.581959 -0.510536,-5.686303 -0.510536,-5.686303" />
      <path d="M 5.28169,-3.011999 C 2.65743,-3.250913 1.958108,-3.915039 1.412682,-4.248505" />
      <path d="M 9.697924,-3.60681 C 9.041594,-3.445363 7.90595,-2.773084 5.28169,-3.011999" />
      <path d="M 11.418339,-3.154864 C 11.418339,-3.154864 10.354253,-3.768257 9.697924,-3.60681" />
      <path d="M 12.579138,-3.401008 C 12.125273,-3.389185 11.418339,-3.154864 11.418339,-3.154864" />
      <path d="M 15.942906,-1.860352 C 14.443946,-2.980975 13.033004,-3.412831 12.579138,-3.401008" />
      <path d="M 17.739773,0.457084 C 17.732661,0.18768 17.441865,-0.739729 15.942906,-1.860352" />
      <path d="M 17.049492,1.061242 C 17.049492,1.061242 17.739827,0.729875 17.739827,0.461189" />
      <path d="M 17.739827,0.461189 C 17.739827,0.459819 17.739809,0.458451 17.739773,0.457084" />
      <path d="M 17.518559,1.996375 C 17.533796,1.942586 17.540612,1.889748 17.540612,1.838258" />
      <path d="M 17.540612,1.838258 C 17.540612,1.40118 17.049492,1.061242 17.049492,1.061242" />
      <path d="M 16.21804,3.215826 C 16.811638,2.412755 17.458718,2.207621 17.518559,1.996375" />
      <path d="M 12.48924,10.101858 C 11.859138,10.430527 10.281168,11.20812 9.715037,11.038808" />
      <path d="M 14.370354,8.569668 C 14.370378,8.570999 14.370391,8.572333 14.370391,8.57367" />
      <path d="M 14.370391,8.57367 C 14.370391,9.001306 13.117385,9.774209 12.48924,10.101858" />
      <path d="M 9.715037,11.038808 C 8.162896,10.574604 5.425563,9.710007 5.365845,9.319956" />
      <path d="M 12.469251,5.660313 C 13.032165,5.913944 13.862114,7.472509 14.370354,8.569668" />
      <path d="M 5.365845,9.319956 C 5.365002,9.314456 5.364586,9.308851 5.364586,9.303144" />
      <path d="M 5.364586,9.303144 C 5.364586,8.904111 7.401847,8.004574 8.502085,7.432946" />
      <path d="M 8.502085,7.432946 C 9.752072,6.783515 11.906345,5.406679 12.469251,5.660313" />
      <path d="M -8.923661,5.435766 C -8.985744,5.515974 -9.02638,5.60377 -9.02638,5.696182" />
      <path d="M -8.83674,3.91323 C -8.898125,3.953691 -8.923661,4.011125 -8.923661,4.078687" />
      <path d="M -7.275852,1.988535 C -7.67494,3.18858 -8.507783,3.696401 -8.83674,3.91323" />
      <line x1="-2.632052" y1="-7.442165" x2="-3.566214" y2="-6.954894" />
      <line x1="-1.893357" y1="-7.84519" x2="-2.632052" y2="-7.459876" />
      <path d="M -0.510536,-7.834195 C -1.11216,-8.283969 -1.893357,-7.84519 -1.893357,-7.84519" />
      <path d="M 1.412682,-6.396397 C 0.867233,-6.729851 -0.510536,-7.834195 -0.510536,-7.834195" />
      <path d="M 5.28169,-5.15989 C 2.65743,-5.398804 1.958108,-6.06293 1.412682,-6.396397" />
      <path d="M 9.697924,-5.754702 C 9.041594,-5.593255 7.90595,-4.920976 5.28169,-5.15989" />
      <path d="M 11.418339,-5.302755 C 11.418339,-5.302755 10.354253,-5.916149 9.697924,-5.754702" />
      <path d="M 12.579138,-5.5489 C 12.125273,-5.537077 11.418339,-5.302755 11.418339,-5.302755" />
      <path d="M 15.942906,-4.008243 C 14.443946,-5.128867 13.033004,-5.560723 12.579138,-5.5489" />
      <path d="M 17.739773,-1.690807 C 17.732661,-1.960212 17.441865,-2.88762 15.942906,-4.008243" />
      <path d="M 17.739773,-1.682575 C 17.739809,-1.683952 17.739827,-1.685328 17.739827,-1.686703" />
      <path d="M 17.739827,-1.686703 C 17.739827,-1.688073 17.739809,-1.689441 17.739773,-1.690807" />
      <path d="M 12.48924,7.953966 C 11.859138,8.282636 10.281168,9.060228 9.715037,8.890916" />
      <path d="M 13.683014,7.214364 C 13.2878,7.506692 12.808042,7.787674 12.48924,7.953966" />
      <path d="M 9.715037,8.890916 C 9.002167,8.677716 8.039293,8.380057 7.200647,8.082703" />
      <line x1="-9.337683" y1="-2.25231" x2="-9.337683" y2="-1.814236" />
      <line x1="-9.323729" y1="-1.816106" x2="-9.323729" y2="-1.803804" />
      <line x1="-2.627765" y1="-5.308779" x2="-2.627765" y2="-5.296542" />
      <line x1="-7.76448" y1="-2.617162" x2="-9.314062" y2="-1.808879" />
      <path d="M -7.611301,-2.754782 C -7.680044,-2.659643 -7.76448,-2.617162 -7.76448,-2.617162" />
      <path d="M -7.558068,-2.875783 C -7.558068,-2.875783 -7.566004,-2.817439 -7.611301,-2.754782" />
      <line x1="-7.558171" y1="-2.990076" x2="-7.558068" y2="-2.875783" />
      <path d="M -8.369355,-3.321504 Q -8.346769,-3.34115 -8.3455,-3.341178 Q -8.342893,-3.342537 -8.248345,-3.391835" />
      <path d="M -8.158342,-3.438763 C -7.860558,-3.594031 -7.277091,-3.898256 -6.929215,-4.079651" />
      <line x1="-5.702118" y1="-3.692957" x2="-6.450871" y2="-3.722041" />
      <line x1="-2.627765" y1="-5.296542" x2="-5.702118" y2="-3.692957" />
      <line x1="-2.632052" y1="-7.459876" x2="-2.632052" y2="-5.311984" />
      <line x1="-1.893357" y1="-5.697298" x2="-1.893357" y2="-7.84519" />
      <line x1="-0.510536" y1="-5.686303" x2="-0.510536" y2="-7.834195" />
      <line x1="11.418339" y1="-3.154864" x2="11.418339" y2="-5.302755" />
      <line x1="-2.627765" y1="-5.296542" x2="-3.37965" y2="-5.858652" />
      <line x1="-3.37965" y1="-6.815441" x2="-3.37965" y2="-5.858652" />
      <line x1="-2.632052" y1="-6.256537" x2="-3.37965" y2="-6.815441" />
      <line x1="-5.413022" y1="-8.335351" x2="-3.37965" y2="-6.815441" />
      <line x1="-5.413022" y1="-8.335351" x2="-7.169911" y2="-8.337796" />
      <line x1="-7.169911" y1="-8.337796" x2="-8.504087" y2="-9.335226" />
      <line x1="-8.504087" y1="-9.70636" x2="-10.535156" y2="-11.224788" />
      <line x1="-10.535156" y1="-11.224788" x2="-12.524592" y2="-11.227557" />
      <line x1="-12.524592" y1="-11.227557" x2="-13.920293" y2="-12.270984" />
      <line x1="-13.708458" y1="-13.968283" x2="-15.227155" y2="-15.103661" />
      <line x1="-15.227155" y1="-15.103661" x2="-17.713949" y2="-15.107123" />
      <line x1="-17.713949" y1="-15.107123" x2="-19.212125" y2="-16.227159" />
      <line x1="-19.175212" y1="-17.312964" x2="-20.259544" y2="-18.123611" />
      <line x1="-22.569539" y1="-18.814695" x2="-20.259544" y2="-18.685249" />
      <line x1="-24.153201" y1="-18.936509" x2="-22.569539" y2="-18.814695" />
      <path d="M -24.348498,-18.977463 C -24.264607,-18.938901 -24.149794,-18.936281 -24.153201,-18.936509" />
      <path d="M -24.348498,-18.977463 Q -24.385822,-18.994729 -24.405552,-19.009956" />
      <path d="M -24.405552,-19.009956 C -24.437362,-19.033726 -24.438968,-19.050435 -24.438722,-19.049075" />
      <line x1="-24.335542" y1="-18.971938" x2="-24.438722" y2="-19.049075" />
      <line x1="-24.591835" y1="-19.939216" x2="-24.438722" y2="-19.049075" />
      <line x1="-23.147084" y1="-18.85912" x2="-24.591835" y2="-19.939216" />
      <path d="M -24.591835,-19.939216 C -24.586104,-19.975139 -24.612516,-20.00882 -24.649122,-20.035912" />
      <path d="M -24.649122,-20.035912 C -24.706854,-20.078327 -24.785653,-20.109541 -24.862042,-20.135367 C -24.912373,-20.151904 -24.960365,-20.165918 -25.006018,-20.177408 C -25.059619,-20.191278 -25.111545,-20.201897 -25.107481,-20.200981" />
      <line x1="-26.005796" y1="-20.270083" x2="-25.107481" y2="-20.200981" />
      <line x1="-26.384441" y1="-20.072577" x2="-26.005796" y2="-20.270083" />
      <line x1="-26.402649" y1="-19.958353" x2="-26.384441" y2="-20.072577" />
      <line x1="-26.413056" y1="-19.486928" x2="-26.402649" y2="-19.958353" />
      <line x1="-26.475492" y1="-19.095262" x2="-26.413056" y2="-19.486928" />
      <line x1="-26.485898" y1="-19.436131" x2="-26.475492" y2="-19.095262" />
      <line x1="-26.428048" y1="-19.392882" x2="-26.485898" y2="-19.436131" />
      <line x1="-26.555272" y1="-19.000946" x2="-26.485898" y2="-19.436131" />
      <line x1="-26.565678" y1="-18.529521" x2="-26.555272" y2="-19.000946" />
      <line x1="-26.62789" y1="-18.13926" x2="-26.565678" y2="-18.529521" />
      <line x1="-26.63931" y1="-18.473767" x2="-26.62789" y2="-18.13926" />
      <line x1="-26.58146" y1="-18.430518" x2="-26.63931" y2="-18.473767" />
      <line x1="-26.708236" y1="-18.041395" x2="-26.63931" y2="-18.473767" />
      <path d="M -26.715009,-17.765197 C -26.705298,-17.915444 -26.708235,-18.047609 -26.708236,-18.041395" />
      <path d="M -26.715009,-17.765197 C -26.724497,-17.612406 -26.731229,-17.585786 -26.730674,-17.589841" />
      <line x1="-26.86218" y1="-16.763331" x2="-26.730674" y2="-17.589841" />
      <line x1="-9.328016" y1="-1.819311" x2="-9.328016" y2="-2.245084" />
      <line x1="-9.314062" y1="-1.808879" x2="-9.328016" y2="-1.819311" />
      <line x1="-8.992555" y1="-1.994292" x2="-9.328016" y2="-1.819311" />
      <line x1="-10.018271" y1="-2.761118" x2="-8.992555" y2="-1.994292" />
      <line x1="-10.353733" y1="-2.586137" x2="-10.018271" y2="-2.761118" />
      <line x1="-10.353733" y1="-2.586137" x2="-26.86218" y2="-14.927859" />
      <line x1="-26.767437" y1="-15.522187" x2="-26.86218" y2="-14.927859" />
      <line x1="-26.767437" y1="-15.522187" x2="-24.907554" y2="-15.433331" />
      <line x1="-24.175051" y1="-14.885711" x2="-24.907554" y2="-15.433331" />
      <line x1="-24.358638" y1="-14.243931" x2="-24.175051" y2="-14.885711" />
      <line x1="-23.853858" y1="-13.866557" x2="-24.358638" y2="-14.243931" />
      <line x1="-22.809866" y1="-13.865099" x2="-23.853858" y2="-13.866557" />
      <line x1="-21.274505" y1="-12.717262" x2="-22.809866" y2="-13.865099" />
      <line x1="-21.528061" y1="-11.830886" x2="-21.274505" y2="-12.717262" />
      <line x1="-21.023281" y1="-11.453512" x2="-21.528061" y2="-11.830886" />
      <line x1="-19.581401" y1="-11.451497" x2="-21.023281" y2="-11.453512" />
      <line x1="-19.416086" y1="-11.327907" x2="-19.581401" y2="-11.451497" />
      <line x1="-19.739611" y1="-10.196935" x2="-19.416086" y2="-11.327907" />
      <line x1="-19.234831" y1="-9.819561" x2="-19.739611" y2="-10.196935" />
      <line x1="-17.395064" y1="-9.816991" x2="-19.234831" y2="-9.819561" />
      <line x1="-15.859703" y1="-8.669154" x2="-17.395064" y2="-9.816991" />
      <line x1="-15.973322" y1="-8.27197" x2="-15.859703" y2="-8.669154" />
      <line x1="-15.468541" y1="-7.894596" x2="-15.973322" y2="-8.27197" />
      <line x1="-14.822436" y1="-7.893693" x2="-15.468541" y2="-7.894596" />
      <line x1="-13.287075" y1="-6.745857" x2="-14.822436" y2="-7.893693" />
      <line x1="-13.610601" y1="-5.614884" x2="-13.287075" y2="-6.745857" />
      <line x1="-13.10582" y1="-5.237511" x2="-13.610601" y2="-5.614884" />
      <line x1="-11.266054" y1="-5.23494" x2="-13.10582" y2="-5.237511" />
      <line x1="-7.76448" y1="-2.617162" x2="-11.266054" y2="-5.23494" />
      <path d="M -11.005512,-5.292296 C -11.117601,-5.233983 -11.270833,-5.234439 -11.266054,-5.23494" />
      <path d="M -11.005512,-5.292296 C -10.927856,-5.331021 -10.913814,-5.388404 -10.914969,-5.385404" />
      <line x1="-7.558068" y1="-2.875783" x2="-10.914969" y2="-5.385404" />
      <line x1="-10.915144" y1="-5.49975" x2="-10.914969" y2="-5.385404" />
      <line x1="-7.558171" y1="-2.990076" x2="-10.915144" y2="-5.49975" />
      <line x1="-12.387552" y1="-5.993862" x2="-10.915144" y2="-5.49975" />
      <path d="M -12.469336,-6.14418 C -12.501483,-6.087978 -12.473809,-6.04603 -12.440819,-6.022036" />
      <path d="M -12.440819,-6.022036 C -12.413759,-6.001833 -12.384435,-5.99284 -12.387552,-5.993862" />
      <path d="M -26.384441,-18.95151 C -26.316454,-18.990249 -26.272409,-18.985505 -26.245685,-18.965188" />
      <path d="M -26.245685,-18.965188 C -26.215584,-18.943105 -26.208053,-18.901968 -26.208557,-18.903859" />
      <path d="M -26.707771,-16.832924 C -26.704793,-16.881443 -26.701428,-16.924107 -26.697675,-16.960916 C -26.692187,-17.012997 -26.688695,-17.043526 -26.687198,-17.052504 C -26.68727,-17.052156 -26.687092,-17.053306 -26.686666,-17.055956 C -26.685273,-17.064689 -26.683369,-17.07663 -26.680954,-17.09178 C -26.677895,-17.110962 -26.674837,-17.130144 -26.671779,-17.149326 C -26.640536,-17.345279 -26.608694,-17.544991 -26.576253,-17.748459 C -26.546339,-17.936078 -26.516425,-18.123697 -26.486511,-18.311316 C -26.472262,-18.400685 -26.458013,-18.490054 -26.443764,-18.579423 C -26.423684,-18.705371 -26.402492,-18.838287 -26.384441,-18.95151" />
      <path d="M -26.707771,-16.832924 L -26.168867,-16.430039" />
      <path d="M -26.190578,-16.402187 L -26.168867,-16.430039" />
      <path d="M -21.263863,-12.757957 L -20.766967,-12.386478" />
      <path d="M -20.784683,-12.360737 L -20.766967,-12.386478" />
      <path d="M -19.405444,-11.368602 L -18.58063,-10.751971" />
      <path d="M -18.598346,-10.726231 L -18.58063,-10.751971" />
      <path d="M -13.276434,-6.786552 C -12.995212,-6.57631 -12.709754,-6.362901 -12.45162,-6.169921" />
      <path d="M -12.469336,-6.14418 L -12.45162,-6.169921" />
      <line x1="-26.163866" y1="-18.459484" x2="-26.208557" y2="-18.903859" />
      <line x1="-6.450871" y1="-3.722041" x2="-26.163866" y2="-18.459484" />
      <line x1="-26.005796" y1="-18.453344" x2="-26.163866" y2="-18.459484" />
      <line x1="-24.887965" y1="-18.036304" x2="-26.005796" y2="-18.453344" />
      <line x1="-5.702118" y1="-3.692957" x2="-24.887965" y2="-18.036304" />
      <line x1="-22.569539" y1="-17.857946" x2="-24.887965" y2="-18.036304" />
      <line x1="-20.259544" y1="-17.728473" x2="-22.569539" y2="-17.857946" />
      <line x1="-20.259544" y1="-17.728473" x2="-20.3919" y2="-17.265793" />
      <line x1="-20.3919" y1="-17.265793" x2="-19.175212" y2="-16.356197" />
      <line x1="-19.175212" y1="-16.356197" x2="-19.437596" y2="-15.438974" />
      <line x1="-19.437596" y1="-15.438974" x2="-17.713949" y2="-14.150375" />
      <line x1="-17.713949" y1="-14.150375" x2="-15.227155" y2="-14.146882" />
      <line x1="-15.227155" y1="-14.146882" x2="-13.708458" y2="-13.011504" />
      <line x1="-13.708458" y1="-13.011504" x2="-14.145764" y2="-11.482798" />
      <line x1="-14.145764" y1="-11.482798" x2="-12.524592" y2="-10.270809" />
      <line x1="-12.524592" y1="-10.270809" x2="-10.535156" y2="-10.268015" />
      <line x1="-10.535156" y1="-10.268015" x2="-8.504087" y2="-8.749587" />
      <line x1="-8.504087" y1="-8.749587" x2="-8.591548" y2="-8.443846" />
      <line x1="-8.591548" y1="-8.443846" x2="-7.169911" y2="-7.38103" />
      <line x1="-7.169911" y1="-7.38103" x2="-5.413022" y2="-7.378562" />
      <line x1="-3.37965" y1="-5.858652" x2="-5.413022" y2="-7.378562" />
      <line x1="-5.413022" y1="-7.378562" x2="-5.413022" y2="-8.335351" />
      <line x1="-7.169911" y1="-7.38103" x2="-7.169911" y2="-8.337796" />
      <line x1="-8.504087" y1="-8.749587" x2="-8.504087" y2="-9.70636" />
      <line x1="-10.535156" y1="-10.268015" x2="-10.535156" y2="-11.224788" />
      <line x1="-12.524592" y1="-10.270809" x2="-12.524592" y2="-11.227557" />
      <line x1="-13.708458" y1="-13.011504" x2="-13.708458" y2="-13.968283" />
      <line x1="-15.227155" y1="-14.146882" x2="-15.227155" y2="-15.103661" />
      <line x1="-17.713949" y1="-14.150375" x2="-17.713949" y2="-15.107123" />
      <line x1="-19.175212" y1="-16.356197" x2="-19.175212" y2="-17.312964" />
      <line x1="-20.259544" y1="-18.685249" x2="-20.259544" y2="-17.728473" />
      <line x1="-22.569539" y1="-17.857946" x2="-22.569539" y2="-18.814695" />
      <line x1="-26.005796" y1="-18.453344" x2="-26.005796" y2="-20.270083" />
      <line x1="-26.384441" y1="-18.95151" x2="-26.384441" y2="-20.072577" />
      <line x1="-26.767437" y1="-16.458636" x2="-26.707771" y2="-16.832924" />
      <line x1="-26.767437" y1="-16.458636" x2="-26.767437" y2="-15.522187" />
      <line x1="-26.86218" y1="-14.927859" x2="-26.86218" y2="-16.763331" />
      <path d="M -26.190578,-16.402187 C -26.224894,-16.347583 -26.195244,-16.304123 -26.160172,-16.27863" />
      <path d="M -26.160172,-16.27863 C -26.132554,-16.257895 -26.101547,-16.247133 -26.103375,-16.247817" />
      <line x1="-24.53339" y1="-15.680756" x2="-26.103375" y2="-16.247817" />
      <line x1="-24.533203" y1="-15.566401" x2="-24.53339" y2="-15.680756" />
      <path d="M -24.629746,-15.477779 C -24.547332,-15.512392 -24.531909,-15.569235 -24.533203,-15.566401" />
      <path d="M -24.629746,-15.477779 C -24.747051,-15.425772 -24.909156,-15.432821 -24.907554,-15.433331" />
      <line x1="-26.168867" y1="-16.430039" x2="-26.767437" y2="-16.458636" />
      <path d="M -24.129234,-15.103596 C -24.148945,-14.976221 -24.175891,-14.882265 -24.175051,-14.885711" />
      <line x1="-24.113312" y1="-15.25249" x2="-24.113343" y2="-15.366729" />
      <path d="M -24.129234,-15.103596 C -24.115578,-15.190168 -24.113109,-15.256202 -24.113312,-15.25249" />
      <line x1="-23.853858" y1="-13.866557" x2="-23.853858" y2="-14.598011" />
      <line x1="-24.186263" y1="-14.846517" x2="-23.853858" y2="-14.598011" />
      <path d="M -22.549324,-13.922454 C -22.661413,-13.864141 -22.814644,-13.864597 -22.809866,-13.865099" />
      <path d="M -22.549324,-13.922454 C -22.471667,-13.96118 -22.457625,-14.018562 -22.458781,-14.015562" />
      <line x1="-22.458956" y1="-14.129908" x2="-22.458781" y2="-14.015562" />
      <line x1="-23.853858" y1="-14.598011" x2="-22.458956" y2="-14.129908" />
      <path d="M -21.228688,-12.935146 C -21.248399,-12.807771 -21.275345,-12.713816 -21.274505,-12.717262" />
      <line x1="-21.212766" y1="-13.084041" x2="-21.212797" y2="-13.198279" />
      <path d="M -21.228688,-12.935146 C -21.215032,-13.021718 -21.212563,-13.087753 -21.212766,-13.084041" />
      <line x1="-21.023281" y1="-11.453512" x2="-21.023281" y2="-12.386836" />
      <line x1="-21.308113" y1="-12.599776" x2="-21.023281" y2="-12.386836" />
      <path d="M -19.380812,-11.484059 C -19.478646,-11.450524 -19.586527,-11.451202 -19.581401,-11.451497" />
      <line x1="-19.380812" y1="-11.484059" x2="-19.380812" y2="-11.766752" />
      <line x1="-20.702899" y1="-12.210419" x2="-19.380812" y2="-11.766752" />
      <path d="M -20.784683,-12.360737 C -20.81683,-12.304535 -20.789156,-12.262587 -20.756167,-12.238593" />
      <path d="M -20.756167,-12.238593 C -20.729107,-12.21839 -20.699782,-12.209397 -20.702899,-12.210419" />
      <line x1="-21.023281" y1="-12.386836" x2="-20.766967" y2="-12.386478" />
      <path d="M -19.380812,-11.484059 C -19.398016,-11.390245 -19.416987,-11.324453 -19.416086,-11.327907" />
      <line x1="-19.234831" y1="-9.819561" x2="-19.234831" y2="-10.752885" />
      <line x1="-19.519663" y1="-10.965826" x2="-19.234831" y2="-10.752885" />
      <path d="M -17.134523,-9.874347 C -17.246611,-9.816033 -17.399843,-9.816489 -17.395064,-9.816991" />
      <path d="M -17.134523,-9.874347 C -17.056866,-9.913072 -17.042824,-9.970454 -17.04398,-9.967454" />
      <line x1="-17.044155" y1="-10.081801" x2="-17.04398" y2="-9.967454" />
      <line x1="-18.516562" y1="-10.575912" x2="-17.044155" y2="-10.081801" />
      <path d="M -18.598346,-10.726231 C -18.630493,-10.670029 -18.602819,-10.62808 -18.56983,-10.604087" />
      <path d="M -18.56983,-10.604087 C -18.54277,-10.583884 -18.513445,-10.574891 -18.516562,-10.575912" />
      <line x1="-19.234831" y1="-10.752885" x2="-18.58063" y2="-10.751971" />
      <path d="M -15.813887,-8.887039 C -15.833598,-8.759664 -15.860544,-8.665708 -15.859703,-8.669154" />
      <line x1="-15.797965" y1="-9.035933" x2="-15.797995" y2="-9.150172" />
      <path d="M -15.813887,-8.887039 C -15.800231,-8.973611 -15.797761,-9.039645 -15.797965,-9.035933" />
      <line x1="-15.468541" y1="-7.894596" x2="-15.468541" y2="-8.493082" />
      <line x1="-15.835868" y1="-8.767695" x2="-15.468541" y2="-8.493082" />
      <path d="M -14.561895,-7.951049 C -14.673984,-7.892736 -14.827215,-7.893192 -14.822436,-7.893693" />
      <path d="M -14.561895,-7.951049 C -14.484238,-7.989774 -14.470196,-8.047157 -14.471352,-8.044157" />
      <line x1="-14.471527" y1="-8.158503" x2="-14.471352" y2="-8.044157" />
      <line x1="-15.468541" y1="-8.493082" x2="-14.471527" y2="-8.158503" />
      <path d="M -13.241259,-6.963741 C -13.26097,-6.836366 -13.287916,-6.742411 -13.287075,-6.745857" />
      <line x1="-13.225337" y1="-7.112635" x2="-13.225368" y2="-7.226874" />
      <path d="M -13.241259,-6.963741 C -13.227603,-7.050313 -13.225133,-7.116347 -13.225337,-7.112635" />
      <line x1="-13.10582" y1="-5.237511" x2="-13.10582" y2="-6.170834" />
      <line x1="-13.390652" y1="-6.383775" x2="-13.10582" y2="-6.170834" />
      <line x1="-13.10582" y1="-6.170834" x2="-12.45162" y2="-6.169921" />
      <line x1="-21.212797" y1="-13.198279" x2="-22.458956" y2="-14.129908" />
      <line x1="-24.113343" y1="-15.366729" x2="-24.53339" y2="-15.680756" />
      <line x1="-24.113312" y1="-15.25249" x2="-24.533203" y2="-15.566401" />
      <line x1="-21.212766" y1="-13.084041" x2="-22.458781" y2="-14.015562" />
      <line x1="-15.797965" y1="-9.035933" x2="-17.04398" y2="-9.967454" />
      <line x1="-15.797995" y1="-9.150172" x2="-17.044155" y2="-10.081801" />
      <line x1="-13.225368" y1="-7.226874" x2="-14.471527" y2="-8.158503" />
      <line x1="-13.225337" y1="-7.112635" x2="-14.471352" y2="-8.044157" />
      <line x1="-8.83674" y1="6.061122" x2="-8.83674" y2="3.91323" />
      <line x1="-7.113127" y1="3.453306" x2="-7.113127" y2="2.509625" />
      <line x1="-10.143776" y1="-1.393767" x2="-10.143776" y2="-2.695653" />
      <line x1="1.412682" y1="-4.248505" x2="1.412682" y2="-6.396397" />
      <line x1="5.28169" y1="-3.011999" x2="5.28169" y2="-5.15989" />
      <line x1="9.697924" y1="-3.60681" x2="9.697924" y2="-5.754702" />
      <line x1="12.579138" y1="-3.401008" x2="12.579138" y2="-5.5489" />
      <line x1="15.942906" y1="-1.860352" x2="15.942906" y2="-4.008243" />
      <line x1="17.739773" y1="0.457084" x2="17.739773" y2="-1.690807" />
      <line x1="12.48924" y1="10.101858" x2="12.48924" y2="7.953966" />
      <line x1="9.715037" y1="11.038808" x2="9.715037" y2="8.890916" />
      <line x1="5.365845" y1="9.319956" x2="5.365845" y2="9.285594" />
      <line x1="-7.611301" y1="-2.754782" x2="-11.005512" y2="-5.292296" />
      <line x1="-12.171114" y1="-5.921229" x2="-12.469336" y2="-6.14418" />
      <line x1="-23.714925" y1="-14.551388" x2="-24.172821" y2="-14.89371" />
      <line x1="-25.872593" y1="-16.164461" x2="-26.190578" y2="-16.402187" />
      <line x1="-20.486461" y1="-12.137786" x2="-20.784683" y2="-12.360737" />
      <line x1="-18.300124" y1="-10.50328" x2="-18.598346" y2="-10.726231" />
      <line x1="-24.129234" y1="-15.103596" x2="-24.629746" y2="-15.477779" />
      <line x1="-21.228688" y1="-12.935146" x2="-22.549324" y2="-13.922454" />
      <line x1="-15.813887" y1="-8.887039" x2="-17.134523" y2="-9.874347" />
      <line x1="-13.241259" y1="-6.963741" x2="-14.561895" y2="-7.951049" />
      <path d="M 17.240415,8.671284 L 17.240415,6.523393" />
      <path d="M -9.02638,7.844074 L -9.02638,5.696182" />
      <path d="M -8.923661,6.226579 L -8.923661,4.078687" />
      <path d="M -10.480262,-0.940555 L -10.480262,-2.68073" />
      <path d="M 17.739827,0.461189 L 17.739827,-1.686703" />
      <path d="M 17.540612,1.838258 L 17.540612,0.753397" />
      <path d="M -23.066765,-18.852941 L -24.649122,-20.035912" />
      <path d="M -11.491586,-5.693193 L -13.236329,-6.997564" />
      <path d="M -15.047968,-8.351946 L -15.808957,-8.920861" />
      <path d="M -17.620596,-10.275243 L -19.380812,-11.591181" />
      <path d="M -19.806933,-11.90975 L -21.223759,-12.968969" />
      <path d="M -23.035398,-14.323351 L -24.124305,-15.137418" />
      <path d="M -25.148032,-15.902758 L -28.058497,-18.078622" />
    </g>
    <g fill="none" stroke="rgb(99,99,99)" stroke-width="0.04121849171601774" id="Hidden" stroke-dasharray="0.001047 0.124179">
      <line x1="14.14949" y1="11.48341" x2="14.14949" y2="9.335518" />
      <path d="M 14.14949,9.335518 C 14.14949,9.335518 16.768336,8.146907 17.133216,7.187887" />
      <path d="M 9.511221,10.747687 C 10.925219,10.980015 14.14949,9.335518 14.14949,9.335518" />
      <path d="M 17.133216,7.187887 C 17.208227,6.990738 17.240415,6.766719 17.240415,6.523393" />
      <path d="M 16.343082,3.055981 C 16.180078,2.52825 16.060517,2.044784 16.060517,1.659743" />
      <path d="M 16.060517,1.659743 C 16.060517,1.419934 16.106895,1.218303 16.21804,1.067935" />
      <path d="M 0.7533,9.134553 C 2.248649,8.911651 7.753289,10.45885 9.511221,10.747687" />
      <path d="M -1.399845,9.71658 C -1.088224,9.784118 0.264341,9.207438 0.7533,9.134553" />
      <path d="M -2.789889,9.261841 C -2.55621,9.456606 -2.023089,9.581504 -1.399845,9.71658" />
      <path d="M -3.864814,9.578439 C -3.412948,9.643857 -2.789889,9.261841 -2.789889,9.261841" />
      <path d="M -7.196643,8.061659 C -5.537081,9.302349 -4.51755,9.48394 -3.864814,9.578439" />
      <path d="M -9.025449,5.720346 C -8.994338,6.123133 -8.856206,6.82097 -7.196643,8.061659" />
      <path d="M -8.297446,4.9962 C -8.297446,4.9962 -8.722801,5.176267 -8.923661,5.435766" />
      <path d="M -9.02638,5.696182 C -9.02638,5.704203 -9.026074,5.712258 -9.025449,5.720346" />
      <path d="M -8.923661,4.078687 C -8.923661,4.413259 -8.297446,4.9962 -8.297446,4.9962" />
      <path d="M -7.113127,1.305414 C -7.151336,1.554986 -7.207171,1.782011 -7.275852,1.988535" />
      <path d="M -7.984132,-0.953011 C -7.984132,-0.953011 -7.074243,-0.503664 -7.074243,0.815173" />
      <path d="M -7.074243,0.815173 C -7.074243,0.96687 -7.086281,1.130071 -7.113127,1.305414" />
      <line x1="-10.334292" y1="-2.709991" x2="-7.984132" y2="-0.953011" />
      <path d="M -10.143776,-3.541659 C -10.404493,-3.405666 -10.480262,-3.237727 -10.480262,-3.088446" />
      <path d="M -10.480262,-3.088446 C -10.480262,-2.881246 -10.334292,-2.709991 -10.334292,-2.709991" />
      <line x1="-9.337683" y1="-3.962128" x2="-10.143776" y2="-3.541659" />
      <line x1="-9.323729" y1="-3.951696" x2="-9.337683" y2="-3.962128" />
      <line x1="-2.618098" y1="-7.449444" x2="-2.632052" y2="-7.442165" />
      <line x1="-3.566214" y1="-6.954894" x2="-9.323729" y2="-3.951696" />
      <line x1="-2.618098" y1="-7.449444" x2="-2.632052" y2="-7.459876" />
      <path d="M 17.049492,-1.08665 C 17.049492,-1.08665 17.732782,-1.414635 17.739773,-1.682575" />
      <path d="M 17.518559,-0.151516 C 17.533796,-0.205306 17.540612,-0.258144 17.540612,-0.309634" />
      <path d="M 17.540612,-0.309634 C 17.540612,-0.746711 17.049492,-1.08665 17.049492,-1.08665" />
      <path d="M 16.21804,1.067935 C 16.811638,0.264864 17.458718,0.059729 17.518559,-0.151516" />
      <path d="M 14.370354,6.421776 C 14.370378,6.423107 14.370391,6.424441 14.370391,6.425779" />
      <path d="M 14.370391,6.425779 C 14.370391,6.636376 14.066503,6.930711 13.683014,7.214364" />
      <path d="M 7.200647,8.082703 C 6.213297,7.732626 5.398135,7.382972 5.365845,7.172064" />
      <path d="M 12.469251,3.512422 C 13.032165,3.766052 13.862114,5.324617 14.370354,6.421776" />
      <path d="M 5.365845,7.172064 C 5.365002,7.166564 5.364586,7.160959 5.364586,7.155252" />
      <path d="M 5.364586,7.155252 C 5.364586,6.756219 7.401847,5.856683 8.502085,5.285054" />
      <path d="M 8.502085,5.285054 C 9.752072,4.635623 11.906345,3.258787 12.469251,3.512422" />
      <line x1="-2.789889" y1="11.409733" x2="-2.789889" y2="9.261841" />
      <line x1="-8.297446" y1="7.144091" x2="-8.297446" y2="4.9962" />
      <line x1="-7.984132" y1="1.194881" x2="-7.984132" y2="-0.953011" />
      <line x1="-10.334292" y1="-0.562099" x2="-10.334292" y2="-2.709991" />
      <line x1="-9.337683" y1="-3.962128" x2="-9.337683" y2="-2.25231" />
      <line x1="-9.323729" y1="-3.951696" x2="-9.323729" y2="-1.816106" />
      <line x1="-2.618098" y1="-7.449444" x2="-2.618098" y2="-5.301552" />
      <line x1="-2.627765" y1="-6.253331" x2="-2.627765" y2="-5.308779" />
      <line x1="-5.313855" y1="-4.852207" x2="-2.627765" y2="-6.253331" />
      <path d="M -5.417054,-4.824308 C -5.372079,-4.815744 -5.313855,-4.852207 -5.313855,-4.852207" />
      <path d="M -5.464729,-4.86411 C -5.464729,-4.86411 -5.463414,-4.848806 -5.447202,-4.836685" />
      <path d="M -5.447202,-4.836685 C -5.440249,-4.831488 -5.430557,-4.826876 -5.417054,-4.824308" />
      <line x1="-5.545637" y1="-5.700271" x2="-5.464729" y2="-4.86411" />
      <path d="M -5.818115,-5.780243 C -5.818115,-5.780243 -5.647206,-5.830073 -5.575909,-5.776771" />
      <path d="M -5.575909,-5.776771 C -5.555162,-5.76126 -5.542849,-5.737017 -5.545637,-5.700271" />
      <line x1="-6.772167" y1="-5.282596" x2="-5.818115" y2="-5.780243" />
      <line x1="-6.829728" y1="-4.846425" x2="-6.772167" y2="-5.282596" />
      <line x1="-7.175094" y1="-4.666277" x2="-6.829728" y2="-4.846425" />
      <line x1="-7.232655" y1="-5.042399" x2="-7.175094" y2="-4.666277" />
      <line x1="-7.616396" y1="-4.842235" x2="-7.232655" y2="-5.042399" />
      <line x1="-7.673957" y1="-4.406063" x2="-7.616396" y2="-4.842235" />
      <line x1="-8.018084" y1="-4.226562" x2="-7.673957" y2="-4.406063" />
      <line x1="-8.081255" y1="-4.599758" x2="-8.018084" y2="-4.226562" />
      <line x1="-8.462516" y1="-4.400887" x2="-8.081255" y2="-4.599758" />
      <path d="M -8.499984,-4.147637 C -8.445984,-4.269577 -8.462516,-4.400887 -8.462516,-4.400887" />
      <path d="M -8.586634,-4.02535 C -8.586634,-4.02535 -8.553985,-4.025665 -8.499984,-4.147637" />
      <line x1="-9.314062" y1="-3.644351" x2="-8.586634" y2="-4.02535" />
      <line x1="-9.314062" y1="-1.808879" x2="-9.314062" y2="-3.644351" />
      <line x1="-8.423837" y1="-3.030587" x2="-7.558171" y2="-2.990076" />
      <path d="M -8.47192,-3.155711 C -8.491081,-3.087517 -8.474045,-3.056474 -8.455154,-3.042351" />
      <path d="M -8.455154,-3.042351 C -8.440086,-3.031086 -8.423837,-3.030587 -8.423837,-3.030587" />
      <path d="M -8.47192,-3.155711 C -8.448631,-3.238593 -8.399033,-3.29419 -8.369355,-3.321504" />
      <path d="M -8.248345,-3.391835 Q -8.209504,-3.412087 -8.158342,-3.438763" />
      <path d="M -6.929215,-4.079651 C -6.791069,-4.151686 -6.690075,-4.20435 -6.658878,-4.220622 C -6.596249,-4.25329 -6.556974,-4.245899 -6.53269,-4.227745" />
      <path d="M -6.53269,-4.227745 C -6.502672,-4.205304 -6.495561,-4.166416 -6.495561,-4.166416" />
      <line x1="-6.450871" y1="-3.722041" x2="-6.495561" y2="-4.166416" />
      <line x1="17.049492" y1="1.061242" x2="17.049492" y2="-1.08665" />
      <line x1="14.370354" y1="8.569668" x2="14.370354" y2="6.421776" />
      <line x1="-2.627765" y1="-6.253331" x2="-2.632052" y2="-6.256537" />
      <line x1="-8.504087" y1="-9.335226" x2="-8.591548" y2="-9.400612" />
      <line x1="-8.591548" y1="-9.400612" x2="-8.504087" y2="-9.70636" />
      <line x1="-13.920293" y1="-12.270984" x2="-14.145764" y2="-12.439545" />
      <line x1="-14.145764" y1="-12.439545" x2="-13.708458" y2="-13.968283" />
      <line x1="-19.212125" y1="-16.227159" x2="-19.437596" y2="-16.395721" />
      <line x1="-19.437596" y1="-16.395721" x2="-19.175212" y2="-17.312964" />
      <line x1="-20.259544" y1="-18.123611" x2="-20.3919" y2="-18.22256" />
      <line x1="-20.3919" y1="-18.22256" x2="-20.259544" y2="-18.685249" />
      <line x1="-5.313855" y1="-4.852207" x2="-24.153201" y2="-18.936509" />
      <line x1="-5.464729" y1="-4.86411" x2="-24.335542" y2="-18.971938" />
      <line x1="-5.545637" y1="-5.700271" x2="-23.147084" y2="-18.85912" />
      <line x1="-5.818115" y1="-5.780243" x2="-25.107481" y2="-20.200981" />
      <line x1="-6.772167" y1="-5.282596" x2="-26.402649" y2="-19.958353" />
      <line x1="-6.829728" y1="-4.846425" x2="-26.413056" y2="-19.486928" />
      <line x1="-7.175094" y1="-4.666277" x2="-26.475492" y2="-19.095262" />
      <line x1="-7.232655" y1="-5.042399" x2="-26.428048" y2="-19.392882" />
      <line x1="-7.616396" y1="-4.842235" x2="-26.555272" y2="-19.000946" />
      <line x1="-7.673957" y1="-4.406063" x2="-26.565678" y2="-18.529521" />
      <line x1="-8.018084" y1="-4.226562" x2="-26.62789" y2="-18.13926" />
      <line x1="-8.081255" y1="-4.599758" x2="-26.58146" y2="-18.430518" />
      <line x1="-8.462516" y1="-4.400887" x2="-26.708236" y2="-18.041395" />
      <line x1="-8.586634" y1="-4.02535" x2="-26.730674" y2="-17.589841" />
      <line x1="-10.353733" y1="-4.421609" x2="-26.86218" y2="-16.763331" />
      <line x1="-10.018271" y1="-4.597311" x2="-10.353733" y2="-4.421609" />
      <line x1="-8.992555" y1="-3.830485" x2="-10.018271" y2="-4.597311" />
      <line x1="-9.328016" y1="-3.654783" x2="-8.992555" y2="-3.830485" />
      <line x1="-9.314062" y1="-3.644351" x2="-9.328016" y2="-3.654783" />
      <line x1="-9.328016" y1="-2.245084" x2="-9.328016" y2="-3.654783" />
      <line x1="-8.423837" y1="-3.030587" x2="-12.387552" y2="-5.993862" />
      <line x1="-6.495561" y1="-4.166416" x2="-26.208557" y2="-18.903859" />
      <path d="M -21.486103,-12.885119 L -21.482988,-12.921775" />
      <path d="M -21.482988,-12.921775 L -21.263863,-12.757957" />
      <path d="M -19.627684,-11.495765 L -19.624569,-11.53242" />
      <path d="M -19.624569,-11.53242 L -19.405444,-11.368602" />
      <path d="M -13.498674,-6.913714 L -13.495559,-6.95037" />
      <path d="M -13.495559,-6.95037 Q -13.387515,-6.869596 -13.276434,-6.786552" />
      <line x1="-8.591548" y1="-8.443846" x2="-8.591548" y2="-9.400612" />
      <line x1="-14.145764" y1="-11.482798" x2="-14.145764" y2="-12.439545" />
      <line x1="-19.437596" y1="-15.438974" x2="-19.437596" y2="-16.395721" />
      <line x1="-20.3919" y1="-17.265793" x2="-20.3919" y2="-18.22256" />
      <line x1="-10.353733" y1="-4.421609" x2="-10.353733" y2="-2.586137" />
      <line x1="-10.018271" y1="-2.761118" x2="-10.018271" y2="-4.597311" />
      <line x1="-8.992555" y1="-1.994292" x2="-8.992555" y2="-3.830485" />
      <line x1="-24.358638" y1="-14.243931" x2="-24.358638" y2="-14.975385" />
      <line x1="-24.113343" y1="-15.366729" x2="-24.358638" y2="-14.975385" />
      <line x1="-24.358638" y1="-14.975385" x2="-24.186263" y2="-14.846517" />
      <path d="M -21.486103,-12.885119 C -21.491756,-12.80911 -21.48689,-12.784213 -21.481089,-12.780545" />
      <path d="M -21.481089,-12.780545 C -21.47633,-12.777015 -21.471173,-12.78609 -21.471721,-12.785191" />
      <line x1="-21.212797" y1="-13.198279" x2="-21.471721" y2="-12.785191" />
      <line x1="-21.528061" y1="-11.830886" x2="-21.528061" y2="-12.76421" />
      <line x1="-21.482988" y1="-12.921775" x2="-21.528061" y2="-12.76421" />
      <line x1="-21.528061" y1="-12.76421" x2="-21.308113" y2="-12.599776" />
      <line x1="-19.739611" y1="-10.196935" x2="-19.739611" y2="-11.130259" />
      <line x1="-19.624569" y1="-11.53242" x2="-19.739611" y2="-11.130259" />
      <path d="M -19.627684,-11.495765 C -19.633337,-11.419755 -19.628471,-11.394858 -19.62267,-11.39119" />
      <path d="M -19.62267,-11.39119 C -19.617911,-11.38766 -19.612754,-11.396735 -19.613303,-11.395836" />
      <line x1="-19.380812" y1="-11.766752" x2="-19.613303" y2="-11.395836" />
      <line x1="-19.739611" y1="-11.130259" x2="-19.519663" y2="-10.965826" />
      <line x1="-15.973322" y1="-8.27197" x2="-15.973322" y2="-8.870456" />
      <line x1="-15.797995" y1="-9.150172" x2="-15.973322" y2="-8.870456" />
      <line x1="-15.973322" y1="-8.870456" x2="-15.835868" y2="-8.767695" />
      <path d="M -13.498674,-6.913714 C -13.504327,-6.837705 -13.499461,-6.812807 -13.493659,-6.80914" />
      <path d="M -13.493659,-6.80914 C -13.488901,-6.805609 -13.483744,-6.814685 -13.484292,-6.813785" />
      <line x1="-13.225368" y1="-7.226874" x2="-13.484292" y2="-6.813785" />
      <line x1="-13.610601" y1="-5.614884" x2="-13.610601" y2="-6.548208" />
      <line x1="-13.495559" y1="-6.95037" x2="-13.610601" y2="-6.548208" />
      <line x1="-13.610601" y1="-6.548208" x2="-13.390652" y2="-6.383775" />
      <line x1="-21.471721" y1="-12.785191" x2="-26.103375" y2="-16.247817" />
      <line x1="-19.613303" y1="-11.395836" x2="-20.702899" y2="-12.210419" />
      <line x1="-13.484292" y1="-6.813785" x2="-18.516562" y2="-10.575912" />
      <path d="M 16.060517,3.807635 L 16.060517,1.659743" />
      <path d="M -7.074243,2.963065 L -7.074243,0.815173" />
      <path d="M -10.480262,-2.68073 L -10.480262,-3.088446" />
      <path d="M 17.540612,0.753397 L 17.540612,-0.309634" />
      <path d="M 14.370391,8.57367 L 14.370391,6.425779" />
      <path d="M 5.364586,9.303144 L 5.364586,7.155252" />
      <path d="M -5.447202,-4.836685 L -24.405552,-19.009956" />
      <path d="M -5.575909,-5.776771 L -23.066765,-18.852941" />
      <path d="M -8.455154,-3.042351 L -12.440819,-6.022036" />
      <path d="M -6.53269,-4.227745 L -26.245685,-18.965188" />
      <path d="M -8.3455,-3.341178 L -11.491586,-5.693193" />
      <path d="M -13.236329,-6.997564 L -15.047968,-8.351946" />
      <path d="M -15.808957,-8.920861 L -17.620596,-10.275243" />
      <path d="M -19.380812,-11.591181 L -19.806933,-11.90975" />
      <path d="M -21.223759,-12.968969 L -23.035398,-14.323351" />
      <path d="M -24.124305,-15.137418 L -25.148032,-15.902758" />
      <path d="M -21.481089,-12.780545 L -26.160172,-16.27863" />
      <path d="M -19.62267,-11.39119 L -20.756167,-12.238593" />
      <path d="M -13.493659,-6.80914 L -18.56983,-10.604087" />
      <line x1="17.133216" y1="9.335778" x2="17.133216" y2="7.187887" />
      <line x1="9.511221" y1="12.895579" x2="9.511221" y2="10.747687" />
      <line x1="16.21804" y1="3.215826" x2="16.21804" y2="1.067935" />
      <line x1="0.7533" y1="11.282445" x2="0.7533" y2="9.134553" />
      <line x1="17.518559" y1="1.996375" x2="17.518559" y2="-0.151516" />
      <line x1="-1.399845" y1="11.864472" x2="-1.399845" y2="9.71658" />
      <line x1="-3.864814" y1="11.72633" x2="-3.864814" y2="9.578439" />
      <line x1="-7.196643" y1="10.209551" x2="-7.196643" y2="8.061659" />
      <line x1="-9.025449" y1="7.868238" x2="-9.025449" y2="5.720346" />
      <line x1="-7.113127" y1="2.509625" x2="-7.113127" y2="1.305414" />
      <line x1="-10.143776" y1="-2.695653" x2="-10.143776" y2="-3.541659" />
      <line x1="5.365845" y1="9.285594" x2="5.365845" y2="7.172064" />
      <line x1="12.469251" y1="5.660313" x2="12.469251" y2="3.512422" />
      <line x1="8.502085" y1="7.432946" x2="8.502085" y2="5.285054" />
      <line x1="-5.417054" y1="-4.824308" x2="-24.348498" y2="-18.977463" />
      <line x1="-8.499984" y1="-4.147637" x2="-26.715009" y2="-17.765197" />
      <line x1="-8.47192" y1="-3.155711" x2="-12.171114" y2="-5.921229" />
      <line x1="-21.486103" y1="-12.885119" x2="-23.714925" y2="-14.551388" />
      <line x1="-24.172821" y1="-14.89371" x2="-25.872593" y2="-16.164461" />
      <line x1="-19.627684" y1="-11.495765" x2="-20.486461" y2="-12.137786" />
      <line x1="-13.498674" y1="-6.913714" x2="-18.300124" y2="-10.50328" />
    </g>
  </g>
</svg>