<?xml version="1.0" encoding="UTF-8" standalone="no"?>
<svg
   width="297mm"
   height="210mm"
   viewBox="-8.545 -0.045 296.99999 210.00001"
   version="1.1"
   id="svg2"
   sodipodi:docname="MIWA.svg"
   inkscape:version="1.4.2 (f4327f4, 2025-05-13)"
   xmlns:inkscape="http://www.inkscape.org/namespaces/inkscape"
   xmlns:sodipodi="http://sodipodi.sourceforge.net/DTD/sodipodi-0.dtd"
   xmlns="http://www.w3.org/2000/svg"
   xmlns:svg="http://www.w3.org/2000/svg">
  <defs
     id="defs2">
    <inkscape:path-effect
       effect="bspline"
       id="path-effect5"
       is_visible="true"
       lpeversion="1.3"
       weight="33.333333"
       steps="2"
       helper_size="0"
       apply_no_weight="true"
       apply_with_weight="true"
       only_selected="false"
       uniform="false" />
    <inkscape:path-effect
       effect="bspline"
       id="path-effect4"
       is_visible="true"
       lpeversion="1.3"
       weight="33.333333"
       steps="2"
       helper_size="0"
       apply_no_weight="true"
       apply_with_weight="true"
       only_selected="false"
       uniform="false" />
    <inkscape:path-effect
       effect="bspline"
       id="path-effect2"
       is_visible="true"
       lpeversion="1.3"
       weight="33.333333"
       steps="2"
       helper_size="0"
       apply_no_weight="true"
       apply_with_weight="true"
       only_selected="false"
       uniform="false" />
  </defs>
  <sodipodi:namedview
     id="namedview2"
     pagecolor="#ffffff"
     bordercolor="#000000"
     borderopacity="0.25"
     inkscape:showpageshadow="2"
     inkscape:pageopacity="0.0"
     inkscape:pagecheckerboard="false"
     inkscape:deskcolor="#d1d1d1"
     inkscape:document-units="mm"
     inkscape:zoom="4.6509993"
     inkscape:cx="154.37543"
     inkscape:cy="47.624174"
     inkscape:window-width="2560"
     inkscape:window-height="1369"
     inkscape:window-x="-8"
     inkscape:window-y="482"
     inkscape:window-maximized="1"
     inkscape:current-layer="layer1"
     showgrid="true">
    <inkscape:grid
       id="grid2"
       units="mm"
       originx="0"
       originy="0"
       spacingx="0.99999999"
       spacingy="1"
       empcolor="#0099e5"
       empopacity="0.30196078"
       color="#0099e5"
       opacity="0.14901961"
       empspacing="5"
       enabled="true"
       visible="true" />
  </sodipodi:namedview>
  <g
     inkscape:groupmode="layer"
     id="layer1"
     inkscape:label="MIWA">
    <path
       d="m 68.853597,11.096595 v -1 h 2.5 l 0.5,1 2,-1 h 1 l 0.5,1 h 2 v 1 h -2.5 l -0.5,-1 -2,1 h -1 l -0.5,-1 h -2"
       id="keyway_sr"
       inkscape:label="#keyway_sr" />
    <path
       id="path3"
       style="fill:#000000;stroke-width:0.264583"
       inkscape:label="#profile_sr_10cut"
       d="m -6.5451221,-0.045 c -1.2872153,0 -1.9595703,1.8908407 -1.9595703,1.8908407 L -8.545,11.455 v 9.5 c 0,1.950937 1.9998779,2 1.9998779,2 H 6.455118 c 0,0 7.702395,0.03069 7.749915,-3.874884 0.01851,-1.52147 0,-1.500167 0,-1.500167 h 5.249808 v -1.999821 l 28.000159,-5.7e-5 3.999955,-3.499943 4.5e-5,-1.25 -4,-3.5001994 H 19.454841 V 5.3300507 H 14.205033 V 3.8298839 C 14.205033,-0.19174715 6.455118,-0.045 6.455118,-0.045 Z m 1.1678874,9.5001222 h 1.6665649 c 0.500011,0 0.83327,-2.719e-4 0.999939,0.1663981 0.16667,0.166669 0.1669149,0.4999287 0.1669149,0.9999387 v 1.666565 c 0,0.500009 -2.439e-4,0.833268 -0.1669149,0.999939 -0.16667,0.16667 -0.499929,0.166917 -0.999939,0.166915 l -1.6665649,-8e-6 c -0.50001,-3e-6 -0.833269,-2.37e-4 -0.999939,-0.166907 -0.16667,-0.16667 -0.1663981,-0.499929 -0.1663981,-0.999939 0,-0.50001 -2.157e-4,-1.166499 -5.167e-4,-1.502234 -3.02e-4,-0.335735 -7.376e-4,-0.34076 -0.00103,-0.343131 -2.98e-4,-0.0024 -2.99e-4,-0.0022 0,-0.166398 3e-4,-0.164276 4.617e-4,-0.4930445 0.1674317,-0.6573245 0.16697,-0.16428 1.5004657,-0.1638143 1.0004557,-0.1638143 z"
       sodipodi:nodetypes="sccsccsccccccccccscsssssssssssssssss" />
    <text
       xml:space="preserve"
       style="font-size:8.46667px;text-align:start;writing-mode:lr-tb;direction:ltr;text-anchor:start;fill:#000000;stroke-width:0.264583"
       x="54.088047"
       y="14.176854"
       id="text1"
       inkscape:label="SR"><tspan
         sodipodi:role="line"
         id="tspan1"
         style="stroke-width:0.264583"
         x="54.088047"
         y="14.176854">SR</tspan></text>
  </g>
</svg>
