<?xml version='1.0' encoding='utf-8'?>
<svg width="92.937333mm" height="100.09mm" viewBox="-19.814772 -13.844527 37.008294 39.856536" version="1.1" xmlns="http://www.w3.org/2000/svg">
  <g transform="scale(1,-1)" stroke-linecap="round">
    <g fill="none" stroke="rgb(0,0,0)" stroke-width="0.035838627552745465" id="Visible">
      <path d="M -3.846198,13.1794 C -3.301646,13.944025 -1.303902,13.819017 -1.303902,13.819017" />
      <line x1="-9.345905" y1="5.457063" x2="-3.846198" y2="13.1794" />
      <line x1="-1.303902" y1="13.819017" x2="7.420091" y2="11.178" />
      <path d="M -9.113414,-1.731418 C -10.382052,-1.343122 -10.795538,-0.536979 -10.795538,0.34901" />
      <line x1="-8.637193" y1="-1.877177" x2="-9.113414" y2="-1.731418" />
      <line x1="-8.54926" y1="-5.702316" x2="-9.975013" y2="-5.265932" />
      <line x1="-1.184868" y1="-7.956463" x2="-0.687392" y2="-8.108727" />
      <line x1="-0.687331" y1="-8.108641" x2="-0.687392" y2="-8.108727" />
      <line x1="1.124724" y1="-8.663262" x2="-0.687331" y2="-8.108641" />
      <line x1="3.345599" y1="-5.54485" x2="1.124724" y2="-8.663262" />
      <path d="M 4.704951,-5.960847 C 3.370726,-5.565364 3.345599,-5.545757 3.345599,-5.544841" />
      <path d="M 3.345599,-5.544841 C 3.345599,-5.544805 3.345637,-5.544798 3.345637,-5.544798" />
      <path d="M 11.494591,-2.431924 C 11.494591,-2.431924 8.263928,-7.015773 4.704951,-5.960847" />
      <line x1="16.994297" y1="5.290412" x2="11.494591" y2="-2.431924" />
      <path d="M 17.175602,5.90543 C 17.175602,5.562186 16.994297,5.290412 16.994297,5.290412" />
      <line x1="4.221213" y1="8.275147" x2="3.952472" y2="7.897798" />
      <path d="M 4.267871,8.340661 Q 4.220202,8.273959 4.221213,8.274273" />
      <path d="M 4.221213,8.274273 C 4.221213,8.269359 4.653727,8.84412 4.839544,8.889516 C 5.059035,8.943138 5.357004,8.852055 5.505983,8.806673" />
      <path d="M 5.656757,8.760525 C 5.654709,8.761368 5.65489,8.761313 5.505983,8.806673" />
      <path d="M 5.967235,8.664751 C 5.663151,8.758041 5.658782,8.759694 5.656757,8.760525" />
      <path d="M 5.967235,8.664751 C 6.31269,8.558587 7.0414,8.335936 7.502239,8.194272" />
      <path d="M -9.113414,-0.221144 C -10.382052,0.167152 -10.795538,0.973295 -10.795538,1.859284" />
      <path d="M -10.795538,1.859284 C -10.795538,3.518209 -9.345905,5.457063 -9.345905,5.457063" />
      <line x1="-7.7541" y1="-0.637194" x2="-9.113414" y2="-0.221144" />
      <line x1="-9.975013" y1="-3.755658" x2="-7.7541" y2="-0.637194" />
      <line x1="-8.162907" y1="-4.310295" x2="-9.975013" y2="-3.755658" />
      <line x1="-8.162968" y1="-4.310381" x2="-8.162907" y2="-4.310295" />
      <line x1="-8.162968" y1="-4.310381" x2="-0.687392" y2="-6.598453" />
      <line x1="-0.687331" y1="-6.598367" x2="-0.687392" y2="-6.598453" />
      <line x1="1.124724" y1="-7.152988" x2="-0.687331" y2="-6.598367" />
      <line x1="3.345637" y1="-4.034524" x2="1.124724" y2="-7.152988" />
      <path d="M 4.704951,-4.450573 C 3.370726,-4.055091 3.345599,-4.035483 3.345599,-4.034567" />
      <path d="M 3.345599,-4.034567 C 3.345599,-4.034531 3.345637,-4.034524 3.345637,-4.034524" />
      <path d="M 11.494591,-0.92165 C 11.494591,-0.92165 8.263928,-5.505499 4.704951,-4.450573" />
      <line x1="16.994297" y1="6.800686" x2="11.494591" y2="-0.92165" />
      <path d="M 16.028122,8.543314 C 16.955159,8.259573 17.175602,7.794189 17.175602,7.415704" />
      <path d="M 17.175602,7.415704 C 17.175602,7.072459 16.994297,6.800686 16.994297,6.800686" />
      <line x1="7.420091" y1="11.178" x2="16.028122" y2="8.543314" />
      <line x1="4.267873" y1="9.850937" x2="3.562838" y2="8.860973" />
      <line x1="4.267871" y1="9.850935" x2="4.267873" y2="9.850937" />
      <path d="M 3.562838,8.860973 C 3.392443,8.621716 3.267665,8.446783 3.267665,8.311883" />
      <path d="M 3.267665,8.311883 C 3.267665,8.279319 3.274936,8.249087 3.290592,8.220846" />
      <path d="M 4.267871,9.850935 Q 4.220202,9.784233 4.221213,9.784547" />
      <path d="M 4.221213,9.784547 C 4.221213,9.779633 4.653727,10.354394 4.839544,10.399789 C 5.059035,10.453411 5.357004,10.362328 5.505983,10.316947" />
      <path d="M 3.290592,8.220846 C 3.371103,8.075619 3.672969,7.983048 4.126032,7.844378" />
      <path d="M 5.656757,10.270799 C 5.654709,10.271642 5.65489,10.271587 5.505983,10.316947" />
      <line x1="4.126032" y1="7.844378" x2="5.636121" y2="7.38218" />
      <path d="M 5.967235,10.175025 C 5.663151,10.268315 5.658782,10.269968 5.656757,10.270799" />
      <path d="M 7.187051,7.751699 C 6.975525,7.454685 6.834317,7.256793 6.612787,7.204012 C 6.391255,7.151231 6.089183,7.24351 5.636121,7.38218" />
      <path d="M 5.967235,10.175025 C 6.27132,10.081735 6.875141,9.896766 7.328204,9.758095 C 7.870539,9.592654 8.19326,9.492461 8.186836,9.290695" />
      <path d="M 8.186836,9.290695 C 8.186836,9.155785 8.062391,8.980813 7.892078,8.741666" />
      <line x1="7.187051" y1="7.751699" x2="7.892078" y2="8.741666" />
      <line x1="-9.975013" y1="-5.265932" x2="-9.975013" y2="-3.755658" />
      <line x1="-8.162907" y1="-5.159929" x2="-8.162907" y2="-4.310295" />
      <line x1="-8.162968" y1="-5.15991" x2="-8.162968" y2="-4.310381" />
      <line x1="-8.162968" y1="-5.15991" x2="-10.125695" y2="-7.915846" />
      <line x1="-10.125695" y1="-7.915846" x2="-10.125695" y2="-8.482199" />
      <line x1="-0.688128" y1="-7.258973" x2="-0.688128" y2="-6.69262" />
      <line x1="-0.688128" y1="-6.69262" x2="-2.770135" y2="-6.055373" />
      <line x1="-2.770135" y1="-6.055373" x2="-3.242537" y2="-6.698169" />
      <line x1="-3.242537" y1="-6.698169" x2="-5.132145" y2="-5.332426" />
      <line x1="-5.132145" y1="-5.332426" x2="-5.941515" y2="-5.0847" />
      <line x1="-5.941515" y1="-5.0847" x2="-6.394569" y2="-5.701169" />
      <line x1="-6.394569" y1="-5.701169" x2="-8.162968" y2="-5.15991" />
      <line x1="-0.687392" y1="-6.598453" x2="-0.687392" y2="-8.108727" />
      <line x1="-0.687331" y1="-8.108641" x2="-0.687331" y2="-6.598367" />
      <line x1="1.124724" y1="-8.663262" x2="1.124724" y2="-7.152988" />
      <line x1="3.345637" y1="-5.544798" x2="3.345637" y2="-4.034524" />
      <line x1="11.494591" y1="-2.431924" x2="11.494591" y2="-0.92165" />
      <line x1="16.994297" y1="5.290412" x2="16.994297" y2="6.800686" />
      <line x1="4.267873" y1="9.842527" x2="4.267873" y2="9.850937" />
      <line x1="-19.037383" y1="-24.555141" x2="-19.796853" y2="-22.836993" />
      <line x1="-17.588155" y1="-20.833883" x2="-18.388289" y2="-20.084007" />
      <line x1="-14.430198" y1="-16.986165" x2="-15.480824" y2="-16.00153" />
      <line x1="-12.752557" y1="-14.044045" x2="-13.139432" y2="-13.681471" />
      <line x1="-12.621816" y1="-12.388314" x2="-12.793181" y2="-12.227712" />
      <line x1="-9.95433" y1="-8.642801" x2="-10.125695" y2="-8.482199" />
      <line x1="-10.125695" y1="-7.915846" x2="-9.712436" y2="-8.303148" />
      <line x1="-9.712436" y1="-8.303148" x2="-11.275413" y2="-10.497782" />
      <line x1="-11.275413" y1="-10.497782" x2="-11.993682" y2="-10.538754" />
      <line x1="-11.993682" y1="-10.538754" x2="-12.793181" y2="-11.661359" />
      <line x1="-12.793181" y1="-11.661359" x2="-12.379921" y2="-12.048661" />
      <line x1="-13.139432" y1="-13.115118" x2="-12.379921" y2="-12.048661" />
      <line x1="-13.139432" y1="-13.115118" x2="-12.510663" y2="-13.704393" />
      <line x1="-12.510663" y1="-13.704393" x2="-13.154157" y2="-14.607946" />
      <line x1="-13.154157" y1="-14.607946" x2="-14.965261" y2="-14.711256" />
      <line x1="-14.965261" y1="-14.711256" x2="-15.480824" y2="-15.435177" />
      <line x1="-15.480824" y1="-15.435177" x2="-14.189106" y2="-16.64576" />
      <line x1="-6.394569" y1="-5.701169" x2="-14.189106" y2="-16.64576" />
      <line x1="-18.817031" y1="-24.266257" x2="-19.037383" y2="-24.555141" />
      <line x1="-17.182673" y1="-25.990405" x2="-17.396247" y2="-25.99409" />
      <line x1="-17.396247" y1="-25.99409" x2="-18.528902" y2="-25.175487" />
      <line x1="-18.528902" y1="-25.175487" x2="-18.817031" y2="-24.266257" />
      <line x1="-15.941437" y1="-25.631733" x2="-17.182673" y2="-25.990405" />
      <line x1="-10.306545" y1="-17.737379" x2="-10.251619" y2="-17.662135" />
      <line x1="-10.306545" y1="-17.737379" x2="-10.497214" y2="-18.005104" />
      <line x1="-15.24664" y1="-24.675824" x2="-15.941437" y2="-25.631733" />
      <line x1="-0.688128" y1="-7.258973" x2="-2.650706" y2="-10.014699" />
      <line x1="-3.369679" y1="-10.055711" x2="-2.650706" y2="-10.014699" />
      <line x1="-4.690763" y1="-11.910692" x2="-3.369679" y2="-10.055711" />
      <line x1="-5.318194" y1="-13.760212" x2="-4.518993" y2="-12.638025" />
      <line x1="-6.037165" y1="-13.801224" x2="-5.318194" y2="-13.760212" />
      <line x1="-6.037165" y1="-13.801224" x2="-6.796675" y2="-14.86768" />
      <line x1="-7.889512" y1="-14.930018" x2="-6.796675" y2="-14.86768" />
      <line x1="-8.291111" y1="-15.493919" x2="-7.889512" y2="-14.930018" />
      <line x1="-8.005837" y1="-17.534029" x2="-7.490573" y2="-16.810528" />
      <line x1="-10.251619" y1="-17.662135" x2="-8.005837" y2="-17.534029" />
      <line x1="-0.688128" y1="-6.69262" x2="-2.650706" y2="-9.448346" />
      <line x1="-2.650706" y1="-10.014699" x2="-2.650706" y2="-9.448346" />
      <line x1="-2.770135" y1="-6.055373" x2="-15.726733" y2="-24.248201" />
      <line x1="-15.726733" y1="-24.248201" x2="-13.228475" y2="-23.526294" />
      <line x1="-13.311268" y1="-23.448702" x2="-13.228475" y2="-23.526294" />
      <line x1="-12.739834" y1="-22.646331" x2="-13.311268" y2="-23.448702" />
      <line x1="-13.368603" y1="-22.057056" x2="-12.739834" y2="-22.646331" />
      <line x1="-12.72511" y1="-21.153503" x2="-13.368603" y2="-22.057056" />
      <line x1="-10.913302" y1="-21.050153" x2="-12.72511" y2="-21.153503" />
      <line x1="-9.446183" y1="-18.990118" x2="-10.913302" y2="-21.050153" />
      <line x1="-10.769907" y1="-17.749539" x2="-9.446183" y2="-18.990118" />
      <line x1="-10.769907" y1="-17.749539" x2="-10.306545" y2="-17.098915" />
      <line x1="-8.005837" y1="-16.967676" x2="-10.306545" y2="-17.098915" />
      <line x1="-7.490573" y1="-16.244174" x2="-8.005837" y2="-16.967676" />
      <line x1="-8.533005" y1="-15.267218" x2="-7.490573" y2="-16.244174" />
      <line x1="-7.889512" y1="-14.363665" x2="-8.533005" y2="-15.267218" />
      <line x1="-6.796675" y1="-14.301327" x2="-7.889512" y2="-14.363665" />
      <line x1="-6.796675" y1="-14.301327" x2="-6.037165" y2="-13.234871" />
      <line x1="-5.318194" y1="-13.193859" x2="-6.037165" y2="-13.234871" />
      <line x1="-4.518993" y1="-12.071672" x2="-5.318194" y2="-13.193859" />
      <line x1="-4.932657" y1="-11.683991" x2="-4.518993" y2="-12.071672" />
      <line x1="-3.369679" y1="-9.489358" x2="-4.932657" y2="-11.683991" />
      <line x1="-2.650706" y1="-9.448346" x2="-3.369679" y2="-9.489358" />
      <line x1="-3.242537" y1="-6.698169" x2="-16.451201" y2="-25.244931" />
      <line x1="-16.451201" y1="-25.244931" x2="-15.726733" y2="-24.248201" />
      <line x1="-5.132145" y1="-5.332426" x2="-18.594549" y2="-24.235474" />
      <line x1="-18.594549" y1="-24.235474" x2="-18.528902" y2="-24.442632" />
      <line x1="-18.528902" y1="-24.442632" x2="-17.396247" y2="-25.261236" />
      <line x1="-17.396247" y1="-25.261236" x2="-16.451201" y2="-25.244931" />
      <line x1="-5.941515" y1="-5.0847" x2="-18.97208" y2="-23.381387" />
      <line x1="-18.97208" y1="-23.381387" x2="-18.594549" y2="-24.235474" />
      <line x1="-14.189106" y1="-16.64576" x2="-14.157504" y2="-16.603266" />
      <line x1="-14.620867" y1="-17.25389" x2="-14.157504" y2="-16.603266" />
      <line x1="-14.620867" y1="-17.25389" x2="-14.675793" y2="-17.329134" />
      <line x1="-14.675793" y1="-17.329134" x2="-19.183407" y2="-23.658439" />
      <line x1="-19.183407" y1="-23.658439" x2="-18.97208" y2="-23.381387" />
      <line x1="-19.796853" y1="-22.836993" x2="-19.796853" y2="-22.27064" />
      <line x1="-19.796853" y1="-22.27064" x2="-19.183407" y2="-23.658439" />
      <line x1="-18.528902" y1="-25.175487" x2="-18.528902" y2="-24.442632" />
      <line x1="-19.654024" y1="-22.262492" x2="-19.796853" y2="-22.27064" />
      <line x1="-19.082591" y1="-21.460122" x2="-19.654024" y2="-22.262492" />
      <line x1="-17.989754" y1="-21.397784" x2="-19.082591" y2="-21.460122" />
      <line x1="-17.346261" y1="-20.494231" x2="-17.989754" y2="-21.397784" />
      <line x1="-18.388289" y1="-19.517654" x2="-17.346261" y2="-20.494231" />
      <line x1="-18.388289" y1="-19.517654" x2="-18.388289" y2="-20.084007" />
      <line x1="-16.920872" y1="-17.4572" x2="-18.388289" y2="-19.517654" />
      <line x1="-14.675793" y1="-17.329134" x2="-16.920872" y2="-17.4572" />
      <line x1="-15.480824" y1="-15.435177" x2="-15.480824" y2="-16.00153" />
      <line x1="-13.139432" y1="-13.681471" x2="-13.139432" y2="-13.115118" />
      <line x1="-12.793181" y1="-11.661359" x2="-12.793181" y2="-12.227712" />
      <line x1="-17.396247" y1="-25.99409" x2="-17.396247" y2="-25.261236" />
      <line x1="-13.228475" y1="-24.092647" x2="-13.228475" y2="-23.526294" />
      <line x1="-13.228475" y1="-24.092647" x2="-15.24664" y2="-24.675824" />
      <line x1="-10.306545" y1="-17.737379" x2="-10.306545" y2="-17.098915" />
      <line x1="-8.005837" y1="-17.534029" x2="-8.005837" y2="-16.967676" />
      <line x1="-9.446183" y1="-19.556471" x2="-9.446183" y2="-18.990118" />
      <line x1="-10.913302" y1="-21.616506" x2="-9.446183" y2="-19.556471" />
      <line x1="-12.72511" y1="-21.719856" x2="-10.913302" y2="-21.616506" />
      <line x1="-13.126709" y1="-22.283757" x2="-12.72511" y2="-21.719856" />
      <line x1="-13.228475" y1="-23.898802" x2="-12.739834" y2="-23.212684" />
      <line x1="-3.369679" y1="-10.055711" x2="-3.369679" y2="-9.489358" />
      <line x1="-4.518993" y1="-12.638025" x2="-4.518993" y2="-12.071672" />
      <line x1="-5.318194" y1="-13.760212" x2="-5.318194" y2="-13.193859" />
      <line x1="-6.037165" y1="-13.801224" x2="-6.037165" y2="-13.234871" />
      <line x1="-6.796675" y1="-14.86768" x2="-6.796675" y2="-14.301327" />
      <line x1="-7.889512" y1="-14.930018" x2="-7.889512" y2="-14.363665" />
      <line x1="-7.490573" y1="-16.810528" x2="-7.490573" y2="-16.244174" />
      <line x1="-12.739834" y1="-23.212684" x2="-12.739834" y2="-22.646331" />
      <line x1="-12.72511" y1="-21.719856" x2="-12.72511" y2="-21.153503" />
      <line x1="-10.913302" y1="-21.616506" x2="-10.913302" y2="-21.050153" />
      <line x1="-9.113414" y1="-1.731418" x2="-9.113414" y2="-0.221144" />
      <line x1="4.704951" y1="-5.960847" x2="4.704951" y2="-4.450573" />
      <line x1="3.562838" y1="8.032543" x2="3.562838" y2="8.860973" />
      <line x1="4.267871" y1="8.340661" x2="4.267871" y2="9.850935" />
      <line x1="5.505983" y1="8.806673" x2="5.505983" y2="10.316947" />
      <line x1="5.656757" y1="8.760525" x2="5.656757" y2="10.270799" />
      <line x1="5.967235" y1="8.664751" x2="5.967235" y2="10.175025" />
      <path d="M -10.795538,0.34901 L -10.795538,1.859284" />
      <path d="M 3.345599,-5.544841 L 3.345599,-4.034567" />
      <path d="M 17.175602,5.90543 L 17.175602,7.415704" />
      <path d="M 4.221213,8.274273 L 4.221213,9.784547" />
    </g>
    <g fill="none" stroke="rgb(99,99,99)" stroke-width="0.035838627552745465" id="Hidden" stroke-dasharray="0.00091 0.107971">
      <line x1="-1.303902" y1="12.308743" x2="-1.303902" y2="13.819017" />
      <path d="M -3.846198,11.669126 C -3.301646,12.433751 -1.303902,12.308743 -1.303902,12.308743" />
      <line x1="-9.345905" y1="3.946789" x2="-9.345905" y2="5.457063" />
      <line x1="-9.345905" y1="3.946789" x2="-3.846198" y2="11.669126" />
      <line x1="7.420091" y1="9.667727" x2="7.420091" y2="11.178" />
      <line x1="-1.303902" y1="12.308743" x2="7.420091" y2="9.667727" />
      <path d="M -10.795538,0.34901 C -10.795538,2.007935 -9.345905,3.946789 -9.345905,3.946789" />
      <line x1="-7.7541" y1="-2.147467" x2="-8.637193" y2="-1.877177" />
      <line x1="-9.975013" y1="-5.265932" x2="-7.7541" y2="-2.147467" />
      <line x1="-8.162907" y1="-5.820569" x2="-8.54926" y2="-5.702316" />
      <line x1="-8.162968" y1="-5.820655" x2="-8.162907" y2="-5.820569" />
      <line x1="-8.162968" y1="-5.820655" x2="-1.184868" y2="-7.956463" />
      <line x1="3.345637" y1="-5.544798" x2="3.345599" y2="-5.54485" />
      <path d="M 16.028122,7.03304 C 16.955159,6.749299 17.175602,6.283915 17.175602,5.90543" />
      <line x1="7.420091" y1="9.667727" x2="16.028122" y2="7.03304" />
      <line x1="4.267873" y1="8.340664" x2="4.221213" y2="8.275147" />
      <line x1="3.952472" y1="7.897798" x2="3.562838" y2="7.350699" />
      <line x1="4.267871" y1="8.340661" x2="4.267873" y2="8.340664" />
      <path d="M 3.562838,7.350699 C 3.392443,7.111442 3.267665,6.936509 3.267665,6.801609" />
      <path d="M 3.267665,6.801609 C 3.267665,6.769045 3.274936,6.738813 3.290592,6.710572" />
      <path d="M 3.290592,6.710572 C 3.371103,6.565345 3.672969,6.472775 4.126032,6.334104" />
      <line x1="4.126032" y1="6.334104" x2="5.636121" y2="5.871907" />
      <path d="M 7.187051,6.241425 C 6.975525,5.944411 6.834317,5.746519 6.612787,5.693738 C 6.391255,5.640957 6.089183,5.733236 5.636121,5.871907" />
      <path d="M 7.502239,8.194272 C 7.939443,8.058741 8.192157,7.959436 8.186836,7.780421" />
      <path d="M 8.186836,7.780421 C 8.186836,7.645511 8.062391,7.470539 7.892078,7.231392" />
      <line x1="7.187051" y1="6.241425" x2="7.892078" y2="7.231392" />
      <line x1="-7.7541" y1="-2.147467" x2="-7.7541" y2="-0.637194" />
      <line x1="-8.162907" y1="-5.820569" x2="-8.162907" y2="-5.159929" />
      <line x1="-10.125695" y1="-8.482199" x2="-8.162968" y2="-5.726263" />
      <line x1="-8.162968" y1="-5.820655" x2="-8.162968" y2="-5.726263" />
      <line x1="-8.162968" y1="-5.726263" x2="-6.081517" y2="-6.363339" />
      <line x1="-6.081517" y1="-6.363339" x2="-5.609115" y2="-5.720543" />
      <line x1="-5.609115" y1="-5.720543" x2="-3.719507" y2="-7.086287" />
      <line x1="-3.719507" y1="-7.086287" x2="-2.910137" y2="-7.334013" />
      <line x1="-2.910137" y1="-7.334013" x2="-2.457083" y2="-6.717544" />
      <line x1="-2.457083" y1="-6.717544" x2="-0.688128" y2="-7.258973" />
      <line x1="4.267873" y1="8.340664" x2="4.267873" y2="9.842527" />
      <line x1="-6.081517" y1="-6.363339" x2="-19.037383" y2="-24.555141" />
      <line x1="-19.796853" y1="-22.836993" x2="-19.654024" y2="-22.828845" />
      <line x1="-19.654024" y1="-22.828845" x2="-19.082591" y2="-22.026475" />
      <line x1="-19.082591" y1="-22.026475" x2="-17.989754" y2="-21.964137" />
      <line x1="-17.989754" y1="-21.964137" x2="-17.346261" y2="-21.060584" />
      <line x1="-17.346261" y1="-21.060584" x2="-17.588155" y2="-20.833883" />
      <line x1="-18.388289" y1="-20.084007" x2="-16.920872" y2="-18.023553" />
      <line x1="-16.920872" y1="-18.023553" x2="-14.620867" y2="-17.892354" />
      <line x1="-14.157504" y1="-17.24173" x2="-14.620867" y2="-17.892354" />
      <line x1="-14.157504" y1="-17.24173" x2="-14.430198" y2="-16.986165" />
      <line x1="-15.480824" y1="-16.00153" x2="-14.965261" y2="-15.277609" />
      <line x1="-14.965261" y1="-15.277609" x2="-13.154157" y2="-15.174299" />
      <line x1="-13.154157" y1="-15.174299" x2="-12.510663" y2="-14.270746" />
      <line x1="-12.510663" y1="-14.270746" x2="-12.752557" y2="-14.044045" />
      <line x1="-12.379921" y1="-12.615014" x2="-13.139432" y2="-13.681471" />
      <line x1="-12.379921" y1="-12.615014" x2="-12.621816" y2="-12.388314" />
      <line x1="-12.793181" y1="-12.227712" x2="-11.993682" y2="-11.105107" />
      <line x1="-11.993682" y1="-11.105107" x2="-11.275413" y2="-11.064135" />
      <line x1="-11.275413" y1="-11.064135" x2="-9.712436" y2="-8.869501" />
      <line x1="-9.712436" y1="-8.869501" x2="-9.95433" y2="-8.642801" />
      <line x1="-9.712436" y1="-8.869501" x2="-9.712436" y2="-8.303148" />
      <line x1="-5.609115" y1="-5.720543" x2="-18.817031" y2="-24.266257" />
      <line x1="-3.719507" y1="-7.086287" x2="-17.182673" y2="-25.990405" />
      <line x1="-2.910137" y1="-7.334013" x2="-15.941437" y2="-25.631733" />
      <line x1="-2.457083" y1="-6.717544" x2="-10.251619" y2="-17.662135" />
      <line x1="-10.497214" y1="-18.005104" x2="-10.769907" y2="-18.388003" />
      <line x1="-10.738306" y1="-18.345509" x2="-10.769907" y2="-18.388003" />
      <line x1="-10.738306" y1="-18.345509" x2="-15.24664" y2="-24.675824" />
      <line x1="-4.932657" y1="-12.250344" x2="-4.690763" y2="-11.910692" />
      <line x1="-4.518993" y1="-12.638025" x2="-4.932657" y2="-12.250344" />
      <line x1="-8.533005" y1="-15.833571" x2="-8.291111" y2="-15.493919" />
      <line x1="-7.490573" y1="-16.810528" x2="-8.533005" y2="-15.833571" />
      <line x1="-19.654024" y1="-22.828845" x2="-19.654024" y2="-22.262492" />
      <line x1="-19.082591" y1="-22.026475" x2="-19.082591" y2="-21.460122" />
      <line x1="-17.989754" y1="-21.964137" x2="-17.989754" y2="-21.397784" />
      <line x1="-17.346261" y1="-21.060584" x2="-17.346261" y2="-20.494231" />
      <line x1="-16.920872" y1="-18.023553" x2="-16.920872" y2="-17.4572" />
      <line x1="-14.620867" y1="-17.892354" x2="-14.620867" y2="-17.25389" />
      <line x1="-14.157504" y1="-17.24173" x2="-14.157504" y2="-16.603266" />
      <line x1="-14.965261" y1="-15.277609" x2="-14.965261" y2="-14.711256" />
      <line x1="-13.154157" y1="-15.174299" x2="-13.154157" y2="-14.607946" />
      <line x1="-12.510663" y1="-14.270746" x2="-12.510663" y2="-13.704393" />
      <line x1="-12.379921" y1="-12.615014" x2="-12.379921" y2="-12.048661" />
      <line x1="-11.993682" y1="-11.105107" x2="-11.993682" y2="-10.538754" />
      <line x1="-11.275413" y1="-11.064135" x2="-11.275413" y2="-10.497782" />
      <line x1="-10.769907" y1="-18.388003" x2="-10.769907" y2="-17.749539" />
      <line x1="-9.446183" y1="-19.556471" x2="-10.738306" y2="-18.345509" />
      <line x1="-13.368603" y1="-22.623409" x2="-13.126709" y2="-22.283757" />
      <line x1="-12.739834" y1="-23.212684" x2="-13.368603" y2="-22.623409" />
      <line x1="-13.311268" y1="-24.015055" x2="-13.228475" y2="-23.898802" />
      <line x1="-13.228475" y1="-24.092647" x2="-13.311268" y2="-24.015055" />
      <line x1="-4.932657" y1="-12.250344" x2="-4.932657" y2="-11.683991" />
      <line x1="-8.533005" y1="-15.833571" x2="-8.533005" y2="-15.267218" />
      <line x1="-13.311268" y1="-24.015055" x2="-13.311268" y2="-23.448702" />
      <line x1="-13.368603" y1="-22.623409" x2="-13.368603" y2="-22.057056" />
      <path d="M 3.267665,6.801609 L 3.267665,8.311883" />
      <path d="M 8.186836,7.780421 L 8.186836,9.290695" />
      <line x1="-3.846198" y1="11.669126" x2="-3.846198" y2="13.1794" />
      <line x1="16.028122" y1="7.03304" x2="16.028122" y2="8.543314" />
      <line x1="3.562838" y1="7.350699" x2="3.562838" y2="8.032543" />
      <line x1="3.290592" y1="6.710572" x2="3.290592" y2="8.220846" />
      <line x1="4.126032" y1="6.334104" x2="4.126032" y2="7.844378" />
      <line x1="5.636121" y1="5.871907" x2="5.636121" y2="7.38218" />
      <line x1="7.187051" y1="6.241425" x2="7.187051" y2="7.751699" />
      <line x1="7.892078" y1="7.231392" x2="7.892078" y2="8.741666" />
    </g>
  </g>
</svg>